<?xml version="1.0" encoding="utf-8"?>
<!-- Generator: Adobe Illustrator 24.0.2, SVG Export Plug-In . SVG Version: 6.00 Build 0)  -->
<svg version="1.1" id="Layer_1" xmlns="http://www.w3.org/2000/svg" xmlns:xlink="http://www.w3.org/1999/xlink" x="0px" y="0px"
	 viewBox="0 0 5000 5000" style="enable-background:new 0 0 5000 5000;" xml:space="preserve">
<style type="text/css">
	.st0{fill:#42B7B4;}
	.st1{fill:#F899AD;}
	.st2{fill:#F1F0F5;}
	.st3{fill:#8ED4F4;}
</style>
<g>
	<g>
		
			<ellipse transform="matrix(0.7071 -0.7071 0.7071 0.7071 -1055.265 2484.2358)" class="st0" cx="2471.11" cy="2515.94" rx="2428.89" ry="2428.89"/>
		<g>
			<g>
				<path class="st1" d="M3854.36,3408.56c-52.23-278.52-277.11-1184.52-605.48-1184.52H1675.03
					c-328.38,0-539.65,865.03-588.81,1184.52c-49.16,319.49,121.51,593.41,449.89,593.41h1887.71
					C3752.19,4001.96,3906.59,3687.07,3854.36,3408.56z"/>
				<g>
					<g>
						<g>
							<path class="st2" d="M3239.32,1816.06c-4.26-79.28-48.16-180.31-87.84-226.63c-39.71-46.29-113.76-90.26-165.32-98.18
								c-51.59-7.92-157.14-5.68-235.81,5.08l-279.23,38.04l-279.24-38.04c-78.69-10.76-184.23-13-235.86-5.08
								c-51.58,7.92-125.58,51.89-165.3,98.18c-39.68,46.33-83.56,147.35-87.83,226.63c-7.58,140.29,1.75,362.47,102.21,566.38
								c0,0,71.88,143.76,71.88,373.75c0,168.19,64.09,530.85,147.29,692.16c36.39,70.59,145.4,57.06,167.49-19.24
								c77.28-267.35,132.36-940.72,279.3-938.86c146.86-1.86,201.97,671.52,279.35,938.86c22.12,76.3,131.17,89.82,167.52,19.24
								c83.2-161.31,147.31-523.9,147.31-692.16c0-230,71.88-373.75,71.88-373.75C3237.56,2178.54,3246.9,1956.35,3239.32,1816.06z"
								/>
						</g>
					</g>
				</g>
				<g>
					<path class="st3" d="M1866.34,1749.85c9.01-105.78,93.28-190.03,199.06-199.04c-106.33-9.05-190.9-94.14-199.19-200.67
						c-9.92,106.91-96.77,191.47-204.67,197.83l-1.9,1.89l0.41,0.41C1769.2,1555.97,1857.11,1641.68,1866.34,1749.85z"/>
				</g>
				<g>
					<path class="st3" d="M2442.6,2089.43c9.02-105.78,93.29-190.03,199.06-199.04c-106.33-9.05-190.9-94.14-199.18-200.68
						c-9.92,106.91-96.76,191.47-204.67,197.83l-1.9,1.89l0.42,0.41C2345.47,1895.56,2433.38,1981.27,2442.6,2089.43z"/>
				</g>
			</g>
			<g>
				<path class="st3" d="M1679.32,1378.76c6.83-80.19,70.71-144.05,150.89-150.88c-80.6-6.86-144.7-71.36-150.99-152.12
					c-7.52,81.04-73.35,145.14-155.15,149.96l-1.44,1.43l0.32,0.32C1605.68,1231.79,1672.32,1296.76,1679.32,1378.76z"/>
			</g>
			<g>
				<path class="st3" d="M2009.5,1238.8c4.7-55.09,48.59-98.98,103.68-103.67c-55.38-4.71-99.43-49.03-103.74-104.52
					c-5.17,55.68-50.4,99.73-106.6,103.04l-0.99,0.99l0.22,0.22C1958.91,1137.83,2004.7,1182.46,2009.5,1238.8z"/>
			</g>
		</g>
	</g>
</g>
</svg>
