<?xml version="1.0" encoding="utf-8"?>
<!-- Generator: Adobe Illustrator 24.0.2, SVG Export Plug-In . SVG Version: 6.00 Build 0)  -->
<svg version="1.1" id="Layer_1" xmlns="http://www.w3.org/2000/svg" xmlns:xlink="http://www.w3.org/1999/xlink" x="0px" y="0px"
	 viewBox="0 0 5000 5000" style="enable-background:new 0 0 5000 5000;" xml:space="preserve">
<style type="text/css">
	.st0{fill:#42B7B4;}
	.st1{fill:#F899AD;}
	.st2{fill:#F1F0F5;}
	.st3{fill:none;}
	.st4{fill:#8ED4F4;}
	.st5{fill:#EBEBED;}
	.st6{fill:#595853;}
	.st7{fill:#BCBCBC;}
	.st8{fill:#6D6D6D;}
	.st9{fill:#C9C9C9;}
	.st10{fill:#D2D6D6;}
	.st11{fill:#AFAFAF;}
	.st12{fill:#DD6883;}
</style>
<g>
	
		<ellipse transform="matrix(0.7071 -0.7071 0.7071 0.7071 -4492.7856 -440.4673)" class="st0" cx="-2778.08" cy="5203.04" rx="669.4" ry="669.41"/>
	<g>
		<path class="st1" d="M-2202.46,5329.13c-10.01-53.37-53.1-227.13-116.02-227.13h-233.16c-37.84,37-124.98,63.98-226.45,63.98
			c-101.47,0-188.61-26.98-226.45-63.98h-57.24h-179.43c-62.92,0-103.4,165.91-112.82,227.13c-9.42,61.22,23.28,113.87,86.2,113.87
			h179.43h163.54h69.12h110.3h460.47C-2222.03,5443-2192.45,5382.5-2202.46,5329.13z"/>
	</g>
	<g>
		
			<ellipse transform="matrix(0.7071 -0.7071 0.7071 0.7071 -2156.0173 -1406.1888)" class="st0" cx="-2775.43" cy="1899.45" rx="669.41" ry="669.41"/>
		<g>
			<g>
				<g>
					<g>
						<path class="st2" d="M-2875.19,1584.54c10.86-17.61,33.5-35.25,48.35-40.91c14.85-5.64,37.28-6.47,50.07-1.86
							c12.79,4.62,36.66,18.29,53.32,30.56l59.15,43.51l68.64,26.11c19.35,7.35,43.78,19.99,54.6,28.24
							c10.81,8.24,22.26,27.53,25.58,43.07c3.3,15.55,0.75,44.13-8.16,62.81c-15.75,33.05-45.59,82.72-94,116.85
							c0,0-34.37,23.93-63.04,76.56c-20.97,38.49-80.84,113.48-119.99,140.01c-17.13,11.62-40.38-5.07-35.93-25.28
							c15.65-70.81,86.99-231.75,53.13-249.64c-33.37-18.73-129.93,128.47-180.96,180c-14.57,14.7-41.21,4.2-40.73-16.48
							c1.07-47.28,31.6-138.24,52.58-176.74c28.67-52.62,30.15-94.48,30.15-94.48C-2919.97,1667.7-2894.41,1615.7-2875.19,1584.54z"
							/>
					</g>
				</g>
			</g>
			<g>
				<path class="st3" d="M-3069.64,1832.06c2.68-0.92,5.39-1.61,8.14-2.05C-3064.04,1829.77-3066.76,1830.49-3069.64,1832.06z"/>
				<path class="st1" d="M-2502.81,1874.26c-57.13-27.64-263.54,265.38-302.24,276.44c-38.7,11.06-75.56-25.8-64.5-57.13
					c11.06-31.33,20.27-86.62-14.74-105.05s-93.99,84.78-138.22,84.78c-44.23,0-18.43-105.05,0-149.28
					c18.43-44.23,5.53-88.46-38.7-93.99c-0.09-0.01-0.19-0.01-0.28-0.02c-2.75,0.44-5.46,1.13-8.14,2.05
					c-32.73,17.87-85.56,146.01-115.2,223.81c-5.52,23.62-9.53,44.69-11.94,60.32c-11.89,77.26,29.38,143.81,108.79,143.81h629.41
					c79.4,0,116.74-76.46,104.11-143.81c-2.93-15.6-8.09-39.38-15.29-66.67C-2409.11,1949.84-2467.96,1891.13-2502.81,1874.26z"/>
			</g>
		</g>
	</g>
	<g>
		
			<ellipse transform="matrix(0.7071 -0.7071 0.7071 0.7071 -1664.2355 -218.9225)" class="st0" cx="-1096.38" cy="1899.45" rx="669.41" ry="669.41"/>
		<g>
			<g>
				<path class="st1" d="M-715.15,2145.46C-729.55,2068.7-791.53,1819-882.03,1819h-433.76c-90.5,0-148.73,238.4-162.28,326.46
					c-13.55,88.05,33.49,163.54,123.99,163.54h520.26C-743.31,2309-700.76,2222.21-715.15,2145.46z"/>
				<g>
					<g>
						<g>
							<path class="st2" d="M-884.66,1706.56c-1.17-21.85-13.27-49.69-24.21-62.46c-10.94-12.76-31.35-24.88-45.56-27.06
								c-14.22-2.18-43.31-1.57-64.99,1.4l-76.96,10.48l-76.96-10.48c-21.69-2.97-50.77-3.58-65-1.4
								c-14.22,2.18-34.61,14.3-45.56,27.06c-10.93,12.77-23.03,40.61-24.21,62.46c-2.09,38.66,0.48,99.9,28.17,156.1
								c0,0,19.81,39.62,19.81,103.01c0,46.35,17.66,146.3,40.59,190.76c10.03,19.45,40.07,15.73,46.16-5.3
								c21.3-73.68,36.48-259.26,76.98-258.75c40.48-0.51,55.66,185.07,76.99,258.75c6.1,21.03,36.15,24.75,46.17,5.3
								c22.93-44.46,40.6-144.39,40.6-190.76c0-63.39,19.81-103.01,19.81-103.01C-885.14,1806.46-882.57,1745.23-884.66,1706.56z"/>
						</g>
					</g>
				</g>
				<g>
					<path class="st4" d="M-1263.06,1688.31c2.48-29.15,25.71-52.37,54.86-54.86c-29.31-2.49-52.61-25.94-54.9-55.31
						c-2.73,29.46-26.67,52.77-56.41,54.52l-0.52,0.52l0.11,0.11C-1289.83,1634.88-1265.6,1658.5-1263.06,1688.31z"/>
				</g>
				<g>
					<path class="st4" d="M-1104.24,1781.9c2.49-29.15,25.71-52.37,54.86-54.86c-29.3-2.49-52.61-25.94-54.89-55.31
						c-2.73,29.46-26.67,52.77-56.41,54.52l-0.52,0.52l0.12,0.11C-1131.01,1728.47-1106.78,1752.09-1104.24,1781.9z"/>
				</g>
			</g>
			<g>
				<path class="st4" d="M-1314.6,1586.04c1.88-22.1,19.49-39.7,41.59-41.58c-22.21-1.89-39.88-19.67-41.61-41.92
					c-2.07,22.33-20.21,40-42.76,41.33l-0.4,0.39l0.09,0.09C-1334.89,1545.54-1316.53,1563.44-1314.6,1586.04z"/>
			</g>
			<g>
				<path class="st4" d="M-1223.6,1547.47c1.3-15.18,13.39-27.28,28.58-28.57c-15.26-1.3-27.4-13.51-28.59-28.81
					c-1.42,15.35-13.89,27.48-29.38,28.4l-0.27,0.27l0.06,0.06C-1237.54,1519.64-1224.92,1531.94-1223.6,1547.47z"/>
			</g>
		</g>
	</g>
	
		<ellipse transform="matrix(0.7071 -0.7071 0.7071 0.7071 -2652.4519 -2604.6885)" class="st0" cx="-4470.36" cy="1899.45" rx="669.41" ry="669.41"/>
	<path class="st1" d="M-3887.67,2059.97c-12.63-67.35-67.01-286.97-146.41-286.97h-293.63h-63.31h-163.13h-130.5h-226.44
		c-79.4,0-130.49,209.71-142.38,286.97c-11.89,77.26,29.38,144.03,108.79,144.03h226.44h206.39h87.24h139.2h293.63
		C-3912.37,2204-3875.03,2127.32-3887.67,2059.97z"/>
	<g>
		
			<ellipse transform="matrix(0.7071 -0.7071 0.7071 0.7071 -3820.447 -2120.8892)" class="st0" cx="-4470.36" cy="3551.24" rx="669.41" ry="669.41"/>
		<g>
			<path class="st1" d="M-4089.14,3734.46c-14.4-76.76-76.37-326.46-166.87-326.46h-433.76c-90.5,0-148.73,238.4-162.28,326.46
				c-13.55,88.05,33.49,163.54,123.99,163.54h520.26C-4117.3,3898-4074.74,3811.22-4089.14,3734.46z"/>
			<path class="st5" d="M-4258.64,3295.72c-1.17-21.85-13.27-49.69-24.21-62.46c-10.95-12.76-31.35-24.88-45.56-27.06
				c-14.22-2.18-43.31-1.57-64.99,1.4l-76.96,10.48l-76.96-10.48c-21.69-2.97-50.78-3.58-65-1.4c-14.22,2.18-34.61,14.3-45.56,27.06
				c-4.32,5.05-8.83,12.46-12.77,20.93c6.15,2.71,12.08,6.5,11.45,10.91c-1.27,8.92,2.55,28.05,2.55,28.05s1.27,11.48-2.55,20.4
				s6.38,16.58,0,24.22c-6.38,7.65-17.85,12.75-19.13,17.85c-0.17,0.68-0.92,1.33-2.06,1.96c3.35,29.76,10.97,62.78,26.47,94.23
				c0,0,19.81,39.62,19.81,103.01c0,46.35,17.66,146.3,40.59,190.76c10.03,19.46,40.07,15.73,46.16-5.3
				c21.3-73.68,36.48-259.27,76.98-258.75c40.47-0.51,55.66,185.07,76.99,258.75c6.1,21.03,36.15,24.76,46.17,5.3
				c22.93-44.46,40.6-144.38,40.6-190.76c0-63.39,19.81-103.01,19.81-103.01C-4259.13,3395.62-4256.55,3334.38-4258.64,3295.72z"/>
			<g>
				<path class="st6" d="M-4659.2,3313.55c3.82-8.92,2.55-20.4,2.55-20.4s-3.83-19.13-2.55-28.05c0.63-4.42-5.3-8.21-11.45-10.91
					c-0.34,0.74-0.68,1.49-1.02,2.24c3.85,1.61,9.3,4.42,9.3,7.53c0,4.8,0.34,14.75,1.37,20.93c1.03,6.18,2.06,20.24-2.4,30.19
					c-4.46,9.95,6.86,13.04,3.77,18.19c-3.09,5.15-18.18,13.38-19.21,17.16c-0.29,1.08-1.07,2.01-2.02,2.8
					c0.15,1.45,0.3,2.9,0.46,4.37c1.14-0.63,1.89-1.28,2.06-1.96c1.27-5.1,12.75-10.2,19.13-17.85
					C-4652.82,3330.13-4663.02,3322.48-4659.2,3313.55z"/>
			</g>
			<path class="st6" d="M-4558.87,3248.98c0,0,8.63-9.52,72.62,5.11c29.32,6.71,49.09-19.43,73.64-12.27
				c24.55,7.16,10.23,31.71,2.04,34.77C-4418.75,3279.67-4606.94,3308.3-4558.87,3248.98z"/>
			<path class="st6" d="M-4386.11,3309.3c1.15-12.64,14.93-9.95,22.4-9.95c7.47,0,22.4,12.44,19.91,19.91
				c-2.49,7.46-22.4,14.93-22.4,14.93S-4388.59,3336.67-4386.11,3309.3z"/>
		</g>
	</g>
	<g>
		
			<ellipse transform="matrix(0.7071 -0.7071 0.7071 0.7071 -3333.262 -918.558)" class="st0" cx="-2775.43" cy="3564.32" rx="669.41" ry="669.41"/>
		<g>
			<g>
				<path class="st1" d="M-2239.74,3792.17c-11.25-60-59.7-255.17-130.44-255.17h-261.6h-56.4h-145.34h-116.26h-201.74
					c-70.74,0-116.26,186.34-126.85,255.17c-10.59,68.83,26.18,127.83,96.92,127.83h201.74h183.88h77.72h124.02h261.6
					C-2261.75,3920-2228.48,3852.18-2239.74,3792.17z"/>
				<g>
					<g>
						<g>
							<g>
								<path class="st2" d="M-2726.95,3449.02c0.92-17.08,10.38-38.84,18.93-48.82c8.55-9.97,24.51-19.45,35.62-21.15
									c11.11-1.71,33.85-1.22,50.8,1.09l60.16,8.19l60.16-8.19c16.95-2.32,39.69-2.8,50.81-1.09
									c11.11,1.71,27.05,11.18,35.61,21.15c8.55,9.98,18,31.75,18.92,48.82c1.63,30.22-0.38,78.09-22.02,122.02
									c0,0-15.49,30.97-15.49,80.52c0,36.23-13.81,114.36-31.73,149.12c-7.84,15.21-31.32,12.29-36.08-4.14
									c-16.65-57.6-28.52-202.67-60.17-202.27c-31.64-0.4-43.51,144.67-60.18,202.27c-4.77,16.44-28.26,19.35-36.09,4.14
									c-17.92-34.75-31.74-112.87-31.74-149.12c0-49.55-15.49-80.52-15.49-80.52
									C-2726.57,3527.11-2728.58,3479.24-2726.95,3449.02z"/>
							</g>
						</g>
					</g>
				</g>
				<g>
					<g>
						<g>
							<g>
								<path class="st2" d="M-2825.36,3449.02c-0.92-17.08-10.38-38.84-18.92-48.82c-8.55-9.97-24.51-19.45-35.62-21.15
									c-11.11-1.71-33.85-1.22-50.8,1.09l-60.15,8.19l-60.16-8.19c-16.95-2.32-39.69-2.8-50.81-1.09
									c-11.11,1.71-27.06,11.18-35.61,21.15c-8.55,9.98-18,31.75-18.92,48.82c-1.63,30.22,0.38,78.09,22.02,122.02
									c0,0,15.49,30.97,15.49,80.52c0,36.23,13.81,114.36,31.73,149.12c7.84,15.21,31.33,12.29,36.08-4.14
									c16.65-57.6,28.52-202.67,60.17-202.27c31.64-0.4,43.51,144.67,60.18,202.27c4.77,16.44,28.26,19.35,36.09,4.14
									c17.92-34.75,31.74-112.87,31.74-149.12c0-49.55,15.49-80.52,15.49-80.52C-2825.74,3527.11-2823.73,3479.24-2825.36,3449.02
									z"/>
							</g>
						</g>
					</g>
				</g>
			</g>
			<path class="st4" d="M-3332.61,3326.4c2.86,3.47,5.56,7.02,8.21,10.6c2.65,3.58,5.22,7.19,7.76,10.82
				c1.28,1.81,2.5,3.65,3.76,5.47c1.26,1.82,2.48,3.66,3.69,5.51c2.46,3.67,4.84,7.38,7.21,11.1c2.4,3.7,4.66,7.48,7,11.21
				c1.17,1.87,2.27,3.77,3.41,5.65l3.39,5.66l6.61,11.41c1.1,1.9,2.15,3.83,3.23,5.74l3.21,5.75l-16.09-4.1
				c2.54-1.92,5.15-3.75,7.72-5.63l7.75-5.58c5.2-3.67,10.42-7.32,15.68-10.9c2.63-1.8,5.26-3.58,7.91-5.34
				c2.64-1.78,5.31-3.51,7.97-5.25l8-5.22l8.08-5.09l10.31-6.49l5.14,10.05c0.93,1.81,1.89,3.61,2.79,5.44l2.72,5.48l2.72,5.48
				l2.64,5.52l2.64,5.52l2.56,5.57l2.55,5.57l2.48,5.62c1.68,3.73,3.24,7.52,4.85,11.29l2.33,5.7c0.78,1.9,1.54,3.81,2.28,5.73
				c0.74,1.92,1.51,3.83,2.22,5.76c0.72,1.93,1.46,3.85,2.14,5.81c1.41,3.88,2.75,7.8,3.97,11.79c-2.8-3.09-5.48-6.25-8.1-9.45
				c-1.33-1.59-2.6-3.21-3.89-4.81c-1.3-1.6-2.55-3.24-3.81-4.86c-1.27-1.62-2.52-3.25-3.75-4.89l-3.7-4.92
				c-2.41-3.31-4.87-6.6-7.22-9.95l-3.55-5l-3.48-5.05l-3.47-5.05l-3.39-5.1l-3.39-5.1l-3.31-5.14l-3.31-5.14
				c-1.11-1.71-2.16-3.46-3.24-5.18l15.45,3.56l-7.66,5.72l-7.74,5.59c-2.58,1.86-5.16,3.74-7.77,5.56
				c-2.6,1.84-5.21,3.66-7.83,5.47c-5.23,3.63-10.51,7.19-15.8,10.72l-7.99,5.23c-2.67,1.73-5.32,3.51-8.02,5.18l-11.06,6.86
				l-5.03-10.96l-2.75-5.99c-0.91-2-1.85-3.98-2.73-6l-5.3-12.07l-2.56-6.08c-0.85-2.03-1.73-4.04-2.55-6.09
				c-1.63-4.09-3.34-8.14-4.91-12.27c-1.6-4.11-3.19-8.22-4.7-12.38c-0.77-2.07-1.53-4.14-2.26-6.23c-0.73-2.09-1.49-4.16-2.2-6.27
				c-1.43-4.19-2.83-8.41-4.15-12.66C-3330.23,3335.03-3331.5,3330.75-3332.61,3326.4z"/>
			<path class="st4" d="M-2218.25,3326.4c-2.85,3.47-5.55,7.02-8.21,10.6c-2.65,3.58-5.22,7.19-7.76,10.82
				c-1.28,1.81-2.5,3.65-3.76,5.47c-1.26,1.82-2.48,3.66-3.7,5.51c-2.46,3.67-4.84,7.38-7.21,11.1c-2.4,3.7-4.66,7.48-7,11.21
				c-1.17,1.87-2.27,3.77-3.41,5.65l-3.39,5.66l-6.61,11.41c-1.1,1.9-2.15,3.83-3.22,5.74l-3.21,5.75l16.08-4.1
				c-2.54-1.92-5.14-3.75-7.72-5.63l-7.75-5.58c-5.2-3.67-10.42-7.32-15.68-10.9c-2.63-1.8-5.26-3.58-7.92-5.34
				c-2.64-1.78-5.31-3.51-7.98-5.25l-8-5.22l-8.09-5.09l-10.31-6.49l-5.14,10.05c-0.93,1.81-1.89,3.61-2.79,5.44l-2.72,5.48
				l-2.72,5.48l-2.64,5.52l-2.64,5.52l-2.56,5.57l-2.55,5.57l-2.48,5.62c-1.68,3.73-3.24,7.52-4.85,11.29l-2.33,5.7
				c-0.78,1.9-1.54,3.81-2.28,5.73c-0.74,1.92-1.51,3.83-2.22,5.76c-0.72,1.93-1.46,3.85-2.14,5.81c-1.41,3.88-2.75,7.8-3.97,11.79
				c2.8-3.09,5.48-6.25,8.1-9.45c1.33-1.59,2.6-3.21,3.89-4.81c1.3-1.6,2.55-3.24,3.81-4.86c1.27-1.62,2.52-3.25,3.75-4.89l3.7-4.92
				c2.41-3.31,4.87-6.6,7.21-9.95l3.55-5l3.48-5.05l3.47-5.05l3.39-5.1l3.39-5.1l3.31-5.14l3.31-5.14c1.11-1.71,2.16-3.46,3.24-5.18
				l-15.45,3.56l7.66,5.72l7.74,5.59c2.58,1.86,5.15,3.74,7.77,5.56c2.6,1.84,5.21,3.66,7.83,5.47c5.23,3.63,10.51,7.19,15.8,10.72
				l7.99,5.23c2.68,1.73,5.32,3.51,8.02,5.18l11.06,6.86l5.03-10.96l2.75-5.99c0.91-2,1.85-3.98,2.73-6l5.3-12.07l2.57-6.08
				c0.85-2.03,1.73-4.04,2.55-6.09c1.63-4.09,3.34-8.14,4.91-12.27c1.6-4.11,3.19-8.22,4.7-12.38c0.77-2.07,1.53-4.14,2.26-6.23
				c0.73-2.09,1.49-4.16,2.2-6.27c1.43-4.19,2.82-8.41,4.15-12.66C-2220.63,3335.03-2219.36,3330.75-2218.25,3326.4z"/>
			<path class="st4" d="M-2769.23,3417.42c-0.44-4.47-1.04-8.89-1.69-13.29c-0.66-4.4-1.39-8.78-2.17-13.14
				c-0.38-2.19-0.81-4.35-1.21-6.53c-0.4-2.18-0.83-4.34-1.28-6.51c-0.86-4.34-1.79-8.65-2.75-12.95
				c-0.92-4.32-1.99-8.58-2.98-12.87c-0.49-2.15-1.06-4.27-1.58-6.41l-1.61-6.4l-3.39-12.74c-0.56-2.12-1.19-4.23-1.78-6.34
				l-1.8-6.34l-8.47,14.28c3.16-0.44,6.29-0.99,9.44-1.48l9.43-1.53c6.27-1.08,12.54-2.19,18.79-3.38c3.13-0.59,6.25-1.19,9.38-1.82
				c3.12-0.6,6.24-1.27,9.35-1.93l9.35-1.97l9.32-2.12l11.88-2.7l-3.47-10.74c-0.63-1.94-1.22-3.89-1.87-5.82l-1.95-5.8l-1.95-5.8
				l-2.04-5.77l-2.04-5.77l-2.13-5.75l-2.13-5.75l-2.22-5.72c-1.45-3.82-3.03-7.61-4.56-11.41l-2.38-5.68
				c-0.79-1.89-1.6-3.78-2.44-5.66c-0.83-1.88-1.64-3.77-2.51-5.64c-0.86-1.87-1.7-3.76-2.59-5.62c-1.75-3.74-3.58-7.46-5.54-11.14
				c0.21,4.17,0.54,8.3,0.96,12.41c0.18,2.06,0.43,4.1,0.65,6.16c0.21,2.05,0.49,4.09,0.74,6.13c0.25,2.04,0.52,4.08,0.81,6.11
				l0.86,6.1c0.64,4.05,1.22,8.11,1.93,12.14l1.03,6.05l1.11,6.03l1.12,6.03l1.21,6l1.21,6l1.3,5.98l1.3,5.98
				c0.43,1.99,0.92,3.97,1.37,5.96l8.41-13.44l-9.46,1.37l-9.43,1.52c-3.14,0.51-6.29,1-9.42,1.56c-3.14,0.53-6.27,1.09-9.4,1.67
				c-6.26,1.13-12.51,2.35-18.76,3.59l-9.35,1.96c-3.11,0.67-6.24,1.28-9.34,2.01l-12.67,2.97l4.19,11.3l2.29,6.18
				c0.77,2.05,1.51,4.12,2.31,6.17l4.79,12.28l2.48,6.11c0.84,2.03,1.64,4.08,2.51,6.1c1.74,4.05,3.39,8.12,5.2,12.15
				c1.77,4.04,3.56,8.07,5.43,12.07c0.92,2.01,1.84,4.01,2.81,6.01c0.96,1.99,1.89,4,2.88,5.98c1.95,3.98,3.95,7.94,6.02,11.88
				C-2773.65,3409.64-2771.52,3413.56-2769.23,3417.42z"/>
		</g>
	</g>
	
		<ellipse transform="matrix(0.7071 -0.7071 0.7071 0.7071 -2841.4805 268.7073)" class="st0" cx="-1096.38" cy="3564.32" rx="669.41" ry="669.41"/>
	<g>
		<path class="st1" d="M-500.03,3693.67c-9.31-49.64-49.39-211.67-107.91-211.67h-550.19h-46.66h-120.23h-96.18h-166.89
			c-58.53,0-96.18,154.73-104.94,211.67s21.66,106.33,80.18,106.33h166.89h152.11h64.29h102.6h550.19
			C-518.24,3800-490.72,3743.31-500.03,3693.67z"/>
		<g>
			<g>
				<g>
					<g>
						<path class="st2" d="M-1237.32,3409.69c0.76-14.13,8.58-32.13,15.65-40.39c7.08-8.25,20.27-16.09,29.46-17.5
							c9.19-1.41,28-1.01,42.03,0.91l49.76,6.78l49.76-6.78c14.03-1.92,32.84-2.32,42.04-0.91c9.2,1.41,22.38,9.25,29.46,17.5
							c7.07,8.26,14.89,26.26,15.65,40.39c1.35,25-0.31,64.6-18.22,100.94c0,0-12.81,25.62-12.81,66.61
							c0,29.98-11.42,94.61-26.25,123.36c-6.49,12.58-25.91,10.17-29.85-3.43c-13.77-47.65-23.59-167.65-49.78-167.32
							c-26.17-0.33-35.99,119.68-49.78,167.32c-3.94,13.6-23.38,16.01-29.86,3.43c-14.83-28.75-26.25-93.37-26.25-123.36
							c0-40.99-12.81-66.61-12.81-66.61C-1237.01,3474.29-1238.68,3434.69-1237.32,3409.69z"/>
					</g>
				</g>
			</g>
		</g>
		<g>
			<g>
				<g>
					<g>
						<path class="st2" d="M-1300.85,3409.69c-0.76-14.13-8.58-32.13-15.65-40.39c-7.08-8.25-20.27-16.09-29.46-17.5
							c-9.19-1.41-28-1.01-42.03,0.91l-49.76,6.78l-49.77-6.78c-14.02-1.92-32.84-2.32-42.03-0.91c-9.19,1.41-22.38,9.25-29.46,17.5
							c-7.07,8.26-14.89,26.26-15.65,40.39c-1.35,25,0.31,64.6,18.22,100.94c0,0,12.81,25.62,12.81,66.61
							c0,29.98,11.42,94.61,26.25,123.36c6.48,12.58,25.91,10.17,29.85-3.43c13.77-47.65,23.59-167.65,49.78-167.32
							c26.18-0.33,35.99,119.68,49.79,167.32c3.94,13.6,23.38,16.01,29.85,3.43c14.83-28.75,26.25-93.37,26.25-123.36
							c0-40.99,12.81-66.61,12.81-66.61C-1301.16,3474.29-1299.49,3434.69-1300.85,3409.69z"/>
					</g>
				</g>
			</g>
		</g>
		<g>
			<g>
				<g>
					<g>
						<path class="st2" d="M-893.07,3409.69c0.76-14.13,8.58-32.13,15.66-40.39c7.08-8.25,20.27-16.09,29.46-17.5
							c9.19-1.41,28-1.01,42.03,0.91l49.76,6.78l49.77-6.78c14.02-1.92,32.83-2.32,42.03-0.91c9.19,1.41,22.38,9.25,29.46,17.5
							c7.07,8.26,14.89,26.26,15.65,40.39c1.35,25-0.31,64.6-18.21,100.94c0,0-12.81,25.62-12.81,66.61
							c0,29.98-11.42,94.61-26.25,123.36c-6.49,12.58-25.92,10.17-29.85-3.43c-13.77-47.65-23.59-167.65-49.78-167.32
							c-26.17-0.33-36,119.68-49.79,167.32c-3.94,13.6-23.38,16.01-29.86,3.43c-14.83-28.75-26.25-93.37-26.25-123.36
							c0-40.99-12.81-66.61-12.81-66.61C-892.76,3474.29-894.42,3434.69-893.07,3409.69z"/>
					</g>
				</g>
			</g>
		</g>
		<g>
			<path class="st7" d="M-1386,3474.41c0,10.44-7.13,18.59-17.35,18.59h-70.21c-10.22,0-19.44-8.15-19.44-18.59v-69.44
				c0-10.43,9.22-18.97,19.44-18.97h70.21c10.22,0,17.35,8.54,17.35,18.97V3474.41z"/>
			<g>
				<path class="st8" d="M-1455.33,3405.4c0,7.02-5.69,12.72-12.72,12.72s-12.72-5.69-12.72-12.72c0-7.03,5.69-12.72,12.72-12.72
					S-1455.33,3398.38-1455.33,3405.4z"/>
				<path class="st8" d="M-1393.89,3405.4c0,7.02-5.69,12.72-12.72,12.72c-7.03,0-12.72-5.69-12.72-12.72
					c0-7.03,5.69-12.72,12.72-12.72C-1399.58,3392.68-1393.89,3398.38-1393.89,3405.4z"/>
				<path class="st8" d="M-1455.33,3474.18c0,7.02-5.69,12.72-12.72,12.72s-12.72-5.69-12.72-12.72c0-7.03,5.69-12.72,12.72-12.72
					S-1455.33,3467.15-1455.33,3474.18z"/>
				<path class="st8" d="M-1393.89,3474.18c0,7.02-5.69,12.72-12.72,12.72c-7.03,0-12.72-5.69-12.72-12.72
					c0-7.03,5.69-12.72,12.72-12.72C-1399.58,3461.46-1393.89,3467.15-1393.89,3474.18z"/>
			</g>
		</g>
		<g>
			<path class="st7" d="M-1049,3475.12c0,10.43-8.45,18.88-18.88,18.88h-70.24c-10.43,0-18.88-8.45-18.88-18.88v-70.24
				c0-10.43,8.45-18.88,18.88-18.88h70.24c10.43,0,18.88,8.45,18.88,18.88V3475.12z"/>
			<g>
				<path class="st8" d="M-1118.37,3405.4c0,7.02-5.7,12.72-12.72,12.72c-7.02,0-12.72-5.69-12.72-12.72
					c0-7.03,5.7-12.72,12.72-12.72C-1124.07,3392.68-1118.37,3398.38-1118.37,3405.4z"/>
				<path class="st8" d="M-1056.93,3405.4c0,7.02-5.7,12.72-12.72,12.72c-7.02,0-12.72-5.69-12.72-12.72
					c0-7.03,5.7-12.72,12.72-12.72C-1062.63,3392.68-1056.93,3398.38-1056.93,3405.4z"/>
				<path class="st8" d="M-1118.37,3474.18c0,7.02-5.7,12.72-12.72,12.72c-7.02,0-12.72-5.69-12.72-12.72
					c0-7.03,5.7-12.72,12.72-12.72C-1124.07,3461.46-1118.37,3467.15-1118.37,3474.18z"/>
				<path class="st8" d="M-1056.93,3474.18c0,7.02-5.7,12.72-12.72,12.72c-7.02,0-12.72-5.69-12.72-12.72
					c0-7.03,5.7-12.72,12.72-12.72C-1062.63,3461.46-1056.93,3467.15-1056.93,3474.18z"/>
			</g>
		</g>
		<g>
			<path class="st7" d="M-703,3475.23c0,10.43-8.59,18.77-19.01,18.77h-69.7c-10.42,0-19.29-8.34-19.29-18.77v-69.7
				c0-10.43,8.86-19.53,19.29-19.53h69.7c10.42,0,19.01,9.1,19.01,19.53V3475.23z"/>
			<g>
				<path class="st8" d="M-773.69,3405.4c0,7.02-5.69,12.72-12.72,12.72c-7.02,0-12.72-5.69-12.72-12.72
					c0-7.03,5.7-12.72,12.72-12.72C-779.38,3392.68-773.69,3398.38-773.69,3405.4z"/>
				<path class="st8" d="M-712.25,3405.4c0,7.02-5.69,12.72-12.72,12.72c-7.02,0-12.72-5.69-12.72-12.72
					c0-7.03,5.7-12.72,12.72-12.72C-717.94,3392.68-712.25,3398.38-712.25,3405.4z"/>
				<path class="st8" d="M-773.69,3474.18c0,7.02-5.69,12.72-12.72,12.72c-7.02,0-12.72-5.69-12.72-12.72
					c0-7.03,5.7-12.72,12.72-12.72C-779.38,3461.46-773.69,3467.15-773.69,3474.18z"/>
				<path class="st8" d="M-712.25,3474.18c0,7.02-5.69,12.72-12.72,12.72c-7.02,0-12.72-5.69-12.72-12.72
					c0-7.03,5.7-12.72,12.72-12.72C-717.94,3461.46-712.25,3467.15-712.25,3474.18z"/>
			</g>
		</g>
		<path class="st8" d="M-658.4,3439.5c0,2.79-2.38,4.5-5.32,4.5h-873.34c-2.93,0-5.31-1.72-5.31-4.5l0,0c0-2.78,2.38-4.5,5.31-4.5
			h873.34C-660.78,3435-658.4,3436.71-658.4,3439.5L-658.4,3439.5z"/>
	</g>
	<g>
		<ellipse class="st0" cx="2453.98" cy="2500.32" rx="2454.02" ry="2456.68"/>
		<g>
			<path class="st1" d="M3851.54,3171.61c-52.78-281.71-279.98-1196.24-611.75-1196.24H1649.66
				c-331.78,0-545.24,873.09-594.9,1196.24c-49.67,323.14,122.76,598.37,454.54,598.37h1907.24
				C3748.31,3769.98,3904.31,3453.31,3851.54,3171.61z"/>
			<g>
				<path class="st9" d="M2456.31,2136.26v1478.91c14.66-10.03,429.8-253.66,478.57-381.77c49.8-130.82,144.13-987.27,144.13-987.27
					L2456.31,2136.26z"/>
				<path class="st10" d="M2454.91,2136.15l-0.53,0.03l-0.33-0.03l-623.8,109.97c0,0,93.88,856.44,143.68,987.27
					c49.8,130.82,479.94,382.13,479.94,382.13l0.13-0.11l0.92,0.11c0,0-2.27-0.15,1.4-0.36V2136.26L2454.91,2136.15z"/>
			</g>
			<g>
				<path class="st2" d="M3126.89,2135.41c101.47-206.24,110.9-430.97,103.24-572.86c-4.31-80.19-48.66-182.37-88.75-229.22
					c-40.13-46.82-114.94-91.29-167.03-99.3c-52.12-8.01-158.76-5.75-238.26,5.14l-282.12,38.47l-282.12-38.47
					c-79.51-10.89-186.14-13.15-238.3-5.14c-52.11,8.01-126.88,52.48-167,99.3c-40.08,46.86-84.42,149.03-88.74,229.22
					c-7.66,141.89,1.77,366.62,103.27,572.86c0,0,14.08,28.21,29.84,79.61h1286.13C3112.82,2163.62,3126.89,2135.41,3126.89,2135.41
					z"/>
			</g>
			<path class="st2" d="M3127.18,2231.93c0-14-11.33-25.34-25.31-25.34H1799.75c-13.98,0-25.31,11.35-25.31,25.34v0.7
				c0,14,11.33,25.34,25.31,25.34h1302.11c13.98,0,25.31-11.35,25.31-25.34V2231.93z"/>
			<path class="st11" d="M3100.94,2525.77c-1.78,13.25-298.17-15.78-662.01-64.84c-363.83-49.06-657.33-99.57-655.55-112.82
				c1.78-13.24,298.17,15.79,662,64.85C2809.22,2462.02,3102.72,2512.53,3100.94,2525.77z"/>
			<path class="st11" d="M3100.94,2729.99c-1.78,13.25-298.17-15.78-662.01-64.83c-363.83-49.06-657.33-99.57-655.55-112.81
				c1.78-13.25,298.17,15.78,662,64.84C2809.22,2666.24,3102.72,2716.74,3100.94,2729.99z"/>
			<path class="st11" d="M3068.24,2929.81c-1.72,12.82-283.43-14.58-629.2-61.2c-345.77-46.62-624.68-94.81-622.96-107.63
				c1.72-12.83,283.43,14.58,629.2,61.2C2791.06,2868.79,3069.97,2916.98,3068.24,2929.81z"/>
			<path class="st11" d="M3046.46,3131.09c-1.55,11.48-273.35-15.7-607.1-60.71c-333.75-45-603.05-90.78-601.51-102.26
				c1.55-11.48,273.35,15.7,607.1,60.7C2778.7,3073.83,3048.01,3119.61,3046.46,3131.09z"/>
			<path class="st11" d="M2954.99,3322.98c-1.21,9.01-231.8-14.65-515.02-52.85c-283.23-38.18-511.85-76.44-510.64-85.44
				c1.21-9.02,231.8,14.64,515.02,52.83C2727.58,3275.71,2956.2,3313.97,2954.99,3322.98z"/>
		</g>
	</g>
	<g>
		<g>
			<g>
				<g>
					<g>
						<path class="st2" d="M-2925.66,5025c-0.82-15.19-9.23-34.55-16.83-43.42c-7.61-8.87-21.8-17.3-31.68-18.81
							c-9.88-1.52-30.11-1.09-45.18,0.97l-53.5,7.29l-53.51-7.29c-15.08-2.06-35.3-2.49-45.19-0.97
							c-9.89,1.51-24.06,9.94-31.67,18.81c-7.6,8.88-16.01,28.23-16.83,43.42c-1.46,26.88,0.33,69.46,19.58,108.52
							c0,0,13.77,27.55,13.77,71.62c0,32.23,12.28,101.72,28.22,132.63c6.97,13.53,27.86,10.93,32.09-3.68
							c14.81-51.23,25.36-180.25,53.52-179.89c28.14-0.36,38.7,128.67,53.53,179.89c4.24,14.62,25.13,17.21,32.1,3.68
							c15.94-30.91,28.23-100.38,28.23-132.63c0-44.07,13.77-71.62,13.77-71.62C-2926,5094.46-2924.21,5051.88-2925.66,5025z"/>
					</g>
				</g>
			</g>
		</g>
		<g>
			<g>
				<g>
					<g>
						<path class="st2" d="M-2630.5,5025c0.82-15.19,9.23-34.55,16.83-43.42c7.61-8.87,21.8-17.3,31.68-18.81
							c9.88-1.52,30.11-1.09,45.18,0.97l53.5,7.29l53.51-7.29c15.08-2.06,35.3-2.49,45.19-0.97c9.88,1.51,24.06,9.94,31.67,18.81
							c7.6,8.88,16.01,28.23,16.83,43.42c1.45,26.88-0.34,69.46-19.58,108.52c0,0-13.77,27.55-13.77,71.62
							c0,32.23-12.28,101.72-28.22,132.63c-6.97,13.53-27.86,10.93-32.09-3.68c-14.81-51.23-25.36-180.25-53.52-179.89
							c-28.14-0.36-38.7,128.67-53.52,179.89c-4.24,14.62-25.14,17.21-32.1,3.68c-15.94-30.91-28.23-100.38-28.23-132.63
							c0-44.07-13.77-71.62-13.77-71.62C-2630.17,5094.46-2631.96,5051.88-2630.5,5025z"/>
					</g>
				</g>
			</g>
		</g>
		<g>
			<path class="st2" d="M-2650.16,5133.08c19.05-38.95,20.82-81.3,19.37-108.08c-0.82-15.19-9.23-34.55-16.83-43.42
				c-7.61-8.87-21.79-17.3-31.67-18.81c-9.89-1.52-30.11-1.09-45.19,0.97l-53.5,7.29l-53.5-7.29c-15.08-2.06-35.3-2.49-45.19-0.97
				c-9.88,1.51-24.07,9.94-31.68,18.81c-7.6,8.88-16.01,28.23-16.83,43.42c-1.4,25.9,0.22,66.35,17.54,104.21
				C-2877.66,5139.8-2774.43,5169.78-2650.16,5133.08z"/>
		</g>
	</g>
	<path class="st12" d="M-4905.44,1768.16c0,0-27.31,108.36-21.14,176.2c6.17,67.84-1.76,91.62,29.07,119.82
		c30.83,28.19,18.5,76.65,56.38,96.91s81.05-17.62,110.13-29.95c29.07-12.33,7.93,19.38,63.43,37s77.53,19.38,104.84-9.69
		c27.31-29.07,48.46-41.41,52.86-99.55c4.4-58.15-7.05-131.27-8.81-186.77s-7.93-95.15-44.93-102.2
		C-4600.61,1762.88-4905.44,1768.16-4905.44,1768.16z"/>
	<g>
		<g>
			<g>
				<path class="st2" d="M-4531.98,1735.99c-1.03-19.17-11.64-43.6-21.24-54.8c-9.6-11.19-27.51-21.83-39.98-23.74
					c-12.47-1.92-38-1.37-57.02,1.23l-67.52,9.2l-67.52-9.2c-19.03-2.6-44.55-3.14-57.03-1.23c-12.47,1.91-30.37,12.55-39.97,23.74
					c-9.59,11.2-20.21,35.63-21.24,54.8c-1.83,33.92,0.42,87.65,24.72,136.96c0,0,17.38,34.76,17.38,90.38
					c0,40.67,15.5,128.37,35.62,167.37c8.8,17.07,35.16,13.8,40.5-4.65c18.69-64.65,32.01-227.48,67.54-227.03
					c35.51-0.45,48.84,162.38,67.55,227.03c5.35,18.45,31.72,21.72,40.51,4.65c20.12-39.01,35.62-126.68,35.62-167.37
					c0-55.62,17.38-90.38,17.38-90.38C-4532.41,1823.64-4530.15,1769.91-4531.98,1735.99z"/>
			</g>
		</g>
	</g>
	<path class="st12" d="M-4432.63,1774.56c0,0-27.31,108.37-21.14,176.2c6.17,67.84-1.76,91.62,29.07,119.82
		c30.83,28.19,18.5,76.65,56.38,96.91c37.88,20.26,81.05-17.62,110.13-29.95c29.07-12.33,7.93,19.38,63.43,37
		s77.53,19.38,104.84-9.69c27.31-29.07,48.46-41.41,52.86-99.55c4.4-58.15-7.05-131.27-8.81-186.77
		c-1.76-55.5-7.93-95.15-44.93-102.2C-4127.8,1769.27-4432.63,1774.56-4432.63,1774.56z"/>
	<g>
		<g>
			<g>
				<path class="st2" d="M-4434.52,1674.99c1.03-19.17,11.65-43.6,21.24-54.8c9.6-11.19,27.51-21.83,39.98-23.74
					c12.47-1.92,38-1.37,57.02,1.23l67.52,9.2l67.52-9.2c19.03-2.6,44.55-3.14,57.03-1.23c12.47,1.91,30.37,12.55,39.97,23.74
					c9.59,11.2,20.21,35.63,21.24,54.8c1.83,33.92-0.42,87.65-24.72,136.96c0,0-17.38,34.76-17.38,90.38
					c0,40.67-15.5,128.37-35.62,167.37c-8.8,17.07-35.16,13.8-40.5-4.65c-18.69-64.65-32.01-227.48-67.54-227.03
					c-35.51-0.45-48.84,162.38-67.55,227.03c-5.35,18.45-31.72,21.72-40.51,4.65c-20.12-39.01-35.62-126.68-35.62-167.37
					c0-55.62-17.38-90.38-17.38-90.38C-4434.09,1762.64-4436.35,1708.91-4434.52,1674.99z"/>
			</g>
		</g>
	</g>
</g>
</svg>
