<?xml version="1.0" encoding="utf-8"?>
<!-- Generator: Adobe Illustrator 24.0.2, SVG Export Plug-In . SVG Version: 6.00 Build 0)  -->
<svg version="1.1" id="Layer_2" xmlns="http://www.w3.org/2000/svg" xmlns:xlink="http://www.w3.org/1999/xlink" x="0px" y="0px"
	 viewBox="0 0 3400 2000" style="enable-background:new 0 0 3400 2000;" xml:space="preserve">
<style type="text/css">
	.st0{fill:#755946;}
	.st1{fill:#ED7D77;}
	.st2{fill:#FFFFFF;}
	.st3{fill:#DBDBDB;}
	.st4{fill:#EF615B;}
</style>
<g>
	<path class="st0" d="M3136.35,543.02c-170.39-97.98-377.49-165.06-568.83-210.83c-305.13-73-610.64-77.7-922.44-77.7
		c-117.39,0-230.97,16.89-345.77,22.24c-50.17,2.34-125.34-19.89-183.71-19.89l12.96-2.36c-121.58-8.41-265.03,56.65-382.85,82.43
		c-102.17,22.36-211.81,47.59-311.79,75.1c-147.56,40.6-396.22,165.17-312.93,354.87c56.95,129.72,147.47,236.29,236.57,346.41
		c179.86,222.3,417.32,388.36,700.04,444.04c420.87,82.88,847.15,78.5,1264.87-3.25c93.57-18.31,196.3-34.13,276.88-87.99
		c55.29-36.96,93.48-94.55,141.89-139.7c65.1-60.71,135.83-111.39,188.7-184c85.58-117.56,194.69-216.3,277.19-335.73
		C3276.93,705.6,3237.29,601.06,3136.35,543.02z"/>
	<path class="st1" d="M1008.55,1182.91c174.38,127.49,328.2,174.77,746.25,174.77c302.29,0,562.37-78.19,736.83-204.62
		c-23.36-125.86-367.14-237.34-553.82-188.54c-204.33,53.41-448.2-13.05-575.76,16.04
		C1222.15,1012.48,1055.26,1068.73,1008.55,1182.91z"/>
	<path class="st2" d="M2980.12,458.26c0,0-223.74-80.13-247.29-86.01S1668.68,230.94,1668.68,230.94S628.08,366.36,604.52,372.25
		c-23.55,5.89-247.29,86.01-247.29,86.01s-41.22,267.26,0,302.59c41.22,35.33,101.42-12.67,535.8-47.1
		c482.81-38.27,775.65-32.38,775.65-32.38s292.84-5.88,775.65,32.38c434.38,34.43,494.58,82.43,535.8,47.1
		C3021.34,725.52,2980.12,458.26,2980.12,458.26z"/>
	<path class="st3" d="M2980.12,410.24c0,0-223.74-54.9-247.29-58.93c-23.55-4.04-1064.15-96.82-1064.15-96.82
		s-1040.6,92.78-1064.15,96.82c-23.55,4.03-247.29,58.93-247.29,58.93s-41.22,183.11,0,207.32c41.22,24.2,97.04,12.44,526.97-53.95
		c538.74-83.19,1095.32-83.19,1586.79,0c428.92,72.61,467.92,78.15,509.13,53.95C3021.34,593.35,2980.12,410.24,2980.12,410.24z"/>
	<path class="st4" d="M3266.6,639.82c-12.26-93.46-311.58-311.52-713.19-420.56c-401.61-109.03-876.68-109.03-876.68-109.03
		s-475.07,0-876.68,109.03C398.45,328.3,99.12,546.37,86.87,639.82s70.18,0,70.18,0c5.89-67.5,365.05-160.95,753.65-212.87
		c388.6-51.92,766.04-51.92,766.04-51.92s377.44,0,766.04,51.92c388.6,51.92,747.76,145.38,753.65,212.87
		C3196.43,639.82,3278.86,733.28,3266.6,639.82z"/>
	<path class="st2" d="M2998.44,972.36c0,0-246.95,124.35-484.65,156.14c-237.71,31.79-843.82,43.65-843.82,43.65
		s-602.6-6.21-802.11-30.78c-239.01-29.44-488.56-151.34-488.56-151.34l520.14,522.28l763.63,54.28l0,0.18l1.21-0.1l63.45,4.51
		l-0.3-9.65l760.01-61.78L2998.44,972.36z"/>
	<path class="st4" d="M3274.39,664.19c-14.69-106.55-77.96-24.37-77.96-24.37c10.85,139.37-493.06,670.53-774.88,760.52
		c-281.82,89.99-1220.66,85.8-1485.2,0.16c-281.4-91.1-790.8-621.35-779.31-760.68c0,0-59.16-107.43-70.18,21.18
		c-11.02,128.61,378.57,787.74,710.42,980.65c331.85,192.91,883.08,214.35,883.08,214.35l0.01-3.3
		c55.1-2.44,564.74-29.6,879.17-210.67C2892.25,1450.43,3292.02,792.05,3274.39,664.19z"/>
	<g>
		<path class="st0" d="M45.06,629.59c1.37-81.08,53.24-111.29,41.95-137.46c-18.11-41.96-59.33,14.26-68.33,38.16
			C2.63,572.93-24.13,752.65,45.79,748.26C69.81,738.82,43.44,725.93,45.06,629.59z"/>
	</g>
	<path class="st0" d="M3360.6,576.88c-4.86-30.27-12.7-54.89-27.79-74.44c-7.18-9.3-17.31-21.99-26.63-24.74l-0.13-0.68
		c-0.33,0.11-0.63,0.26-0.95,0.39c-5.05-1.06-9.8,0.99-13.67,8.32c-7.4,14.05-3.88,28.69,3.34,43.02c1.7,7.19,4.01,14.1,6.59,19.96
		c12.79,29.08,27.38,49.42,33.25,85.96c6.1,38.03,3.11,71.71,0.53,107.83c-0.75,10.47-3.79,32.7,4.04,39.7
		c7.97,7.13,15.45-10.13,18.26-19.82C3372.53,710.4,3369.9,634.86,3360.6,576.88z"/>
</g>
</svg>
