<?xml version="1.0" encoding="utf-8"?>
<!-- Generator: Adobe Illustrator 24.0.2, SVG Export Plug-In . SVG Version: 6.00 Build 0)  -->
<svg version="1.1" id="Layer_1" xmlns="http://www.w3.org/2000/svg" xmlns:xlink="http://www.w3.org/1999/xlink" x="0px" y="0px"
	 viewBox="0 0 5000 5000" style="enable-background:new 0 0 5000 5000;" xml:space="preserve">
<style type="text/css">
	.st0{fill:#42B7B4;}
	.st1{fill:#F899AD;}
	.st2{fill:#F1F0F5;}
	.st3{fill:none;}
	.st4{fill:#8ED4F4;}
	.st5{fill:#EBEBED;}
	.st6{fill:#595853;}
	.st7{fill:#BCBCBC;}
	.st8{fill:#6D6D6D;}
	.st9{fill:#C9C9C9;}
	.st10{fill:#D2D6D6;}
	.st11{fill:#AFAFAF;}
	.st12{fill:#DD6883;}
	.st13{fill:#AEAEAF;}
	.st14{fill:#CCCDCE;}
</style>
<g>
	
		<ellipse transform="matrix(0.7071 -0.7071 0.7071 0.7071 -4720.0933 -781.2374)" class="st0" cx="-3303.08" cy="5307.04" rx="669.4" ry="669.41"/>
	<g>
		<path class="st1" d="M-2727.46,5433.13c-10.01-53.37-53.1-227.13-116.02-227.13h-233.16c-37.84,37-124.98,63.98-226.45,63.98
			c-101.47,0-188.61-26.98-226.45-63.98h-57.24h-179.43c-62.92,0-103.4,165.91-112.82,227.13c-9.42,61.22,23.28,113.87,86.2,113.87
			h179.43h163.54h69.12h110.3h460.47C-2747.03,5547-2717.45,5486.5-2727.46,5433.13z"/>
	</g>
	<g>
		
			<ellipse transform="matrix(0.7071 -0.7071 0.7071 0.7071 -2383.3254 -1746.959)" class="st0" cx="-3300.43" cy="2003.45" rx="669.41" ry="669.41"/>
		<g>
			<g>
				<g>
					<g>
						<path class="st2" d="M-3400.19,1688.54c10.86-17.61,33.5-35.25,48.35-40.91c14.85-5.64,37.28-6.47,50.07-1.86
							c12.79,4.62,36.66,18.29,53.32,30.56l59.15,43.51l68.64,26.11c19.35,7.35,43.78,19.99,54.6,28.24
							c10.81,8.24,22.26,27.53,25.58,43.07c3.3,15.55,0.75,44.13-8.16,62.81c-15.75,33.05-45.59,82.72-94,116.85
							c0,0-34.37,23.93-63.04,76.56c-20.97,38.49-80.84,113.48-119.99,140.01c-17.13,11.62-40.38-5.07-35.93-25.28
							c15.65-70.81,86.99-231.75,53.13-249.64c-33.37-18.73-129.93,128.47-180.96,180c-14.57,14.7-41.21,4.2-40.73-16.48
							c1.07-47.28,31.6-138.24,52.58-176.74c28.67-52.62,30.15-94.48,30.15-94.48C-3444.97,1771.7-3419.41,1719.7-3400.19,1688.54z"
							/>
					</g>
				</g>
			</g>
			<g>
				<path class="st3" d="M-3594.64,1936.06c2.68-0.92,5.39-1.61,8.14-2.05C-3589.04,1933.77-3591.76,1934.49-3594.64,1936.06z"/>
				<path class="st1" d="M-3027.81,1978.26c-57.13-27.64-263.54,265.38-302.24,276.44c-38.7,11.06-75.56-25.8-64.5-57.13
					c11.06-31.33,20.27-86.62-14.74-105.05s-93.99,84.78-138.22,84.78c-44.23,0-18.43-105.05,0-149.28
					c18.43-44.23,5.53-88.46-38.7-93.99c-0.09-0.01-0.19-0.01-0.28-0.02c-2.75,0.44-5.46,1.13-8.14,2.05
					c-32.73,17.87-85.56,146.01-115.2,223.81c-5.52,23.62-9.53,44.69-11.94,60.32c-11.89,77.26,29.38,143.81,108.79,143.81h629.41
					c79.4,0,116.74-76.46,104.11-143.81c-2.93-15.6-8.09-39.38-15.29-66.67C-2934.11,2053.84-2992.96,1995.13-3027.81,1978.26z"/>
			</g>
		</g>
	</g>
	<g>
		
			<ellipse transform="matrix(0.7071 -0.7071 0.7071 0.7071 -1891.5436 -559.6927)" class="st0" cx="-1621.38" cy="2003.45" rx="669.41" ry="669.41"/>
		<g>
			<g>
				<path class="st1" d="M-1240.15,2249.46c-14.39-76.76-76.37-326.46-166.87-326.46h-433.76c-90.5,0-148.73,238.4-162.28,326.46
					c-13.55,88.05,33.49,163.54,123.99,163.54h520.26C-1268.31,2413-1225.76,2326.21-1240.15,2249.46z"/>
				<g>
					<g>
						<g>
							<path class="st2" d="M-1409.66,1810.56c-1.17-21.85-13.27-49.69-24.21-62.46c-10.94-12.76-31.35-24.88-45.56-27.06
								c-14.22-2.18-43.31-1.57-64.99,1.4l-76.96,10.48l-76.96-10.48c-21.69-2.97-50.77-3.58-65-1.4
								c-14.22,2.18-34.61,14.3-45.56,27.06c-10.93,12.77-23.03,40.61-24.21,62.46c-2.09,38.66,0.48,99.9,28.17,156.1
								c0,0,19.81,39.62,19.81,103.01c0,46.35,17.66,146.3,40.59,190.76c10.03,19.45,40.07,15.73,46.16-5.3
								c21.3-73.68,36.48-259.26,76.98-258.75c40.48-0.51,55.66,185.07,76.99,258.75c6.1,21.03,36.15,24.75,46.17,5.3
								c22.93-44.46,40.6-144.39,40.6-190.76c0-63.39,19.81-103.01,19.81-103.01C-1410.14,1910.46-1407.57,1849.23-1409.66,1810.56z
								"/>
						</g>
					</g>
				</g>
				<g>
					<path class="st4" d="M-1788.06,1792.31c2.48-29.15,25.71-52.37,54.86-54.86c-29.31-2.49-52.61-25.94-54.9-55.31
						c-2.73,29.46-26.67,52.77-56.41,54.52l-0.52,0.52l0.11,0.11C-1814.83,1738.88-1790.6,1762.5-1788.06,1792.31z"/>
				</g>
				<g>
					<path class="st4" d="M-1629.24,1885.9c2.49-29.15,25.71-52.37,54.86-54.86c-29.3-2.49-52.61-25.94-54.89-55.31
						c-2.73,29.46-26.67,52.77-56.41,54.52l-0.52,0.52l0.12,0.11C-1656.01,1832.47-1631.78,1856.09-1629.24,1885.9z"/>
				</g>
			</g>
			<g>
				<path class="st4" d="M-1839.6,1690.04c1.88-22.1,19.49-39.7,41.59-41.58c-22.21-1.89-39.88-19.67-41.61-41.92
					c-2.07,22.33-20.21,40-42.76,41.33l-0.4,0.39l0.09,0.09C-1859.89,1649.54-1841.53,1667.44-1839.6,1690.04z"/>
			</g>
			<g>
				<path class="st4" d="M-1748.6,1651.47c1.3-15.18,13.39-27.28,28.58-28.57c-15.26-1.3-27.4-13.51-28.59-28.81
					c-1.42,15.35-13.89,27.48-29.38,28.4l-0.27,0.27l0.06,0.06C-1762.54,1623.64-1749.92,1635.94-1748.6,1651.47z"/>
			</g>
		</g>
	</g>
	
		<ellipse transform="matrix(0.7071 -0.7071 0.7071 0.7071 -2879.76 -2945.4587)" class="st0" cx="-4995.36" cy="2003.45" rx="669.41" ry="669.41"/>
	<path class="st1" d="M-4412.67,2163.97c-12.63-67.35-67.01-286.97-146.41-286.97h-293.63h-63.31h-163.13h-130.5h-226.44
		c-79.4,0-130.49,209.71-142.38,286.97c-11.89,77.26,29.38,144.03,108.79,144.03h226.44h206.39h87.24h139.2h293.63
		C-4437.37,2308-4400.03,2231.32-4412.67,2163.97z"/>
	<g>
		
			<ellipse transform="matrix(0.7071 -0.7071 0.7071 0.7071 -4047.7551 -2461.6592)" class="st0" cx="-4995.36" cy="3655.24" rx="669.41" ry="669.41"/>
		<g>
			<path class="st1" d="M-4614.14,3838.46c-14.4-76.76-76.37-326.46-166.87-326.46h-433.76c-90.5,0-148.73,238.4-162.28,326.46
				c-13.55,88.05,33.49,163.54,123.99,163.54h520.26C-4642.3,4002-4599.74,3915.22-4614.14,3838.46z"/>
			<path class="st5" d="M-4783.64,3399.72c-1.17-21.85-13.27-49.69-24.21-62.46c-10.95-12.76-31.35-24.88-45.56-27.06
				c-14.22-2.18-43.31-1.57-64.99,1.4l-76.96,10.48l-76.96-10.48c-21.69-2.97-50.78-3.58-65-1.4c-14.22,2.18-34.61,14.3-45.56,27.06
				c-4.32,5.05-8.83,12.46-12.77,20.93c6.15,2.71,12.08,6.5,11.45,10.91c-1.27,8.92,2.55,28.05,2.55,28.05s1.27,11.48-2.55,20.4
				s6.38,16.58,0,24.22c-6.38,7.65-17.85,12.75-19.13,17.85c-0.17,0.68-0.92,1.33-2.06,1.96c3.35,29.76,10.97,62.78,26.47,94.23
				c0,0,19.81,39.62,19.81,103.01c0,46.35,17.66,146.3,40.59,190.76c10.03,19.46,40.07,15.73,46.16-5.3
				c21.3-73.68,36.48-259.27,76.98-258.75c40.47-0.51,55.66,185.07,76.99,258.75c6.1,21.03,36.15,24.76,46.17,5.3
				c22.93-44.46,40.6-144.38,40.6-190.76c0-63.39,19.81-103.01,19.81-103.01C-4784.13,3499.62-4781.55,3438.38-4783.64,3399.72z"/>
			<g>
				<path class="st6" d="M-5184.2,3417.55c3.82-8.92,2.55-20.4,2.55-20.4s-3.83-19.13-2.55-28.05c0.63-4.42-5.3-8.21-11.45-10.91
					c-0.34,0.74-0.68,1.49-1.02,2.24c3.85,1.61,9.3,4.42,9.3,7.53c0,4.8,0.34,14.75,1.37,20.93c1.03,6.18,2.06,20.24-2.4,30.19
					c-4.46,9.95,6.86,13.04,3.77,18.19c-3.09,5.15-18.18,13.38-19.21,17.16c-0.29,1.08-1.07,2.01-2.02,2.8
					c0.15,1.45,0.3,2.9,0.46,4.37c1.14-0.63,1.89-1.28,2.06-1.96c1.27-5.1,12.75-10.2,19.13-17.85
					C-5177.82,3434.13-5188.02,3426.48-5184.2,3417.55z"/>
			</g>
			<path class="st6" d="M-5083.87,3352.98c0,0,8.63-9.52,72.62,5.11c29.32,6.71,49.09-19.43,73.64-12.27
				c24.55,7.16,10.23,31.71,2.04,34.77C-4943.75,3383.67-5131.94,3412.3-5083.87,3352.98z"/>
			<path class="st6" d="M-4911.11,3413.3c1.15-12.64,14.93-9.95,22.4-9.95c7.47,0,22.4,12.44,19.91,19.91
				c-2.49,7.46-22.4,14.93-22.4,14.93S-4913.59,3440.67-4911.11,3413.3z"/>
		</g>
	</g>
	<g>
		
			<ellipse transform="matrix(0.7071 -0.7071 0.7071 0.7071 -3560.5698 -1259.3282)" class="st0" cx="-3300.43" cy="3668.32" rx="669.41" ry="669.41"/>
		<g>
			<g>
				<path class="st1" d="M-2764.74,3896.17c-11.25-60-59.7-255.17-130.44-255.17h-261.6h-56.4h-145.34h-116.26h-201.74
					c-70.74,0-116.26,186.34-126.85,255.17c-10.59,68.83,26.18,127.83,96.92,127.83h201.74h183.88h77.72h124.02h261.6
					C-2786.75,4024-2753.48,3956.18-2764.74,3896.17z"/>
				<g>
					<g>
						<g>
							<g>
								<path class="st2" d="M-3251.95,3553.02c0.92-17.08,10.38-38.84,18.93-48.82c8.55-9.97,24.51-19.45,35.62-21.15
									c11.11-1.71,33.85-1.22,50.8,1.09l60.16,8.19l60.16-8.19c16.95-2.32,39.69-2.8,50.81-1.09
									c11.11,1.71,27.05,11.18,35.61,21.15c8.55,9.98,18,31.75,18.92,48.82c1.63,30.22-0.38,78.09-22.02,122.02
									c0,0-15.49,30.97-15.49,80.52c0,36.23-13.81,114.36-31.73,149.12c-7.84,15.21-31.32,12.29-36.08-4.14
									c-16.65-57.6-28.52-202.67-60.17-202.27c-31.64-0.4-43.51,144.67-60.18,202.27c-4.77,16.44-28.26,19.35-36.09,4.14
									c-17.92-34.75-31.74-112.87-31.74-149.12c0-49.55-15.49-80.52-15.49-80.52
									C-3251.57,3631.11-3253.58,3583.24-3251.95,3553.02z"/>
							</g>
						</g>
					</g>
				</g>
				<g>
					<g>
						<g>
							<g>
								<path class="st2" d="M-3350.36,3553.02c-0.92-17.08-10.38-38.84-18.92-48.82c-8.55-9.97-24.51-19.45-35.62-21.15
									c-11.11-1.71-33.85-1.22-50.8,1.09l-60.15,8.19l-60.16-8.19c-16.95-2.32-39.69-2.8-50.81-1.09
									c-11.11,1.71-27.06,11.18-35.61,21.15c-8.55,9.98-18,31.75-18.92,48.82c-1.63,30.22,0.38,78.09,22.02,122.02
									c0,0,15.49,30.97,15.49,80.52c0,36.23,13.81,114.36,31.73,149.12c7.84,15.21,31.33,12.29,36.08-4.14
									c16.65-57.6,28.52-202.67,60.17-202.27c31.64-0.4,43.51,144.67,60.18,202.27c4.77,16.44,28.26,19.35,36.09,4.14
									c17.92-34.75,31.74-112.87,31.74-149.12c0-49.55,15.49-80.52,15.49-80.52C-3350.74,3631.11-3348.73,3583.24-3350.36,3553.02
									z"/>
							</g>
						</g>
					</g>
				</g>
			</g>
			<path class="st4" d="M-3857.61,3430.4c2.86,3.47,5.56,7.02,8.21,10.6c2.65,3.58,5.22,7.19,7.76,10.82
				c1.28,1.81,2.5,3.65,3.76,5.47c1.26,1.82,2.48,3.66,3.69,5.51c2.46,3.67,4.84,7.38,7.21,11.1c2.4,3.7,4.66,7.48,7,11.21
				c1.17,1.87,2.27,3.77,3.41,5.65l3.39,5.66l6.61,11.41c1.1,1.9,2.15,3.83,3.23,5.74l3.21,5.75l-16.09-4.1
				c2.54-1.92,5.15-3.75,7.72-5.63l7.75-5.58c5.2-3.67,10.42-7.32,15.68-10.9c2.63-1.8,5.26-3.58,7.91-5.34
				c2.64-1.78,5.31-3.51,7.97-5.25l8-5.22l8.08-5.09l10.31-6.49l5.14,10.05c0.93,1.81,1.89,3.61,2.79,5.44l2.72,5.48l2.72,5.48
				l2.64,5.52l2.64,5.52l2.56,5.57l2.55,5.57l2.48,5.62c1.68,3.73,3.24,7.52,4.85,11.29l2.33,5.7c0.78,1.9,1.54,3.81,2.28,5.73
				c0.74,1.92,1.51,3.83,2.22,5.76c0.72,1.93,1.46,3.85,2.14,5.81c1.41,3.88,2.75,7.8,3.97,11.79c-2.8-3.09-5.48-6.25-8.1-9.45
				c-1.33-1.59-2.6-3.21-3.89-4.81c-1.3-1.6-2.55-3.24-3.81-4.86c-1.27-1.62-2.52-3.25-3.75-4.89l-3.7-4.92
				c-2.41-3.31-4.87-6.6-7.22-9.95l-3.55-5l-3.48-5.05l-3.47-5.05l-3.39-5.1l-3.39-5.1l-3.31-5.14l-3.31-5.14
				c-1.11-1.71-2.16-3.46-3.24-5.18l15.45,3.56l-7.66,5.72l-7.74,5.59c-2.58,1.86-5.16,3.74-7.77,5.56
				c-2.6,1.84-5.21,3.66-7.83,5.47c-5.23,3.63-10.51,7.19-15.8,10.72l-7.99,5.23c-2.67,1.73-5.32,3.51-8.02,5.18l-11.06,6.86
				l-5.03-10.96l-2.75-5.99c-0.91-2-1.85-3.98-2.73-6l-5.3-12.07l-2.56-6.08c-0.85-2.03-1.73-4.04-2.55-6.09
				c-1.63-4.09-3.34-8.14-4.91-12.27c-1.6-4.11-3.19-8.22-4.7-12.38c-0.77-2.07-1.53-4.14-2.26-6.23c-0.73-2.09-1.49-4.16-2.2-6.27
				c-1.43-4.19-2.83-8.41-4.15-12.66C-3855.23,3439.03-3856.5,3434.75-3857.61,3430.4z"/>
			<path class="st4" d="M-2743.25,3430.4c-2.85,3.47-5.55,7.02-8.21,10.6c-2.65,3.58-5.22,7.19-7.76,10.82
				c-1.28,1.81-2.5,3.65-3.76,5.47c-1.26,1.82-2.48,3.66-3.7,5.51c-2.46,3.67-4.84,7.38-7.21,11.1c-2.4,3.7-4.66,7.48-7,11.21
				c-1.17,1.87-2.27,3.77-3.41,5.65l-3.39,5.66l-6.61,11.41c-1.1,1.9-2.15,3.83-3.22,5.74l-3.21,5.75l16.08-4.1
				c-2.54-1.92-5.14-3.75-7.72-5.63l-7.75-5.58c-5.2-3.67-10.42-7.32-15.68-10.9c-2.63-1.8-5.26-3.58-7.92-5.34
				c-2.64-1.78-5.31-3.51-7.98-5.25l-8-5.22l-8.09-5.09l-10.31-6.49l-5.14,10.05c-0.93,1.81-1.89,3.61-2.79,5.44l-2.72,5.48
				l-2.72,5.48l-2.64,5.52l-2.64,5.52l-2.56,5.57l-2.55,5.57l-2.48,5.62c-1.68,3.73-3.24,7.52-4.85,11.29l-2.33,5.7
				c-0.78,1.9-1.54,3.81-2.28,5.73c-0.74,1.92-1.51,3.83-2.22,5.76c-0.72,1.93-1.46,3.85-2.14,5.81c-1.41,3.88-2.75,7.8-3.97,11.79
				c2.8-3.09,5.48-6.25,8.1-9.45c1.33-1.59,2.6-3.21,3.89-4.81c1.3-1.6,2.55-3.24,3.81-4.86c1.27-1.62,2.52-3.25,3.75-4.89l3.7-4.92
				c2.41-3.31,4.87-6.6,7.21-9.95l3.55-5l3.48-5.05l3.47-5.05l3.39-5.1l3.39-5.1l3.31-5.14l3.31-5.14c1.11-1.71,2.16-3.46,3.24-5.18
				l-15.45,3.56l7.66,5.72l7.74,5.59c2.58,1.86,5.15,3.74,7.77,5.56c2.6,1.84,5.21,3.66,7.83,5.47c5.23,3.63,10.51,7.19,15.8,10.72
				l7.99,5.23c2.68,1.73,5.32,3.51,8.02,5.18l11.06,6.86l5.03-10.96l2.75-5.99c0.91-2,1.85-3.98,2.73-6l5.3-12.07l2.57-6.08
				c0.85-2.03,1.73-4.04,2.55-6.09c1.63-4.09,3.34-8.14,4.91-12.27c1.6-4.11,3.19-8.22,4.7-12.38c0.77-2.07,1.53-4.14,2.26-6.23
				c0.73-2.09,1.49-4.16,2.2-6.27c1.43-4.19,2.82-8.41,4.15-12.66C-2745.63,3439.03-2744.36,3434.75-2743.25,3430.4z"/>
			<path class="st4" d="M-3294.23,3521.42c-0.44-4.47-1.04-8.89-1.69-13.29c-0.66-4.4-1.39-8.78-2.17-13.14
				c-0.38-2.19-0.81-4.35-1.21-6.53c-0.4-2.18-0.83-4.34-1.28-6.51c-0.86-4.34-1.79-8.65-2.75-12.95
				c-0.92-4.32-1.99-8.58-2.98-12.87c-0.49-2.15-1.06-4.27-1.58-6.41l-1.61-6.4l-3.39-12.74c-0.56-2.12-1.19-4.23-1.78-6.34
				l-1.8-6.34l-8.47,14.28c3.16-0.44,6.29-0.99,9.44-1.48l9.43-1.53c6.27-1.08,12.54-2.19,18.79-3.38c3.13-0.59,6.25-1.19,9.38-1.82
				c3.12-0.6,6.24-1.27,9.35-1.93l9.35-1.97l9.32-2.12l11.88-2.7l-3.47-10.74c-0.63-1.94-1.22-3.89-1.87-5.82l-1.95-5.8l-1.95-5.8
				l-2.04-5.77l-2.04-5.77l-2.13-5.75l-2.13-5.75l-2.22-5.72c-1.45-3.82-3.03-7.61-4.56-11.41l-2.38-5.68
				c-0.79-1.89-1.6-3.78-2.44-5.66c-0.83-1.88-1.64-3.77-2.51-5.64c-0.86-1.87-1.7-3.76-2.59-5.62c-1.75-3.74-3.58-7.46-5.54-11.14
				c0.21,4.17,0.54,8.3,0.96,12.41c0.18,2.06,0.43,4.1,0.65,6.16c0.21,2.05,0.49,4.09,0.74,6.13c0.25,2.04,0.52,4.08,0.81,6.11
				l0.86,6.1c0.64,4.05,1.22,8.11,1.93,12.14l1.03,6.05l1.11,6.03l1.12,6.03l1.21,6l1.21,6l1.3,5.98l1.3,5.98
				c0.43,1.99,0.92,3.97,1.37,5.96l8.41-13.44l-9.46,1.37l-9.43,1.52c-3.14,0.51-6.29,1-9.42,1.56c-3.14,0.53-6.27,1.09-9.4,1.67
				c-6.26,1.13-12.51,2.35-18.76,3.59l-9.35,1.96c-3.11,0.67-6.24,1.28-9.34,2.01l-12.67,2.97l4.19,11.3l2.29,6.18
				c0.77,2.05,1.51,4.12,2.31,6.17l4.79,12.28l2.48,6.11c0.84,2.03,1.64,4.08,2.51,6.1c1.74,4.05,3.39,8.12,5.2,12.15
				c1.77,4.04,3.56,8.07,5.43,12.07c0.92,2.01,1.84,4.01,2.81,6.01c0.96,1.99,1.89,4,2.88,5.98c1.95,3.98,3.95,7.94,6.02,11.88
				C-3298.65,3513.64-3296.52,3517.56-3294.23,3521.42z"/>
		</g>
	</g>
	
		<ellipse transform="matrix(0.7071 -0.7071 0.7071 0.7071 -3068.7886 -72.0629)" class="st0" cx="-1621.38" cy="3668.32" rx="669.41" ry="669.41"/>
	<g>
		<path class="st1" d="M-1025.03,3797.67c-9.31-49.64-49.39-211.67-107.91-211.67h-550.19h-46.66h-120.23h-96.18h-166.89
			c-58.53,0-96.18,154.73-104.94,211.67s21.66,106.33,80.18,106.33h166.89h152.11h64.29h102.6h550.19
			C-1043.24,3904-1015.72,3847.31-1025.03,3797.67z"/>
		<g>
			<g>
				<g>
					<g>
						<path class="st2" d="M-1762.32,3513.69c0.76-14.13,8.58-32.13,15.65-40.39c7.08-8.25,20.27-16.09,29.46-17.5
							c9.19-1.41,28-1.01,42.03,0.91l49.76,6.78l49.76-6.78c14.03-1.92,32.84-2.32,42.04-0.91c9.2,1.41,22.38,9.25,29.46,17.5
							c7.07,8.26,14.89,26.26,15.65,40.39c1.35,25-0.31,64.6-18.22,100.94c0,0-12.81,25.62-12.81,66.61
							c0,29.98-11.42,94.61-26.25,123.36c-6.49,12.58-25.91,10.17-29.85-3.43c-13.77-47.65-23.59-167.65-49.78-167.32
							c-26.17-0.33-35.99,119.68-49.78,167.32c-3.94,13.6-23.38,16.01-29.86,3.43c-14.83-28.75-26.25-93.37-26.25-123.36
							c0-40.99-12.81-66.61-12.81-66.61C-1762.01,3578.29-1763.68,3538.69-1762.32,3513.69z"/>
					</g>
				</g>
			</g>
		</g>
		<g>
			<g>
				<g>
					<g>
						<path class="st2" d="M-1825.85,3513.69c-0.76-14.13-8.58-32.13-15.65-40.39c-7.08-8.25-20.27-16.09-29.46-17.5
							c-9.19-1.41-28-1.01-42.03,0.91l-49.76,6.78l-49.77-6.78c-14.02-1.92-32.84-2.32-42.03-0.91c-9.19,1.41-22.38,9.25-29.46,17.5
							c-7.07,8.26-14.89,26.26-15.65,40.39c-1.35,25,0.31,64.6,18.22,100.94c0,0,12.81,25.62,12.81,66.61
							c0,29.98,11.42,94.61,26.25,123.36c6.48,12.58,25.91,10.17,29.85-3.43c13.77-47.65,23.59-167.65,49.78-167.32
							c26.18-0.33,35.99,119.68,49.79,167.32c3.94,13.6,23.38,16.01,29.85,3.43c14.83-28.75,26.25-93.37,26.25-123.36
							c0-40.99,12.81-66.61,12.81-66.61C-1826.16,3578.29-1824.49,3538.69-1825.85,3513.69z"/>
					</g>
				</g>
			</g>
		</g>
		<g>
			<g>
				<g>
					<g>
						<path class="st2" d="M-1418.07,3513.69c0.76-14.13,8.58-32.13,15.66-40.39c7.08-8.25,20.27-16.09,29.46-17.5
							c9.19-1.41,28-1.01,42.03,0.91l49.76,6.78l49.77-6.78c14.02-1.92,32.83-2.32,42.03-0.91c9.19,1.41,22.38,9.25,29.46,17.5
							c7.07,8.26,14.89,26.26,15.65,40.39c1.35,25-0.31,64.6-18.21,100.94c0,0-12.81,25.62-12.81,66.61
							c0,29.98-11.42,94.61-26.25,123.36c-6.49,12.58-25.92,10.17-29.85-3.43c-13.77-47.65-23.59-167.65-49.78-167.32
							c-26.17-0.33-36,119.68-49.79,167.32c-3.94,13.6-23.38,16.01-29.86,3.43c-14.83-28.75-26.25-93.37-26.25-123.36
							c0-40.99-12.81-66.61-12.81-66.61C-1417.76,3578.29-1419.42,3538.69-1418.07,3513.69z"/>
					</g>
				</g>
			</g>
		</g>
		<g>
			<path class="st7" d="M-1911,3578.41c0,10.44-7.13,18.59-17.35,18.59h-70.21c-10.22,0-19.44-8.15-19.44-18.59v-69.44
				c0-10.43,9.22-18.97,19.44-18.97h70.21c10.22,0,17.35,8.54,17.35,18.97V3578.41z"/>
			<g>
				<path class="st8" d="M-1980.33,3509.4c0,7.02-5.69,12.72-12.72,12.72s-12.72-5.69-12.72-12.72c0-7.03,5.69-12.72,12.72-12.72
					S-1980.33,3502.38-1980.33,3509.4z"/>
				<path class="st8" d="M-1918.89,3509.4c0,7.02-5.69,12.72-12.72,12.72c-7.03,0-12.72-5.69-12.72-12.72
					c0-7.03,5.69-12.72,12.72-12.72C-1924.58,3496.68-1918.89,3502.38-1918.89,3509.4z"/>
				<path class="st8" d="M-1980.33,3578.18c0,7.02-5.69,12.72-12.72,12.72s-12.72-5.69-12.72-12.72c0-7.03,5.69-12.72,12.72-12.72
					S-1980.33,3571.15-1980.33,3578.18z"/>
				<path class="st8" d="M-1918.89,3578.18c0,7.02-5.69,12.72-12.72,12.72c-7.03,0-12.72-5.69-12.72-12.72
					c0-7.03,5.69-12.72,12.72-12.72C-1924.58,3565.46-1918.89,3571.15-1918.89,3578.18z"/>
			</g>
		</g>
		<g>
			<path class="st7" d="M-1574,3579.12c0,10.43-8.45,18.88-18.88,18.88h-70.24c-10.43,0-18.88-8.45-18.88-18.88v-70.24
				c0-10.43,8.45-18.88,18.88-18.88h70.24c10.43,0,18.88,8.45,18.88,18.88V3579.12z"/>
			<g>
				<path class="st8" d="M-1643.37,3509.4c0,7.02-5.7,12.72-12.72,12.72c-7.02,0-12.72-5.69-12.72-12.72
					c0-7.03,5.7-12.72,12.72-12.72C-1649.07,3496.68-1643.37,3502.38-1643.37,3509.4z"/>
				<path class="st8" d="M-1581.93,3509.4c0,7.02-5.7,12.72-12.72,12.72c-7.02,0-12.72-5.69-12.72-12.72
					c0-7.03,5.7-12.72,12.72-12.72C-1587.63,3496.68-1581.93,3502.38-1581.93,3509.4z"/>
				<path class="st8" d="M-1643.37,3578.18c0,7.02-5.7,12.72-12.72,12.72c-7.02,0-12.72-5.69-12.72-12.72
					c0-7.03,5.7-12.72,12.72-12.72C-1649.07,3565.46-1643.37,3571.15-1643.37,3578.18z"/>
				<path class="st8" d="M-1581.93,3578.18c0,7.02-5.7,12.72-12.72,12.72c-7.02,0-12.72-5.69-12.72-12.72
					c0-7.03,5.7-12.72,12.72-12.72C-1587.63,3565.46-1581.93,3571.15-1581.93,3578.18z"/>
			</g>
		</g>
		<g>
			<path class="st7" d="M-1228,3579.23c0,10.43-8.59,18.77-19.01,18.77h-69.7c-10.42,0-19.29-8.34-19.29-18.77v-69.7
				c0-10.43,8.86-19.53,19.29-19.53h69.7c10.42,0,19.01,9.1,19.01,19.53V3579.23z"/>
			<g>
				<path class="st8" d="M-1298.69,3509.4c0,7.02-5.69,12.72-12.72,12.72c-7.02,0-12.72-5.69-12.72-12.72
					c0-7.03,5.7-12.72,12.72-12.72C-1304.38,3496.68-1298.69,3502.38-1298.69,3509.4z"/>
				<path class="st8" d="M-1237.25,3509.4c0,7.02-5.69,12.72-12.72,12.72c-7.02,0-12.72-5.69-12.72-12.72
					c0-7.03,5.7-12.72,12.72-12.72C-1242.94,3496.68-1237.25,3502.38-1237.25,3509.4z"/>
				<path class="st8" d="M-1298.69,3578.18c0,7.02-5.69,12.72-12.72,12.72c-7.02,0-12.72-5.69-12.72-12.72
					c0-7.03,5.7-12.72,12.72-12.72C-1304.38,3565.46-1298.69,3571.15-1298.69,3578.18z"/>
				<path class="st8" d="M-1237.25,3578.18c0,7.02-5.69,12.72-12.72,12.72c-7.02,0-12.72-5.69-12.72-12.72
					c0-7.03,5.7-12.72,12.72-12.72C-1242.94,3565.46-1237.25,3571.15-1237.25,3578.18z"/>
			</g>
		</g>
		<path class="st8" d="M-1183.4,3543.5c0,2.79-2.38,4.5-5.32,4.5h-873.34c-2.93,0-5.31-1.72-5.31-4.5l0,0c0-2.78,2.38-4.5,5.31-4.5
			h873.34C-1185.78,3539-1183.4,3540.71-1183.4,3543.5L-1183.4,3543.5z"/>
	</g>
	<g>
		<circle class="st0" cx="-4993.64" cy="5307.04" r="669.41"/>
		<g>
			<path class="st1" d="M-4612.41,5489.96c-14.4-76.76-76.37-325.96-166.87-325.96h-433.75c-90.5,0-148.73,237.9-162.28,325.96
				c-13.55,88.05,33.49,163.04,123.99,163.04h520.26C-4640.57,5653-4598.01,5566.71-4612.41,5489.96z"/>
			<g>
				<path class="st9" d="M-4993,5207.84v402.98c4-2.73,117.24-69.12,130.54-104.03c13.58-35.65,39.31-269.01,39.31-269.01
					L-4993,5207.84z"/>
				<path class="st10" d="M-4993.38,5207.81l-0.15,0.01l-0.09-0.01l-170.16,29.97c0,0,25.61,233.37,39.19,269.01
					c13.58,35.65,130.92,104.13,130.92,104.13l0.03-0.03l0.25,0.03c0,0-0.62-0.04,0.38-0.1v-402.98L-4993.38,5207.81z"/>
			</g>
			<g>
				<path class="st2" d="M-4810.08,5207.61c27.68-56.2,30.25-117.43,28.16-156.09c-1.18-21.85-13.27-49.69-24.21-62.46
					c-10.95-12.76-31.35-24.88-45.56-27.06c-14.22-2.18-43.31-1.57-64.99,1.4l-76.96,10.48l-76.96-10.48
					c-21.69-2.97-50.77-3.58-65-1.4c-14.22,2.18-34.61,14.3-45.56,27.06c-10.93,12.77-23.03,40.61-24.21,62.46
					c-2.09,38.66,0.48,99.9,28.17,156.09c0,0,3.84,7.69,8.14,21.69h350.83C-4813.92,5215.29-4810.08,5207.61-4810.08,5207.61z"/>
			</g>
			<path class="st2" d="M-4810,5233.91c0-3.81-3.09-6.91-6.9-6.91h-355.19c-3.81,0-6.9,3.09-6.9,6.91v0.19
				c0,3.81,3.09,6.91,6.9,6.91h355.19c3.81,0,6.9-3.09,6.9-6.91V5233.91z"/>
			<path class="st11" d="M-4817.16,5313.97c-0.49,3.61-81.33-4.3-180.58-17.67c-99.25-13.37-179.31-27.13-178.82-30.74
				c0.49-3.61,81.34,4.3,180.58,17.67C-4896.73,5296.6-4816.67,5310.36-4817.16,5313.97z"/>
			<path class="st11" d="M-4817.16,5369.62c-0.49,3.61-81.33-4.3-180.58-17.67c-99.25-13.37-179.31-27.13-178.82-30.74
				c0.49-3.61,81.34,4.3,180.58,17.67C-4896.73,5352.25-4816.67,5366.01-4817.16,5369.62z"/>
			<path class="st11" d="M-4826.08,5424.07c-0.47,3.49-77.31-3.97-171.63-16.68c-94.32-12.7-170.4-25.83-169.93-29.33
				c0.47-3.5,77.31,3.97,171.63,16.68C-4901.69,5407.44-4825.61,5420.57-4826.08,5424.07z"/>
			<path class="st11" d="M-4832.02,5478.91c-0.42,3.13-74.56-4.28-165.6-16.54c-91.04-12.26-164.5-24.74-164.08-27.86
				c0.42-3.13,74.57,4.28,165.6,16.54C-4905.06,5463.31-4831.6,5475.79-4832.02,5478.91z"/>
			<path class="st11" d="M-4856.97,5531.2c-0.33,2.45-63.23-3.99-140.49-14.4c-77.26-10.4-139.62-20.83-139.29-23.28
				c0.33-2.46,63.23,3.99,140.49,14.4C-4919,5518.32-4856.64,5528.74-4856.97,5531.2z"/>
		</g>
	</g>
	<g>
		<g>
			<g>
				<g>
					<g>
						<path class="st2" d="M-3450.66,5129c-0.82-15.19-9.23-34.55-16.83-43.42c-7.61-8.87-21.8-17.3-31.68-18.81
							c-9.88-1.52-30.11-1.09-45.18,0.97l-53.5,7.29l-53.51-7.29c-15.08-2.06-35.3-2.49-45.19-0.97
							c-9.89,1.51-24.06,9.94-31.67,18.81c-7.6,8.88-16.01,28.23-16.83,43.42c-1.46,26.88,0.33,69.46,19.58,108.52
							c0,0,13.77,27.55,13.77,71.62c0,32.23,12.28,101.72,28.22,132.63c6.97,13.53,27.86,10.93,32.09-3.68
							c14.81-51.23,25.36-180.25,53.52-179.89c28.14-0.36,38.7,128.67,53.53,179.89c4.24,14.62,25.13,17.21,32.1,3.68
							c15.94-30.91,28.23-100.38,28.23-132.63c0-44.07,13.77-71.62,13.77-71.62C-3451,5198.46-3449.21,5155.88-3450.66,5129z"/>
					</g>
				</g>
			</g>
		</g>
		<g>
			<g>
				<g>
					<g>
						<path class="st2" d="M-3155.5,5129c0.82-15.19,9.23-34.55,16.83-43.42c7.61-8.87,21.8-17.3,31.68-18.81
							c9.88-1.52,30.11-1.09,45.18,0.97l53.5,7.29l53.51-7.29c15.08-2.06,35.3-2.49,45.19-0.97c9.88,1.51,24.06,9.94,31.67,18.81
							c7.6,8.88,16.01,28.23,16.83,43.42c1.45,26.88-0.34,69.46-19.58,108.52c0,0-13.77,27.55-13.77,71.62
							c0,32.23-12.28,101.72-28.22,132.63c-6.97,13.53-27.86,10.93-32.09-3.68c-14.81-51.23-25.36-180.25-53.52-179.89
							c-28.14-0.36-38.7,128.67-53.52,179.89c-4.24,14.62-25.14,17.21-32.1,3.68c-15.94-30.91-28.23-100.38-28.23-132.63
							c0-44.07-13.77-71.62-13.77-71.62C-3155.17,5198.46-3156.96,5155.88-3155.5,5129z"/>
					</g>
				</g>
			</g>
		</g>
		<g>
			<path class="st2" d="M-3175.16,5237.08c19.05-38.95,20.82-81.3,19.37-108.08c-0.82-15.19-9.23-34.55-16.83-43.42
				c-7.61-8.87-21.79-17.3-31.67-18.81c-9.89-1.52-30.11-1.09-45.19,0.97l-53.5,7.29l-53.5-7.29c-15.08-2.06-35.3-2.49-45.19-0.97
				c-9.88,1.51-24.07,9.94-31.68,18.81c-7.6,8.88-16.01,28.23-16.83,43.42c-1.4,25.9,0.22,66.35,17.54,104.21
				C-3402.66,5243.8-3299.43,5273.78-3175.16,5237.08z"/>
		</g>
	</g>
	<path class="st12" d="M-5430.44,1872.16c0,0-27.31,108.36-21.14,176.2c6.17,67.84-1.76,91.62,29.07,119.82
		c30.83,28.19,18.5,76.65,56.38,96.91s81.05-17.62,110.13-29.95c29.07-12.33,7.93,19.38,63.43,37s77.53,19.38,104.84-9.69
		c27.31-29.07,48.46-41.41,52.86-99.55c4.4-58.15-7.05-131.27-8.81-186.77s-7.93-95.15-44.93-102.2
		C-5125.61,1866.88-5430.44,1872.16-5430.44,1872.16z"/>
	<g>
		<g>
			<g>
				<path class="st2" d="M-2783.98,480.99c-1.03-19.17-11.64-43.6-21.24-54.8c-9.6-11.19-27.51-21.83-39.98-23.74
					c-12.47-1.92-38-1.37-57.02,1.23l-67.52,9.2l-67.52-9.2c-19.03-2.6-44.55-3.14-57.03-1.23c-12.47,1.91-30.37,12.55-39.97,23.74
					c-9.59,11.2-20.21,35.63-21.24,54.8c-1.83,33.92,0.42,87.65,24.72,136.96c0,0,17.38,34.76,17.38,90.38
					c0,40.67,15.5,128.37,35.62,167.37c8.8,17.07,35.16,13.8,40.5-4.65c18.69-64.65,32.01-227.48,67.54-227.03
					c35.51-0.45,48.84,162.38,67.55,227.03c5.35,18.45,31.72,21.72,40.51,4.65c20.12-39.01,35.62-126.68,35.62-167.37
					c0-55.62,17.38-90.38,17.38-90.38C-2784.41,568.64-2782.15,514.91-2783.98,480.99z"/>
			</g>
		</g>
	</g>
	<path class="st12" d="M-4957.63,1878.56c0,0-27.31,108.37-21.14,176.2c6.17,67.84-1.76,91.62,29.07,119.82
		c30.83,28.19,18.5,76.65,56.38,96.91c37.88,20.26,81.05-17.62,110.13-29.95c29.07-12.33,7.93,19.38,63.43,37
		s77.53,19.38,104.84-9.69c27.31-29.07,48.46-41.41,52.86-99.55c4.4-58.15-7.05-131.27-8.81-186.77
		c-1.76-55.5-7.93-95.15-44.93-102.2C-4652.8,1873.27-4957.63,1878.56-4957.63,1878.56z"/>
	<g>
		<g>
			<g>
				<path class="st2" d="M-4959.52,1778.99c1.03-19.17,11.65-43.6,21.24-54.8c9.6-11.19,27.51-21.83,39.98-23.74
					c12.47-1.92,38-1.37,57.02,1.23l67.52,9.2l67.52-9.2c19.03-2.6,44.55-3.14,57.03-1.23c12.47,1.91,30.37,12.55,39.97,23.74
					c9.59,11.2,20.21,35.63,21.24,54.8c1.83,33.92-0.42,87.65-24.72,136.96c0,0-17.38,34.76-17.38,90.38
					c0,40.67-15.5,128.37-35.62,167.37c-8.8,17.07-35.16,13.8-40.5-4.65c-18.69-64.65-32.01-227.48-67.54-227.03
					c-35.51-0.45-48.84,162.38-67.55,227.03c-5.35,18.45-31.72,21.72-40.51,4.65c-20.12-39.01-35.62-126.68-35.62-167.37
					c0-55.62-17.38-90.38-17.38-90.38C-4959.09,1866.64-4961.35,1812.91-4959.52,1778.99z"/>
			</g>
		</g>
	</g>
	<g>
		
			<ellipse transform="matrix(0.7071 -0.7071 0.7071 0.7071 -1035.6259 2500.4126)" class="st0" cx="2500.45" cy="2500.32" rx="2485.68" ry="2485.69"/>
		<g>
			<path class="st1" d="M3916.06,3179.54c-53.47-285.03-283.59-1210.36-619.65-1210.36H1685.76
				c-336.06,0-552.28,883.39-602.58,1210.36c-50.31,326.96,124.35,605.43,460.41,605.43h1931.85
				C3811.49,3784.97,3969.51,3464.56,3916.06,3179.54z"/>
			<g>
				<g>
					<g>
						<path class="st2" d="M3286.59,1550.69c-4.36-81.13-49.29-184.52-89.89-231.93c-40.64-47.37-116.42-92.37-169.19-100.47
							c-52.79-8.11-160.81-5.82-241.33,5.2l-285.75,38.92l-285.77-38.92c-80.53-11.02-188.54-13.31-241.37-5.2
							c-52.78,8.1-128.52,53.1-169.16,100.47c-40.6,47.41-85.51,150.8-89.88,231.93c-7.76,143.57,1.79,370.95,104.6,579.63
							c0,0,73.57,147.12,73.57,382.49c0,172.12,65.59,543.27,150.74,708.35c37.23,72.24,148.8,58.4,171.4-19.68
							c79.09-273.6,135.46-962.72,285.83-960.82c150.29-1.9,206.69,687.22,285.87,960.82c22.63,78.08,134.24,91.92,171.45,19.68
							c85.14-165.08,150.75-536.15,150.75-708.35c0-235.37,73.56-382.49,73.56-382.49
							C3284.79,1921.64,3294.34,1694.26,3286.59,1550.69z"/>
					</g>
				</g>
			</g>
			<g>
				<rect x="2057.94" y="1412.19" class="st13" width="887.47" height="590.41"/>
				<path class="st13" d="M2940.81,1997.75c0,81.1-197.22,146.84-440.52,146.84c-243.3,0-440.53-65.74-440.53-146.84
					c0-81.09,197.22-146.84,440.53-146.84C2743.59,1850.91,2940.81,1916.65,2940.81,1997.75z"/>
				<path class="st14" d="M2940.81,1410.39c0,81.09-197.22,146.84-440.52,146.84c-243.3,0-440.53-65.74-440.53-146.84
					c0-81.1,197.22-146.84,440.53-146.84C2743.59,1263.55,2940.81,1329.29,2940.81,1410.39z"/>
			</g>
		</g>
	</g>
</g>
</svg>
