<svg xmlns="http://www.w3.org/2000/svg" viewBox="0 0 367.66 383.88"><defs><style>.cls-1{isolation:isolate;}.cls-2{fill:#e6f5ff;}.cls-3{fill:#b3d9ff;}.cls-4{fill:#71abff;}.cls-17,.cls-21,.cls-22,.cls-23,.cls-24,.cls-25,.cls-4,.cls-5{stroke:#2b2b53;}.cls-17,.cls-21,.cls-22,.cls-23,.cls-25,.cls-4,.cls-5{stroke-linecap:round;stroke-linejoin:round;}.cls-17,.cls-4,.cls-5{stroke-width:0.49px;}.cls-21,.cls-22,.cls-23,.cls-25,.cls-5{fill:none;}.cls-24,.cls-6{fill:#c64e4e;}.cls-7{fill:#ff7d7d;}.cls-8{fill:#c1cad3;}.cls-9{fill:#fff;}.cls-10{fill:#d1dce5;}.cls-11,.cls-15{fill:#a7b3c1;}.cls-12{fill:#72808e;}.cls-13{fill:#cfd8e2;}.cls-14,.cls-16{fill:#b6c6d6;}.cls-15,.cls-16{opacity:0.2;}.cls-17{fill:#efc44b;}.cls-18{fill:#2b2b53;}.cls-19{fill:#eda280;}.cls-20{fill:#4e99f2;}.cls-21,.cls-22,.cls-23,.cls-25{stroke-width:0.54px;}.cls-22{stroke-dasharray:3.22 3.22;}.cls-23{stroke-dasharray:3.9 3.9;}.cls-24{stroke-miterlimit:10;stroke-width:0.51px;}.cls-25{stroke-dasharray:3.09;}</style></defs><title>bgnew</title><g id="OBJECTS"><g class="cls-1"><path class="cls-2" d="M507.05,382.25v.32c-.05,15.14-12.16,30.26-36.34,41.81-48.68,23.25-127.86,23.25-176.86,0-24.65-11.7-37-27.06-36.92-42.39v-.33c-.06,15.34,12.26,30.69,36.91,42.39,49,23.25,128.18,23.25,176.86,0C494.9,412.5,507,397.39,507.05,382.25Z" transform="translate(-174.52 -57.94)"/><path class="cls-2" d="M470.14,339.86c49,23.25,49.25,60.94.57,84.19s-127.86,23.25-176.86,0-49.25-60.94-.57-84.19S421.14,316.61,470.14,339.86Z" transform="translate(-174.52 -57.94)"/></g><path class="cls-3" d="M491.73,224.18c0,32.58-27.49,59-61.41,59A62.68,62.68,0,0,1,391,269.46c-16.38,32.33-50.91,54.61-90.85,54.61-55.79,0-101-43.44-101-97,0-45.87,33.13-84.3,77.64-94.43,0-.25,0-.49,0-.73,0-24.93,21-45.14,47-45.14A47.73,47.73,0,0,1,358,101.06a61.35,61.35,0,0,1,33.48-9.83c33.06,0,59.86,25.75,59.86,57.52A55.31,55.31,0,0,1,448,167.67C473.31,175,491.73,197.51,491.73,224.18Z" transform="translate(-174.52 -57.94)"/><path class="cls-4" d="M478.55,299.2c-6.9,9.31-15.53,17.32-24.75,24.52l-.37-.17c5.31-11,4.72-23.72,4.93-35.88.27-14.9,2.17-30.42,10.63-42.9a20.1,20.1,0,0,1,5.84-6.06,10,10,0,0,1,8.27-1.26c2.95,1,4.94,3.68,6.31,6.39,3.74,7.39,4.26,16,3,24.13C490.57,279.26,485.45,289.9,478.55,299.2Z" transform="translate(-174.52 -57.94)"/><path class="cls-4" d="M541.91,286.23c-.43,13-9.53,24.6-21,31.43s-25.1,9.52-38.5,11.08c-10.16,1.18-20.71,1.73-30.42-1.34,12.78-4.09,23-13.34,32-23s17.46-20.12,28.46-27.7c3.94-2.71,8.29-5.06,13.08-5.71s10.08.63,13.18,4.19C541.3,278.2,542,282.32,541.91,286.23Z" transform="translate(-174.52 -57.94)"/><path class="cls-5" d="M447.22,327.61a21.24,21.24,0,0,0,7.81-5.39c17.18-17.69,20.33-44.35,22.87-68.42" transform="translate(-174.52 -57.94)"/><path class="cls-5" d="M443.86,327.19c16.86,1.2,39.87-4.89,54-13.81,8.67-5.47,16.87-12.05,22.2-20.6" transform="translate(-174.52 -57.94)"/><path class="cls-5" d="M478.55,299.2c-6.9,9.31-15.53,17.32-24.75,24.52l-.37-.17c5.31-11,4.72-23.72,4.93-35.88.27-14.9,2.17-30.42,10.63-42.9a20.1,20.1,0,0,1,5.84-6.06,10,10,0,0,1,8.27-1.26c2.95,1,4.94,3.68,6.31,6.39,3.74,7.39,4.26,16,3,24.13C490.57,279.26,485.45,289.9,478.55,299.2Z" transform="translate(-174.52 -57.94)"/><path class="cls-5" d="M541.91,286.23c-.43,13-9.53,24.6-21,31.43s-25.1,9.52-38.5,11.08c-10.16,1.18-20.71,1.73-30.42-1.34,12.78-4.09,23-13.34,32-23s17.46-20.12,28.46-27.7c3.94-2.71,8.29-5.06,13.08-5.71s10.08.63,13.18,4.19C541.3,278.2,542,282.32,541.91,286.23Z" transform="translate(-174.52 -57.94)"/><path class="cls-4" d="M247.08,274.06c-6.26-10.86-10-23.36-8.59-35.69.44-3.81,1.42-7.69,3.77-10.78s6.34-5.27,10.29-4.73,7.08,3.61,9.47,6.75c9,11.8,12.54,26.6,14.71,41.08,2.14,14.32,2.69,29.08,7.37,42.82h0c-5-2.61-9.11-6.47-13.09-10.37C262,294.28,253.33,284.9,247.08,274.06Z" transform="translate(-174.52 -57.94)"/><path class="cls-4" d="M266.26,303.92a193.45,193.45,0,0,1,20.43,21.86c-20.32-10.07-47.34-2.83-67-14.23a22.82,22.82,0,0,1-8.5-7.86,12.07,12.07,0,0,1-.93-11c2.09-4.47,7.27-6.89,12.31-7.7,8.18-1.32,16.69.66,24.06,4.34S260.34,298.31,266.26,303.92Z" transform="translate(-174.52 -57.94)"/><path class="cls-5" d="M224.86,299.46a107.61,107.61,0,0,1,48.49,16.19,102.27,102.27,0,0,1,34.57,36.46" transform="translate(-174.52 -57.94)"/><path class="cls-5" d="M310,341.69c-27.48-23.83-47.15-56.53-52-91.79" transform="translate(-174.52 -57.94)"/><path class="cls-5" d="M247.08,274.06c-6.26-10.86-10-23.36-8.59-35.69.44-3.81,1.42-7.69,3.77-10.78s6.34-5.27,10.29-4.73,7.08,3.61,9.47,6.75c9,11.8,12.54,26.6,14.71,41.08,2.14,14.32,2.69,29.08,7.37,42.82h0c-5-2.61-9.11-6.47-13.09-10.37C262,294.28,253.33,284.9,247.08,274.06Z" transform="translate(-174.52 -57.94)"/><path class="cls-5" d="M266.26,303.92a193.45,193.45,0,0,1,20.43,21.86c-20.32-10.07-47.34-2.83-67-14.23a22.82,22.82,0,0,1-8.5-7.86,12.07,12.07,0,0,1-.93-11c2.09-4.47,7.27-6.89,12.31-7.7,8.18-1.32,16.69.66,24.06,4.34S260.34,298.31,266.26,303.92Z" transform="translate(-174.52 -57.94)"/><g class="cls-1"><path class="cls-6" d="M392.22,313.37l5.19,9.39c-1.25-2.27-1-5.32,1.17-8.63.11-.18.23-.36.36-.55l-5.19-9.39c-.13.18-.25.37-.37.55C391.26,308,391,311.1,392.22,313.37Z" transform="translate(-174.52 -57.94)"/><polygon class="cls-6" points="269.6 190.95 264.41 181.56 219.23 246.25 224.43 255.64 269.6 190.95"/><path class="cls-7" d="M449.71,241.81l-5.19-9.39a75.86,75.86,0,0,0-5.59,7.07l5.19,9.4A76,76,0,0,1,449.71,241.81Z" transform="translate(-174.52 -57.94)"/><path class="cls-7" d="M450.68,240.7l-5.2-9.39-1,1.11,5.19,9.39Z" transform="translate(-174.52 -57.94)"/><path class="cls-6" d="M452.62,238.38,447.43,229c-.7.85-1.35,1.62-1.95,2.32l5.2,9.39C451.28,240,451.92,239.23,452.62,238.38Z" transform="translate(-174.52 -57.94)"/><path class="cls-6" d="M452.62,238.38c-.7.85-1.34,1.62-1.94,2.32l5.44.17a2.78,2.78,0,0,0,2.18-1.13c.42-.64.11-1.18-.68-1.2Z" transform="translate(-174.52 -57.94)"/><path class="cls-7" d="M454.37,236.24l-5.19-9.39c-.61.75-1.18,1.47-1.75,2.14l5.19,9.39C453.19,237.71,453.76,237,454.37,236.24Z" transform="translate(-174.52 -57.94)"/><path class="cls-6" d="M456.16,233.92l-5.2-9.39c-.61.81-1.2,1.57-1.78,2.32l5.19,9.39C455,235.49,455.55,234.73,456.16,233.92Z" transform="translate(-174.52 -57.94)"/><path class="cls-6" d="M519.8,155.73l-5.2-9.39a13.5,13.5,0,0,1-4.68,4.16,33.46,33.46,0,0,0-10.49,8.9,397.22,397.22,0,0,1-26.11,31.3,71.24,71.24,0,0,0-11.23,15.87l5.2,9.39a71.18,71.18,0,0,1,11.22-15.87,396.46,396.46,0,0,0,26.11-31.29,33.47,33.47,0,0,1,10.49-8.91A13.54,13.54,0,0,0,519.8,155.73Z" transform="translate(-174.52 -57.94)"/><path class="cls-7" d="M398.94,313.58c-.13.19-.25.37-.36.55-4.14,6.44-1.34,11.93,6.33,12.5a5.19,5.19,0,0,0,3.75-2.1l70.57-109.81L513.75,166a8.6,8.6,0,0,1,3.46-2.72,8.61,8.61,0,0,0,3.58-2.92l18.15-28.25c1.19-1.85.61-3.44-1.26-3.91L519.8,155.73a13.54,13.54,0,0,1-4.69,4.16,33.47,33.47,0,0,0-10.49,8.91,396.46,396.46,0,0,1-26.11,31.29A71.18,71.18,0,0,0,467.29,216l4.74.15c.79,0,1.1.57.68,1.21a2.77,2.77,0,0,1-2.18,1.12l-4.42-.14c-.36.73-.74,1.45-1.14,2.17l4.18.13c.79,0,1.09.56.68,1.21a2.75,2.75,0,0,1-2.17,1.11l-4-.12c-.43.73-.87,1.45-1.3,2.16l3.9.13c.79,0,1.1.55.69,1.2a2.77,2.77,0,0,1-2.18,1.12l-3.9-.12-1.46,2.15,4,.12c.8,0,1.1.57.69,1.21a2.76,2.76,0,0,1-2.19,1.13l-4.13-.13c-.53.74-1.07,1.47-1.59,2.15l4.34.13c.79,0,1.1.57.68,1.21a2.75,2.75,0,0,1-2.18,1.12l-4.63-.14c-.61.75-1.18,1.47-1.75,2.14l5,.16c.79,0,1.1.56.68,1.2a2.78,2.78,0,0,1-2.18,1.13l-5.44-.17-1,1.11a76,76,0,0,0-5.59,7.08Z" transform="translate(-174.52 -57.94)"/><path class="cls-6" d="M456.16,233.92c-.61.81-1.21,1.57-1.79,2.32l4.63.14a2.75,2.75,0,0,0,2.18-1.12c.42-.64.11-1.18-.68-1.21Z" transform="translate(-174.52 -57.94)"/><path class="cls-7" d="M457.75,231.77l-5.19-9.39c-.53.74-1.08,1.46-1.6,2.15l5.2,9.39C456.68,233.24,457.22,232.51,457.75,231.77Z" transform="translate(-174.52 -57.94)"/><path class="cls-6" d="M459.41,229.44c-.55.81-1.1,1.58-1.66,2.33l4.13.13a2.76,2.76,0,0,0,2.19-1.13c.41-.64.11-1.18-.69-1.21Z" transform="translate(-174.52 -57.94)"/><path class="cls-6" d="M459.41,229.44l-5.19-9.39c-.55.81-1.11,1.58-1.66,2.33l5.19,9.39C458.31,231,458.86,230.25,459.41,229.44Z" transform="translate(-174.52 -57.94)"/><path class="cls-7" d="M460.87,227.29l-5.19-9.4c-.5.74-1,1.46-1.46,2.16l5.19,9.39Z" transform="translate(-174.52 -57.94)"/><path class="cls-6" d="M462.36,225l-.74,1.18-.75,1.15,3.9.12a2.77,2.77,0,0,0,2.18-1.12c.41-.65.1-1.18-.69-1.2Z" transform="translate(-174.52 -57.94)"/><path class="cls-6" d="M462.36,225l-5.19-9.39-.75,1.18-.74,1.14,5.19,9.4.75-1.15Z" transform="translate(-174.52 -57.94)"/><path class="cls-7" d="M463.66,222.8l-5.19-9.4c-.43.74-.88,1.46-1.3,2.17l5.19,9.39C462.79,224.25,463.23,223.53,463.66,222.8Z" transform="translate(-174.52 -57.94)"/><path class="cls-6" d="M465,220.47l-5.19-9.39c-.42.77-.87,1.56-1.31,2.32l5.19,9.4C464.11,222,464.56,221.24,465,220.47Z" transform="translate(-174.52 -57.94)"/><path class="cls-6" d="M465,220.47c-.41.77-.86,1.56-1.31,2.33l4,.12a2.75,2.75,0,0,0,2.17-1.11c.41-.65.11-1.19-.68-1.21Z" transform="translate(-174.52 -57.94)"/><path class="cls-7" d="M466.11,218.3l-5.19-9.39c-.37.73-.75,1.45-1.14,2.17l5.19,9.39C465.37,219.75,465.75,219,466.11,218.3Z" transform="translate(-174.52 -57.94)"/><path class="cls-6" d="M466.71,217.12l-5.2-9.39c-.2.4-.39.8-.59,1.18l5.19,9.39C466.32,217.92,466.5,217.52,466.71,217.12Z" transform="translate(-174.52 -57.94)"/><path class="cls-6" d="M467.29,216c-.2.39-.39.77-.58,1.16s-.39.8-.6,1.18l4.42.14a2.77,2.77,0,0,0,2.18-1.12c.42-.64.11-1.18-.68-1.21Z" transform="translate(-174.52 -57.94)"/><path class="cls-6" d="M467.29,216l-5.2-9.39c-.19.39-.39.77-.58,1.16l5.2,9.39C466.9,216.73,467.09,216.35,467.29,216Z" transform="translate(-174.52 -57.94)"/><path class="cls-6" d="M537.75,128.08c1.8.59,2.38,2.18,1.19,4l-18.15,28.25a8.61,8.61,0,0,1-3.58,2.92,8.6,8.6,0,0,0-3.46,2.72l-34.52,48.72L408.66,324.53a5.19,5.19,0,0,1-3.75,2.1l.76.05a5.2,5.2,0,0,0,4.11-2.12l70.58-109.81L514.86,166a8.74,8.74,0,0,1,3.46-2.71,8.57,8.57,0,0,0,3.58-2.93l18.16-28.25C541.44,130,540.42,128.17,537.75,128.08Z" transform="translate(-174.52 -57.94)"/><path class="cls-6" d="M540.43,129.35,535.24,120a3,3,0,0,0-2.68-1.27l5.19,9.39A3,3,0,0,1,540.43,129.35Z" transform="translate(-174.52 -57.94)"/></g><path class="cls-5" d="M393.38,304.74c-2.12,3.31-2.41,6.36-1.16,8.63l5.19,9.39a.59.59,0,0,1-.06-.14c1.15,2.22,3.75,3.73,7.57,4l.75.05a5.25,5.25,0,0,0,4.12-2.12l70.57-109.81L514.86,166a8.65,8.65,0,0,1,3.46-2.71,8.73,8.73,0,0,0,3.59-2.93l18.14-28.25a2.66,2.66,0,0,0,.37-2.8l-.06-.09v0s0,0,0,0L535.24,120a3,3,0,0,0-2.69-1.26l.09.16-.15,0L514.6,146.34q-.39.57-.87,1.14a14.61,14.61,0,0,1-3.81,3,33.22,33.22,0,0,0-10.49,8.9,390.89,390.89,0,0,1-26.12,31.3,71.12,71.12,0,0,0-11.21,15.87c-.2.39-.4.76-.59,1.16s-.39.79-.59,1.18c-.37.73-.74,1.45-1.14,2.16s-.87,1.57-1.32,2.33-.86,1.47-1.29,2.18l-.75,1.16c-.24.4-.5.78-.75,1.15-.49.74-1,1.46-1.46,2.16s-1.09,1.57-1.65,2.33-1.07,1.46-1.6,2.15-1.2,1.57-1.78,2.31-1.18,1.48-1.76,2.15c-.69.85-1.34,1.63-1.94,2.31-.34.41-.68.78-1,1.12a75.65,75.65,0,0,0-5.6,7.07l-45.17,64.7C393.62,304.37,393.5,304.56,393.38,304.74Z" transform="translate(-174.52 -57.94)"/><g class="cls-1"><polygon class="cls-8" points="340.35 92.44 338.79 89.61 317.02 88.94 318.59 91.76 340.35 92.44"/><path class="cls-8" d="M489.32,148.36l1.56,2.83a.54.54,0,0,1,.06-.58,2.68,2.68,0,0,1,2.17-.91l-1.57-2.83a2.72,2.72,0,0,0-2.17.91A.56.56,0,0,0,489.32,148.36Z" transform="translate(-174.52 -57.94)"/><path class="cls-8" d="M493.11,149.7a2.68,2.68,0,0,0-2.17.91c-.34.52.08,1,.94,1l21.77.68,1.22-1.91Z" transform="translate(-174.52 -57.94)"/></g><g class="cls-1"><polygon class="cls-9" points="341.57 90.54 340.01 87.71 318.24 87.04 319.81 89.86 341.57 90.54"/><polygon class="cls-9" points="319.81 89.86 318.24 87.04 317.86 87.02 319.42 89.85 319.81 89.86"/><path class="cls-9" d="M490.5,146.55l1.57,2.83a.63.63,0,0,1,.09-.67,2.24,2.24,0,0,1,1.78-.92L492.38,145a2.27,2.27,0,0,0-1.79.92A.66.66,0,0,0,490.5,146.55Z" transform="translate(-174.52 -57.94)"/><path class="cls-9" d="M493.94,147.79a2.24,2.24,0,0,0-1.78.92c-.34.52-.09,1,.56,1h.39l21.76.68,1.22-1.9-21.76-.68Z" transform="translate(-174.52 -57.94)"/></g><g class="cls-1"><polygon class="cls-8" points="342.8 88.63 341.24 85.81 319.47 85.13 321.03 87.96 342.8 88.63"/><path class="cls-8" d="M491.76,144.55l1.57,2.83a.56.56,0,0,1,.05-.58,2.75,2.75,0,0,1,2.17-.91L494,143.07a2.72,2.72,0,0,0-2.17.9A.54.54,0,0,0,491.76,144.55Z" transform="translate(-174.52 -57.94)"/><path class="cls-8" d="M495.55,145.89a2.75,2.75,0,0,0-2.17.91c-.33.52.09,1,.95,1l21.76.68,1.23-1.91Z" transform="translate(-174.52 -57.94)"/></g><g class="cls-1"><polygon class="cls-9" points="344.03 86.73 342.46 83.9 320.7 83.22 322.26 86.05 344.03 86.73"/><polygon class="cls-9" points="322.26 86.05 320.7 83.22 320.31 83.21 321.88 86.04 322.26 86.05"/><path class="cls-9" d="M493,142.75l1.57,2.83a.67.67,0,0,1,.09-.69,2.27,2.27,0,0,1,1.79-.92l-1.57-2.82a2.24,2.24,0,0,0-1.78.91A.67.67,0,0,0,493,142.75Z" transform="translate(-174.52 -57.94)"/><path class="cls-9" d="M496.4,144a2.27,2.27,0,0,0-1.79.92c-.34.53-.09,1,.56,1h.38l21.77.68,1.22-1.91L496.78,144Z" transform="translate(-174.52 -57.94)"/></g><g class="cls-1"><polygon class="cls-8" points="345.25 84.83 343.68 82 321.92 81.32 323.48 84.15 345.25 84.83"/><path class="cls-8" d="M494.21,140.74l1.56,2.82a.55.55,0,0,1,.06-.57,2.69,2.69,0,0,1,2.17-.9l-1.56-2.83a2.67,2.67,0,0,0-2.17.9A.54.54,0,0,0,494.21,140.74Z" transform="translate(-174.52 -57.94)"/><path class="cls-8" d="M498,142.09a2.69,2.69,0,0,0-2.17.9c-.34.53.09,1,.95,1l21.76.67,1.23-1.89Z" transform="translate(-174.52 -57.94)"/></g><g class="cls-1"><polygon class="cls-9" points="346.47 82.92 344.91 80.09 323.14 79.41 324.71 82.24 346.47 82.92"/><polygon class="cls-9" points="324.71 82.24 323.14 79.41 322.76 79.4 324.32 82.23 324.71 82.24"/><path class="cls-9" d="M495.4,138.94l1.56,2.83a.68.68,0,0,1,.1-.68,2.22,2.22,0,0,1,1.78-.92l-1.56-2.83a2.24,2.24,0,0,0-1.79.92A.67.67,0,0,0,495.4,138.94Z" transform="translate(-174.52 -57.94)"/><path class="cls-9" d="M498.84,140.17a2.22,2.22,0,0,0-1.78.92c-.34.52-.1,1,.56,1H498l21.77.68,1.22-1.91-21.76-.68Z" transform="translate(-174.52 -57.94)"/></g><g class="cls-1"><polygon class="cls-8" points="347.69 81.02 346.13 78.19 324.36 77.52 325.93 80.34 347.69 81.02"/><path class="cls-8" d="M496.66,136.93l1.56,2.83a.54.54,0,0,1,.06-.58,2.69,2.69,0,0,1,2.17-.9l-1.57-2.83a2.71,2.71,0,0,0-2.16.9A.54.54,0,0,0,496.66,136.93Z" transform="translate(-174.52 -57.94)"/><path class="cls-8" d="M500.45,138.28a2.69,2.69,0,0,0-2.17.9c-.34.53.08,1,1,1l21.76.68,1.22-1.9Z" transform="translate(-174.52 -57.94)"/></g><g class="cls-1"><polygon class="cls-9" points="348.92 79.11 347.35 76.28 325.59 75.61 327.15 78.44 348.92 79.11"/><polygon class="cls-9" points="327.15 78.44 325.59 75.61 325.2 75.59 326.77 78.42 327.15 78.44"/><path class="cls-9" d="M497.85,135.13l1.56,2.83a.67.67,0,0,1,.09-.68,2.26,2.26,0,0,1,1.79-.92l-1.57-2.83a2.24,2.24,0,0,0-1.78.92A.65.65,0,0,0,497.85,135.13Z" transform="translate(-174.52 -57.94)"/><path class="cls-9" d="M501.29,136.36a2.26,2.26,0,0,0-1.79.92c-.33.52-.09,1,.56,1h.39l21.76.68,1.23-1.91-21.77-.68Z" transform="translate(-174.52 -57.94)"/></g><g class="cls-1"><polygon class="cls-8" points="350.14 77.21 348.58 74.38 326.81 73.7 328.38 76.53 350.14 77.21"/><path class="cls-8" d="M499.11,133.12l1.56,2.83a.54.54,0,0,1,.06-.58,2.72,2.72,0,0,1,2.17-.9l-1.57-2.83a2.72,2.72,0,0,0-2.17.9A.56.56,0,0,0,499.11,133.12Z" transform="translate(-174.52 -57.94)"/><path class="cls-8" d="M502.9,134.47a2.72,2.72,0,0,0-2.17.9c-.34.52.08,1,.94,1l21.77.68,1.22-1.91Z" transform="translate(-174.52 -57.94)"/></g><g class="cls-1"><polygon class="cls-9" points="351.36 75.31 349.8 72.48 328.03 71.8 329.6 74.63 351.36 75.31"/><polygon class="cls-9" points="329.6 74.63 328.03 71.8 327.65 71.79 329.21 74.62 329.6 74.63"/><path class="cls-9" d="M500.3,131.32l1.56,2.83a.67.67,0,0,1,.1-.69,2.19,2.19,0,0,1,1.77-.9l-1.56-2.83a2.23,2.23,0,0,0-1.78.91A.65.65,0,0,0,500.3,131.32Z" transform="translate(-174.52 -57.94)"/><path class="cls-9" d="M503.73,132.56a2.19,2.19,0,0,0-1.77.9c-.35.54-.1,1,.55,1l.39,0,21.76.67,1.22-1.9-21.76-.67Z" transform="translate(-174.52 -57.94)"/></g><g class="cls-1"><polygon class="cls-8" points="352.59 73.4 351.03 70.57 329.26 69.89 330.82 72.72 352.59 73.4"/><path class="cls-8" d="M501.55,129.31l1.57,2.83a.55.55,0,0,1,.06-.58,2.68,2.68,0,0,1,2.16-.9l-1.56-2.83a2.69,2.69,0,0,0-2.17.91A.53.53,0,0,0,501.55,129.31Z" transform="translate(-174.52 -57.94)"/><path class="cls-8" d="M505.34,130.66a2.68,2.68,0,0,0-2.16.9c-.34.53.08,1,.94,1l21.76.67,1.23-1.9Z" transform="translate(-174.52 -57.94)"/></g><g class="cls-1"><polygon class="cls-9" points="353.82 71.49 352.25 68.66 330.49 67.99 332.05 70.81 353.82 71.49"/><polygon class="cls-9" points="332.05 70.81 330.49 67.99 330.1 67.97 331.67 70.8 332.05 70.81"/><path class="cls-9" d="M502.74,127.51l1.57,2.83a.65.65,0,0,1,.09-.68,2.24,2.24,0,0,1,1.79-.92l-1.57-2.83a2.25,2.25,0,0,0-1.78.92A.68.68,0,0,0,502.74,127.51Z" transform="translate(-174.52 -57.94)"/><path class="cls-9" d="M506.19,128.74a2.24,2.24,0,0,0-1.79.92c-.33.52-.09,1,.56,1h.38l21.77.68,1.23-1.91-21.77-.68Z" transform="translate(-174.52 -57.94)"/></g><g class="cls-1"><polygon class="cls-8" points="355.04 69.59 353.47 66.76 331.71 66.09 333.27 68.92 355.04 69.59"/><path class="cls-8" d="M504,125.5l1.56,2.83a.55.55,0,0,1,.06-.57,2.72,2.72,0,0,1,2.17-.91L506.23,124a2.72,2.72,0,0,0-2.17.91A.53.53,0,0,0,504,125.5Z" transform="translate(-174.52 -57.94)"/><path class="cls-8" d="M507.79,126.85a2.72,2.72,0,0,0-2.17.91c-.33.52.09,1,.95,1l21.77.68,1.22-1.9Z" transform="translate(-174.52 -57.94)"/></g><g class="cls-1"><polygon class="cls-9" points="356.26 67.69 354.7 64.86 332.93 64.18 334.5 67.01 356.26 67.69"/><polygon class="cls-9" points="334.5 67.01 332.93 64.18 332.55 64.17 334.11 67 334.5 67.01"/><path class="cls-9" d="M505.19,123.7l1.57,2.83a.65.65,0,0,1,.09-.68,2.25,2.25,0,0,1,1.78-.92l-1.56-2.83a2.27,2.27,0,0,0-1.79.92A.67.67,0,0,0,505.19,123.7Z" transform="translate(-174.52 -57.94)"/><path class="cls-9" d="M508.63,124.93a2.25,2.25,0,0,0-1.78.92c-.34.52-.1,1,.56,1h.38l21.77.68,1.22-1.91L509,125Z" transform="translate(-174.52 -57.94)"/></g><g class="cls-1"><polygon class="cls-8" points="357.49 65.78 355.92 62.95 334.16 62.27 335.72 65.1 357.49 65.78"/><path class="cls-8" d="M506.45,121.7l1.56,2.82a.55.55,0,0,1,.06-.58,2.72,2.72,0,0,1,2.17-.9l-1.56-2.83a2.72,2.72,0,0,0-2.17.9A.56.56,0,0,0,506.45,121.7Z" transform="translate(-174.52 -57.94)"/><path class="cls-8" d="M510.24,123a2.72,2.72,0,0,0-2.17.9c-.34.54.09,1,.95,1l21.76.67,1.23-1.9Z" transform="translate(-174.52 -57.94)"/></g><g class="cls-1"><polygon class="cls-9" points="358.71 63.88 357.14 61.05 335 60.36 336.56 63.19 358.71 63.88"/><path class="cls-9" d="M507.64,119.89l1.56,2.83a.67.67,0,0,1,.09-.68,2.26,2.26,0,0,1,1.79-.91l-1.57-2.83a2.21,2.21,0,0,0-1.78.92A.63.63,0,0,0,507.64,119.89Z" transform="translate(-174.52 -57.94)"/><path class="cls-9" d="M511.08,121.13a2.26,2.26,0,0,0-1.79.91c-.33.53-.09,1,.57,1h.38l21.77.68,1.22-1.9Z" transform="translate(-174.52 -57.94)"/></g><g class="cls-1"><polygon class="cls-10" points="342.33 95.91 340.76 93.08 319 92.4 320.56 95.23 342.33 95.91"/><path class="cls-10" d="M491.29,151.82l1.57,2.83a.54.54,0,0,1,.05-.58,2.72,2.72,0,0,1,2.17-.9l-1.56-2.83a2.68,2.68,0,0,0-2.17.91A.53.53,0,0,0,491.29,151.82Z" transform="translate(-174.52 -57.94)"/><path class="cls-10" d="M495.08,153.17a2.72,2.72,0,0,0-2.17.9c-.33.53.08,1,.95,1l21.76.67,1.23-1.9Z" transform="translate(-174.52 -57.94)"/></g><polygon class="cls-8" points="343.55 94.01 341.98 91.18 320.22 90.5 321.78 93.33 343.55 94.01"/><polygon class="cls-8" points="321.78 93.33 320.22 90.5 319.83 90.49 321.4 93.32 321.78 93.33"/><path class="cls-8" d="M492.48,150l1.56,2.83a.67.67,0,0,1,.09-.68,2.25,2.25,0,0,1,1.79-.91l-1.57-2.83a2.21,2.21,0,0,0-1.78.92A.63.63,0,0,0,492.48,150Z" transform="translate(-174.52 -57.94)"/><path class="cls-8" d="M495.92,151.26a2.25,2.25,0,0,0-1.79.91c-.33.53-.09,1,.57,1h.38l21.77.68,1.22-1.9-21.77-.68Z" transform="translate(-174.52 -57.94)"/><g class="cls-1"><polygon class="cls-10" points="344.77 92.1 343.21 89.27 321.44 88.6 323.01 91.42 344.77 92.1"/><path class="cls-10" d="M493.74,148l1.56,2.83a.54.54,0,0,1,.06-.58,2.72,2.72,0,0,1,2.17-.91L496,146.53a2.75,2.75,0,0,0-2.17.91A.56.56,0,0,0,493.74,148Z" transform="translate(-174.52 -57.94)"/><path class="cls-10" d="M497.53,149.36a2.72,2.72,0,0,0-2.17.91c-.34.52.08,1,.94,1l21.77.68,1.22-1.91Z" transform="translate(-174.52 -57.94)"/></g><polygon class="cls-8" points="346 90.19 344.44 87.36 322.67 86.69 324.23 89.52 346 90.19"/><polygon class="cls-8" points="324.23 89.52 322.67 86.69 322.29 86.68 323.85 89.5 324.23 89.52"/><path class="cls-8" d="M494.93,146.21l1.56,2.83a.66.66,0,0,1,.1-.68,2.25,2.25,0,0,1,1.78-.92l-1.56-2.83a2.27,2.27,0,0,0-1.79.92A.65.65,0,0,0,494.93,146.21Z" transform="translate(-174.52 -57.94)"/><path class="cls-8" d="M498.37,147.44a2.25,2.25,0,0,0-1.78.92c-.35.53-.1,1,.55,1h.39l21.76.68,1.23-1.91-21.77-.68Z" transform="translate(-174.52 -57.94)"/><g class="cls-1"><polygon class="cls-10" points="347.22 88.3 345.66 85.47 323.89 84.79 325.45 87.62 347.22 88.3"/><path class="cls-10" d="M496.18,144.2l1.57,2.83a.53.53,0,0,1,.06-.57,2.66,2.66,0,0,1,2.16-.9l-1.56-2.83a2.69,2.69,0,0,0-2.17.9A.55.55,0,0,0,496.18,144.2Z" transform="translate(-174.52 -57.94)"/><path class="cls-10" d="M500,145.56a2.66,2.66,0,0,0-2.16.9c-.34.52.08,1,.94,1l21.77.68,1.22-1.9Z" transform="translate(-174.52 -57.94)"/></g><polygon class="cls-8" points="348.45 86.39 346.88 83.56 325.12 82.88 326.68 85.71 348.45 86.39"/><polygon class="cls-8" points="326.68 85.71 325.12 82.88 324.73 82.87 326.3 85.7 326.68 85.71"/><path class="cls-8" d="M497.37,142.41l1.57,2.83a.67.67,0,0,1,.09-.69,2.26,2.26,0,0,1,1.79-.91l-1.57-2.83a2.24,2.24,0,0,0-1.78.91A.7.7,0,0,0,497.37,142.41Z" transform="translate(-174.52 -57.94)"/><path class="cls-8" d="M500.82,143.64a2.26,2.26,0,0,0-1.79.91c-.34.53-.09,1,.56,1l.38,0,21.77.67,1.23-1.9-21.77-.68Z" transform="translate(-174.52 -57.94)"/><g class="cls-1"><polygon class="cls-10" points="349.67 84.49 348.1 81.66 326.34 80.98 327.9 83.81 349.67 84.49"/><path class="cls-10" d="M498.63,140.4l1.57,2.83a.54.54,0,0,1,.06-.58,2.65,2.65,0,0,1,2.16-.9l-1.56-2.83a2.69,2.69,0,0,0-2.17.9A.54.54,0,0,0,498.63,140.4Z" transform="translate(-174.52 -57.94)"/><path class="cls-10" d="M502.42,141.75a2.65,2.65,0,0,0-2.16.9c-.34.53.08,1,.94,1l21.77.68,1.22-1.9Z" transform="translate(-174.52 -57.94)"/></g><polygon class="cls-8" points="350.89 82.58 349.33 79.75 327.56 79.08 329.13 81.9 350.89 82.58"/><polygon class="cls-8" points="329.13 81.9 327.56 79.08 327.18 79.06 328.74 81.89 329.13 81.9"/><path class="cls-8" d="M499.82,138.6l1.57,2.83a.65.65,0,0,1,.09-.68,2.21,2.21,0,0,1,1.78-.92L501.7,137a2.24,2.24,0,0,0-1.79.92A.67.67,0,0,0,499.82,138.6Z" transform="translate(-174.52 -57.94)"/><path class="cls-8" d="M503.26,139.83a2.21,2.21,0,0,0-1.78.92c-.34.52-.1,1,.56,1h.38l21.77.68,1.22-1.91-21.76-.68Z" transform="translate(-174.52 -57.94)"/><g class="cls-1"><polygon class="cls-10" points="352.12 80.67 350.55 77.84 328.79 77.17 330.35 80 352.12 80.67"/><path class="cls-10" d="M501.08,136.59l1.57,2.83a.54.54,0,0,1,.05-.58,2.75,2.75,0,0,1,2.17-.91l-1.56-2.83a2.75,2.75,0,0,0-2.17.91A.54.54,0,0,0,501.08,136.59Z" transform="translate(-174.52 -57.94)"/><path class="cls-10" d="M504.87,137.93a2.75,2.75,0,0,0-2.17.91c-.33.52.09,1,.95,1l21.76.68,1.23-1.91Z" transform="translate(-174.52 -57.94)"/></g><polygon class="cls-8" points="353.34 78.77 351.77 75.95 330.01 75.27 331.57 78.1 353.34 78.77"/><polygon class="cls-8" points="331.57 78.1 330.01 75.27 329.63 75.26 331.19 78.08 331.57 78.1"/><path class="cls-8" d="M502.27,134.79l1.56,2.83a.7.7,0,0,1,.1-.69,2.26,2.26,0,0,1,1.78-.91l-1.57-2.83a2.26,2.26,0,0,0-1.78.91A.69.69,0,0,0,502.27,134.79Z" transform="translate(-174.52 -57.94)"/><path class="cls-8" d="M505.71,136a2.26,2.26,0,0,0-1.78.91c-.34.53-.1,1,.56,1h.38l21.77.68,1.22-1.9L506.09,136Z" transform="translate(-174.52 -57.94)"/><g class="cls-1"><polygon class="cls-10" points="354.56 76.87 353 74.04 331.23 73.36 332.8 76.19 354.56 76.87"/><path class="cls-10" d="M503.53,132.78l1.56,2.83a.54.54,0,0,1,.06-.58,2.72,2.72,0,0,1,2.17-.9l-1.57-2.83a2.68,2.68,0,0,0-2.16.9A.55.55,0,0,0,503.53,132.78Z" transform="translate(-174.52 -57.94)"/><path class="cls-10" d="M507.32,134.13a2.72,2.72,0,0,0-2.17.9c-.34.53.08,1,.94,1l21.77.68,1.22-1.91Z" transform="translate(-174.52 -57.94)"/></g><polygon class="cls-8" points="355.79 74.96 354.23 72.13 332.46 71.45 334.02 74.28 355.79 74.96"/><polygon class="cls-8" points="334.02 74.28 332.46 71.45 332.08 71.44 333.64 74.27 334.02 74.28"/><path class="cls-8" d="M504.72,131l1.56,2.83a.67.67,0,0,1,.1-.69,2.24,2.24,0,0,1,1.78-.91l-1.56-2.83a2.24,2.24,0,0,0-1.79.92A.65.65,0,0,0,504.72,131Z" transform="translate(-174.52 -57.94)"/><path class="cls-8" d="M508.16,132.21a2.24,2.24,0,0,0-1.78.91c-.34.53-.1,1,.55,1h.39l21.76.67,1.23-1.9-21.77-.68Z" transform="translate(-174.52 -57.94)"/><g class="cls-1"><polygon class="cls-10" points="357.01 73.06 355.45 70.23 333.68 69.55 335.25 72.38 357.01 73.06"/><path class="cls-10" d="M506,129l1.57,2.83a.53.53,0,0,1,.06-.57,2.64,2.64,0,0,1,2.16-.91l-1.56-2.83a2.69,2.69,0,0,0-2.17.91A.55.55,0,0,0,506,129Z" transform="translate(-174.52 -57.94)"/><path class="cls-10" d="M509.76,130.32a2.64,2.64,0,0,0-2.16.91c-.34.52.08,1,.94,1l21.77.68,1.22-1.9Z" transform="translate(-174.52 -57.94)"/></g><polygon class="cls-8" points="358.24 71.15 356.67 68.32 334.91 67.65 336.47 70.47 358.24 71.15"/><polygon class="cls-8" points="336.47 70.47 334.91 67.65 334.52 67.64 336.09 70.46 336.47 70.47"/><path class="cls-8" d="M507.17,127.17l1.56,2.83a.65.65,0,0,1,.09-.68,2.27,2.27,0,0,1,1.79-.92L509,125.57a2.25,2.25,0,0,0-1.78.92A.65.65,0,0,0,507.17,127.17Z" transform="translate(-174.52 -57.94)"/><path class="cls-8" d="M510.61,128.4a2.27,2.27,0,0,0-1.79.92c-.33.52-.09,1,.56,1h.38l21.77.68,1.23-1.91L511,128.41Z" transform="translate(-174.52 -57.94)"/><g class="cls-1"><polygon class="cls-10" points="359.46 69.25 357.9 66.42 336.13 65.74 337.7 68.57 359.46 69.25"/><path class="cls-10" d="M508.42,125.16,510,128a.55.55,0,0,1,.06-.58,2.7,2.7,0,0,1,2.17-.9l-1.57-2.83a2.72,2.72,0,0,0-2.17.9A.55.55,0,0,0,508.42,125.16Z" transform="translate(-174.52 -57.94)"/><path class="cls-10" d="M512.22,126.51a2.7,2.7,0,0,0-2.17.9c-.34.53.08,1,.94,1l21.77.68,1.22-1.91Z" transform="translate(-174.52 -57.94)"/></g><polygon class="cls-8" points="360.68 67.35 359.12 64.52 336.97 63.83 338.53 66.66 360.68 67.35"/><path class="cls-8" d="M509.61,123.36l1.57,2.83a.65.65,0,0,1,.09-.68,2.24,2.24,0,0,1,1.78-.92l-1.56-2.82a2.26,2.26,0,0,0-1.79.91A.67.67,0,0,0,509.61,123.36Z" transform="translate(-174.52 -57.94)"/><path class="cls-8" d="M513.05,124.59a2.24,2.24,0,0,0-1.78.92c-.34.53-.09,1,.56,1l.39,0,21.76.67,1.22-1.9Z" transform="translate(-174.52 -57.94)"/><g class="cls-1"><polygon class="cls-8" points="344.37 99.64 342.81 96.81 321.04 96.13 322.6 98.96 344.37 99.64"/><path class="cls-8" d="M493.33,155.55l1.57,2.83a.56.56,0,0,1,.05-.58,2.75,2.75,0,0,1,2.17-.91l-1.56-2.82a2.72,2.72,0,0,0-2.17.9A.54.54,0,0,0,493.33,155.55Z" transform="translate(-174.52 -57.94)"/><path class="cls-8" d="M497.12,156.89a2.75,2.75,0,0,0-2.17.91c-.33.52.09,1,.95,1l21.76.68,1.23-1.91Z" transform="translate(-174.52 -57.94)"/></g><g class="cls-1"><polygon class="cls-9" points="345.59 97.73 344.02 94.91 322.26 94.23 323.82 97.06 345.59 97.73"/><polygon class="cls-9" points="323.82 97.06 322.26 94.23 321.88 94.22 323.44 97.05 323.82 97.06"/><path class="cls-9" d="M494.52,153.75l1.56,2.83a.67.67,0,0,1,.09-.68A2.27,2.27,0,0,1,498,155l-1.56-2.82a2.21,2.21,0,0,0-1.79.91A.65.65,0,0,0,494.52,153.75Z" transform="translate(-174.52 -57.94)"/><path class="cls-9" d="M498,155a2.27,2.27,0,0,0-1.79.92c-.33.52-.08,1,.57,1h.38l21.77.68,1.22-1.9L498.34,155Z" transform="translate(-174.52 -57.94)"/></g><g class="cls-1"><polygon class="cls-8" points="346.81 95.83 345.25 93 323.49 92.32 325.05 95.15 346.81 95.83"/><path class="cls-8" d="M495.78,151.74l1.56,2.83a.55.55,0,0,1,.06-.58,2.72,2.72,0,0,1,2.17-.9L498,150.26a2.68,2.68,0,0,0-2.16.9A.55.55,0,0,0,495.78,151.74Z" transform="translate(-174.52 -57.94)"/><path class="cls-8" d="M499.57,153.09a2.72,2.72,0,0,0-2.17.9c-.34.53.08,1,.94,1l21.77.67,1.22-1.9Z" transform="translate(-174.52 -57.94)"/></g><g class="cls-1"><polygon class="cls-9" points="348.04 93.92 346.48 91.09 324.71 90.41 326.27 93.24 348.04 93.92"/><polygon class="cls-9" points="326.27 93.24 324.71 90.41 324.33 90.4 325.89 93.23 326.27 93.24"/><path class="cls-9" d="M497,149.94l1.56,2.83a.66.66,0,0,1,.1-.68,2.22,2.22,0,0,1,1.78-.92l-1.56-2.83a2.24,2.24,0,0,0-1.79.92A.65.65,0,0,0,497,149.94Z" transform="translate(-174.52 -57.94)"/><path class="cls-9" d="M500.41,151.17a2.22,2.22,0,0,0-1.78.92c-.35.53-.1,1,.56,1h.38l21.76.68,1.23-1.91-21.77-.68Z" transform="translate(-174.52 -57.94)"/></g><g class="cls-1"><polygon class="cls-8" points="349.26 92.02 347.7 89.19 325.93 88.52 327.5 91.34 349.26 92.02"/><path class="cls-8" d="M498.23,147.93l1.56,2.83a.53.53,0,0,1,.06-.57,2.68,2.68,0,0,1,2.17-.91l-1.57-2.83a2.72,2.72,0,0,0-2.17.91A.52.52,0,0,0,498.23,147.93Z" transform="translate(-174.52 -57.94)"/><path class="cls-8" d="M502,149.28a2.68,2.68,0,0,0-2.17.91c-.34.52.08,1,.94,1l21.77.68,1.22-1.9Z" transform="translate(-174.52 -57.94)"/></g><g class="cls-1"><polygon class="cls-9" points="350.49 90.11 348.92 87.28 327.16 86.61 328.72 89.44 350.49 90.11"/><polygon class="cls-9" points="328.72 89.44 327.16 86.61 326.77 86.6 328.34 89.42 328.72 89.44"/><path class="cls-9" d="M499.42,146.13,501,149a.65.65,0,0,1,.09-.68,2.27,2.27,0,0,1,1.79-.92l-1.57-2.83a2.25,2.25,0,0,0-1.78.92A.65.65,0,0,0,499.42,146.13Z" transform="translate(-174.52 -57.94)"/><path class="cls-9" d="M502.86,147.36a2.27,2.27,0,0,0-1.79.92c-.33.52-.09,1,.56,1H502l21.76.68,1.23-1.91-21.77-.68Z" transform="translate(-174.52 -57.94)"/></g><g class="cls-1"><polygon class="cls-8" points="351.71 88.22 350.14 85.39 328.38 84.71 329.94 87.54 351.71 88.22"/><path class="cls-8" d="M500.67,144.12l1.57,2.83a.55.55,0,0,1,.06-.58,2.68,2.68,0,0,1,2.16-.89l-1.56-2.83a2.71,2.71,0,0,0-2.17.89A.57.57,0,0,0,500.67,144.12Z" transform="translate(-174.52 -57.94)"/><path class="cls-8" d="M504.46,145.48a2.68,2.68,0,0,0-2.16.89c-.34.53.08,1,.94,1l21.77.68,1.22-1.9Z" transform="translate(-174.52 -57.94)"/></g><g class="cls-1"><polygon class="cls-9" points="352.93 86.31 351.37 83.48 329.6 82.8 331.17 85.63 352.93 86.31"/><polygon class="cls-9" points="331.17 85.63 329.6 82.8 329.22 82.79 330.78 85.62 331.17 85.63"/><path class="cls-9" d="M501.86,142.33l1.57,2.83a.67.67,0,0,1,.09-.69,2.23,2.23,0,0,1,1.78-.91l-1.56-2.83a2.26,2.26,0,0,0-1.79.91A.69.69,0,0,0,501.86,142.33Z" transform="translate(-174.52 -57.94)"/><path class="cls-9" d="M505.3,143.56a2.23,2.23,0,0,0-1.78.91c-.34.53-.1,1,.56,1l.38,0,21.77.67,1.22-1.91-21.76-.67Z" transform="translate(-174.52 -57.94)"/></g><g class="cls-1"><polygon class="cls-8" points="354.16 84.4 352.6 81.57 330.83 80.89 332.39 83.72 354.16 84.4"/><path class="cls-8" d="M503.12,140.32l1.57,2.82a.54.54,0,0,1,.05-.57,2.69,2.69,0,0,1,2.17-.91l-1.56-2.83a2.69,2.69,0,0,0-2.17.91A.54.54,0,0,0,503.12,140.32Z" transform="translate(-174.52 -57.94)"/><path class="cls-8" d="M506.91,141.66a2.69,2.69,0,0,0-2.17.91c-.33.52.09,1,.95,1l21.76.67,1.23-1.9Z" transform="translate(-174.52 -57.94)"/></g><g class="cls-1"><polygon class="cls-9" points="355.38 82.5 353.82 79.67 332.05 79 333.61 81.82 355.38 82.5"/><polygon class="cls-9" points="333.61 81.82 332.05 79 331.67 78.98 333.23 81.81 333.61 81.82"/><path class="cls-9" d="M504.31,138.51l1.57,2.83a.65.65,0,0,1,.09-.68,2.23,2.23,0,0,1,1.78-.91l-1.56-2.83a2.23,2.23,0,0,0-1.78.91A.66.66,0,0,0,504.31,138.51Z" transform="translate(-174.52 -57.94)"/><path class="cls-9" d="M507.75,139.75a2.23,2.23,0,0,0-1.78.91c-.34.53-.09,1,.56,1h.38l21.77.68,1.22-1.9-21.77-.68Z" transform="translate(-174.52 -57.94)"/></g><g class="cls-1"><polygon class="cls-8" points="356.61 80.59 355.04 77.76 333.28 77.09 334.84 79.92 356.61 80.59"/><path class="cls-8" d="M505.57,136.51l1.56,2.83a.54.54,0,0,1,.06-.58,2.75,2.75,0,0,1,2.17-.91L507.8,135a2.72,2.72,0,0,0-2.17.91A.54.54,0,0,0,505.57,136.51Z" transform="translate(-174.52 -57.94)"/><path class="cls-8" d="M509.36,137.85a2.75,2.75,0,0,0-2.17.91c-.34.52.08,1,.94,1l21.77.68,1.23-1.91Z" transform="translate(-174.52 -57.94)"/></g><g class="cls-1"><polygon class="cls-9" points="357.83 78.69 356.27 75.86 334.5 75.18 336.07 78.01 357.83 78.69"/><polygon class="cls-9" points="336.07 78.01 334.5 75.18 334.12 75.17 335.68 78 336.07 78.01"/><path class="cls-9" d="M506.76,134.7l1.56,2.83a.68.68,0,0,1,.1-.68,2.25,2.25,0,0,1,1.78-.92l-1.56-2.82a2.23,2.23,0,0,0-1.79.91A.65.65,0,0,0,506.76,134.7Z" transform="translate(-174.52 -57.94)"/><path class="cls-9" d="M510.2,135.93a2.25,2.25,0,0,0-1.78.92c-.34.52-.1,1,.56,1h.38l21.77.68,1.22-1.91L510.59,136Z" transform="translate(-174.52 -57.94)"/></g><g class="cls-1"><polygon class="cls-8" points="359.05 76.79 357.49 73.96 335.72 73.28 337.29 76.11 359.05 76.79"/><path class="cls-8" d="M508,132.7l1.56,2.82a.53.53,0,0,1,.06-.57,2.69,2.69,0,0,1,2.17-.9l-1.57-2.83a2.69,2.69,0,0,0-2.17.9A.56.56,0,0,0,508,132.7Z" transform="translate(-174.52 -57.94)"/><path class="cls-8" d="M511.81,134.05a2.69,2.69,0,0,0-2.17.9c-.34.53.08,1,.95,1l21.76.67,1.22-1.9Z" transform="translate(-174.52 -57.94)"/></g><g class="cls-1"><polygon class="cls-9" points="360.28 74.88 358.71 72.05 336.95 71.37 338.51 74.2 360.28 74.88"/><polygon class="cls-9" points="338.51 74.2 336.95 71.37 336.56 71.36 338.13 74.19 338.51 74.2"/><path class="cls-9" d="M509.21,130.9l1.56,2.83a.69.69,0,0,1,.09-.69,2.26,2.26,0,0,1,1.79-.91l-1.57-2.83a2.24,2.24,0,0,0-1.78.92A.65.65,0,0,0,509.21,130.9Z" transform="translate(-174.52 -57.94)"/><path class="cls-9" d="M512.65,132.13a2.26,2.26,0,0,0-1.79.91c-.33.53-.09,1,.56,1l.39,0,21.76.67,1.23-1.9L513,132.14Z" transform="translate(-174.52 -57.94)"/></g><g class="cls-1"><polygon class="cls-8" points="361.5 72.97 359.94 70.14 338.17 69.47 339.74 72.29 361.5 72.97"/><path class="cls-8" d="M510.46,128.89l1.57,2.83a.54.54,0,0,1,.06-.58,2.69,2.69,0,0,1,2.17-.91l-1.57-2.83a2.75,2.75,0,0,0-2.17.91A.57.57,0,0,0,510.46,128.89Z" transform="translate(-174.52 -57.94)"/><path class="cls-8" d="M514.26,130.23a2.69,2.69,0,0,0-2.17.91c-.34.53.08,1,.94,1l21.77.68,1.22-1.91Z" transform="translate(-174.52 -57.94)"/></g><g class="cls-1"><polygon class="cls-9" points="362.72 71.07 361.16 68.24 339.01 67.55 340.57 70.38 362.72 71.07"/><path class="cls-9" d="M511.65,127.08l1.57,2.83a.63.63,0,0,1,.09-.67,2.24,2.24,0,0,1,1.78-.92l-1.56-2.83a2.24,2.24,0,0,0-1.78.92A.66.66,0,0,0,511.65,127.08Z" transform="translate(-174.52 -57.94)"/><path class="cls-9" d="M515.09,128.32a2.24,2.24,0,0,0-1.78.92c-.34.52-.09,1,.56,1h.39l21.76.68,1.22-1.9Z" transform="translate(-174.52 -57.94)"/></g><g class="cls-1"><path class="cls-5" d="M506.46,121.69l.24.46a2.22,2.22,0,0,0-1.42.87.67.67,0,0,0-.09.68l.23.42a2.29,2.29,0,0,0-1.36.81.53.53,0,0,0-.06.57l.25.45a2.29,2.29,0,0,0-1.42.88.69.69,0,0,0-.09.68l.23.41a2.35,2.35,0,0,0-1.36.82.54.54,0,0,0-.05.58l.25.45a2.16,2.16,0,0,0-1.42.87.63.63,0,0,0-.09.68l.22.41a2.29,2.29,0,0,0-1.35.82.54.54,0,0,0-.06.58l.24.44a2.24,2.24,0,0,0-1.42.88.72.72,0,0,0-.09.69l.23.41a2.22,2.22,0,0,0-1.35.81.53.53,0,0,0-.07.57l.25.46a2.19,2.19,0,0,0-1.41.86.65.65,0,0,0-.09.68l.24.42a2.32,2.32,0,0,0-1.37.81.6.6,0,0,0-.07.58l.25.45a2.19,2.19,0,0,0-1.4.87.67.67,0,0,0-.1.69l.23.42a2.27,2.27,0,0,0-1.35.8.53.53,0,0,0-.06.58l.26.45a2.2,2.2,0,0,0-1.44.88.63.63,0,0,0-.08.67l.24.42a2.24,2.24,0,0,0-1.37.81.53.53,0,0,0-.07.57l1.52,2.72a.66.66,0,0,0,.41.41.54.54,0,0,0,.05.34l1.52,2.72a.72.72,0,0,0,.56.46.55.55,0,0,0,0,.55l1.55,2.83a.08.08,0,0,1,0-.07c.09.28.47.48,1,.49l21.77.68,1.21-1.9,1.23-1.9,1.22-1.91,1.23-1.91,1.22-1.9,1.23-1.91,1.21-1.9,1.24-1.9,1.22-1.92,1.22-1.89,1.23-1.91,1.23-1.91,1.21-1.9,1.23-1.9,1.22-1.91,1.22-1.89-1.56-2.85-1,0,.56-.86-1.56-2.83-.8,0,.4-.6L531.66,119l-22.14-.69a2.23,2.23,0,0,0-1.79.91.67.67,0,0,0-.09.69l.22.41a2.33,2.33,0,0,0-1.35.8A.52.52,0,0,0,506.46,121.69Z" transform="translate(-174.52 -57.94)"/></g><g class="cls-1"><path class="cls-11" d="M399.7,301.22l20.91-39a1.78,1.78,0,0,1-1.43.79,5.48,5.48,0,0,1-4.49-1.86,1.66,1.66,0,0,1-.41-1.6h0l-15.7,41.23a.29.29,0,0,0,.07.28,1,1,0,0,0,.79.33A.35.35,0,0,0,399.7,301.22Z" transform="translate(-174.52 -57.94)"/><path class="cls-12" d="M421.92,262.66l13.78-30.19a2.43,2.43,0,0,1-2.05,1.2,7.72,7.72,0,0,1-6.31-2.61,2.26,2.26,0,0,1-.53-2.33L413,258.92a2.26,2.26,0,0,0,.54,2.33,7.7,7.7,0,0,0,6.3,2.61A2.42,2.42,0,0,0,421.92,262.66Z" transform="translate(-174.52 -57.94)"/><path class="cls-12" d="M433.65,233.67a7.72,7.72,0,0,1-6.31-2.61c-1.32-1.69-.64-3.27,1.52-3.53a7.7,7.7,0,0,1,6.3,2.61C436.48,231.83,435.81,233.41,433.65,233.67Zm1-3.47a6.72,6.72,0,0,0-5.48-2.27c-1.87.23-2.46,1.6-1.32,3.07a6.69,6.69,0,0,0,5.48,2.26c1.88-.22,2.47-1.59,1.32-3.06" transform="translate(-174.52 -57.94)"/></g><g class="cls-1"><path class="cls-11" d="M435.11,232.23l22.59-49.5a2.1,2.1,0,0,1-1.78,1,6.71,6.71,0,0,1-5.48-2.26,2,2,0,0,1-.47-2L427.39,229a2,2,0,0,0,.46,2,6.69,6.69,0,0,0,5.48,2.26A2.06,2.06,0,0,0,435.11,232.23Z" transform="translate(-174.52 -57.94)"/></g><g class="cls-1"><path class="cls-12" d="M458.28,183l13.77-30.18A2.39,2.39,0,0,1,470,154a7.69,7.69,0,0,1-6.3-2.6,2.28,2.28,0,0,1-.54-2.34l-13.77,30.19a2.28,2.28,0,0,0,.53,2.33,7.72,7.72,0,0,0,6.31,2.6A2.41,2.41,0,0,0,458.28,183Z" transform="translate(-174.52 -57.94)"/><ellipse class="cls-12" cx="467.61" cy="150.93" rx="2.72" ry="4.82" transform="translate(-22.39 469.7) rotate(-67.94)"/></g><g class="cls-1"><path class="cls-11" d="M470.8,152.19q7.86-20.61,15.71-41.23a.3.3,0,0,1-.26.16,1,1,0,0,1-.8-.33.28.28,0,0,1-.06-.3h0q-10.45,19.52-20.92,39a1.59,1.59,0,0,0,.35,1.73,5.51,5.51,0,0,0,4.49,1.85A1.65,1.65,0,0,0,470.8,152.19Z" transform="translate(-174.52 -57.94)"/></g><g class="cls-1"><path class="cls-5" d="M413.61,261.31q-7.53,19.71-15,39.43a.36.36,0,0,0,.07.29,1,1,0,0,0,.8.33c.14,0,.21-.06.25-.15q10-18.68,20-37.33A7.8,7.8,0,0,1,413.61,261.31Z" transform="translate(-174.52 -57.94)"/><path class="cls-5" d="M426.79,228.78,413,258.92a2.28,2.28,0,0,0,.53,2.33l.05.06a7.8,7.8,0,0,0,6.1,2.57l.16,0a2.41,2.41,0,0,0,2.05-1.2l13.75-30.16a1.93,1.93,0,0,1-1.09.95,2.29,2.29,0,0,1-.28.09,4.06,4.06,0,0,1-.66.13,7.68,7.68,0,0,1-6.29-2.61,2.76,2.76,0,0,1-.67-1.59.67.67,0,0,1,0-.2A1.21,1.21,0,0,1,426.79,228.78Z" transform="translate(-174.52 -57.94)"/><path class="cls-5" d="M426.79,228.78a1.21,1.21,0,0,0-.11.49.45.45,0,0,0,0,.2,2.76,2.76,0,0,0,.67,1.59,7.68,7.68,0,0,0,6.29,2.61,4.06,4.06,0,0,0,.66-.13l.28-.09a1.94,1.94,0,0,0,1.09-.94h0a1.77,1.77,0,0,0,0-1.48l-.54,1.16a1.06,1.06,0,0,1-.11.21,1.47,1.47,0,0,1-.49.47.35.35,0,0,1-.16.09.52.52,0,0,1-.22.12l-.25.08a4.22,4.22,0,0,1-.58.12,6.72,6.72,0,0,1-5.47-2.27,2.26,2.26,0,0,1-.25-.38.31.31,0,0,1,0-.06,2.14,2.14,0,0,1-.16-.39.8.8,0,0,1-.09-.26,1,1,0,0,1,0-.25,1,1,0,0,1,0-.34,1.22,1.22,0,0,1,.08-.3.08.08,0,0,1,0-.05l.56-1.22A1.88,1.88,0,0,0,426.79,228.78Z" transform="translate(-174.52 -57.94)"/></g><g class="cls-1"><path class="cls-5" d="M449.42,180.7,428,227.75l-.56,1.22a.08.08,0,0,0,0,.05,1.22,1.22,0,0,0-.08.3,1.29,1.29,0,0,0,0,.34,1,1,0,0,0,0,.25.8.8,0,0,0,.09.26,2.14,2.14,0,0,0,.16.39.31.31,0,0,0,0,.06,1.78,1.78,0,0,0,.25.38,6.72,6.72,0,0,0,5.47,2.27,4.22,4.22,0,0,0,.58-.12l.25-.08a.52.52,0,0,0,.22-.12.35.35,0,0,0,.16-.09,1.47,1.47,0,0,0,.49-.47,1.06,1.06,0,0,0,.11-.21l.54-1.16L457.13,184a4.57,4.57,0,0,1-.9.21,7.75,7.75,0,0,1-6.31-2.61A3.4,3.4,0,0,1,449.42,180.7Z" transform="translate(-174.52 -57.94)"/><path class="cls-5" d="M435.11,232.23l0,0a1.06,1.06,0,0,1-.11.21A.61.61,0,0,0,435.11,232.23Z" transform="translate(-174.52 -57.94)"/></g><g class="cls-1"><path class="cls-5" d="M463.14,149.12l-13.75,30.11a1.8,1.8,0,0,0,0,1.47,3.4,3.4,0,0,0,.5.87,7.75,7.75,0,0,0,6.31,2.61,4.57,4.57,0,0,0,.9-.21,2,2,0,0,0,1.15-1L472,152.92l-.06.08a1,1,0,0,1-.16.2.22.22,0,0,1-.06.07,2.26,2.26,0,0,1-.29.25,3,3,0,0,1-.77.35,5.06,5.06,0,0,1-.65.12,7.67,7.67,0,0,1-6.3-2.6,3,3,0,0,1-.65-1.37,1.19,1.19,0,0,1,0-.32,1.29,1.29,0,0,1,0-.29A.81.81,0,0,1,463.14,149.12Z" transform="translate(-174.52 -57.94)"/><path class="cls-5" d="M463.16,149.06s0,0,0,.06a.81.81,0,0,0-.09.29,1.43,1.43,0,0,0,0,.29,1.19,1.19,0,0,0,0,.32,3,3,0,0,0,.65,1.37A7.67,7.67,0,0,0,470,154a5.06,5.06,0,0,0,.65-.12,3,3,0,0,0,.77-.35,2.26,2.26,0,0,0,.29-.25.22.22,0,0,0,.06-.07,1,1,0,0,0,.16-.2l.06-.08a2.23,2.23,0,0,0-.48-2.46l0,0c-.23.59-.45,1.18-.67,1.76a1.7,1.7,0,0,1-1.49.93,5.57,5.57,0,0,1-4.51-1.86,1.61,1.61,0,0,1-.34-1.73l.9-1.69-.15,0A2.39,2.39,0,0,0,463.16,149.06Z" transform="translate(-174.52 -57.94)"/></g><g class="cls-1"><path class="cls-5" d="M485.39,110.49c-6.37,11.88-12.75,23.77-20,37.35l-.9,1.69a1.61,1.61,0,0,0,.34,1.73,5.57,5.57,0,0,0,4.51,1.86,1.7,1.7,0,0,0,1.49-.93c.22-.58.44-1.17.67-1.76q7.5-19.74,15-39.47a.33.33,0,0,1-.27.16,1,1,0,0,1-.79-.33A.28.28,0,0,1,485.39,110.49Z" transform="translate(-174.52 -57.94)"/></g><g class="cls-1"><path class="cls-9" d="M477.46,72.67l-.12-.18a13.25,13.25,0,0,0-6.62,5.65c-5.48,8.44-6,22.4-1.05,31.2,2.54,4.56,6,6.85,9.54,6.82C484.62,102.71,484.15,84.7,477.46,72.67Z" transform="translate(-174.52 -57.94)"/><path class="cls-13" d="M477.34,72.48l.12.19c6.69,12,7.15,30.05,1.75,43.49,3.29,0,6.62-2.06,9.27-6.13,5.48-8.42,6-22.38,1-31.2C486.35,73.13,481.71,71,477.34,72.48Z" transform="translate(-174.52 -57.94)"/><path class="cls-12" d="M480.35,69.71c3.78.11,7.5,2.62,10.23,7.52,5.42,9.73,4.89,25.18-1.17,34.48-3,4.62-6.82,6.86-10.55,6.75l3.32.11c3.74.1,7.54-2.15,10.56-6.76,6.05-9.31,6.57-24.74,1.15-34.49-2.72-4.88-6.43-7.4-10.22-7.51Z" transform="translate(-174.52 -57.94)"/><path class="cls-11" d="M489.41,111.71c-6.05,9.31-15.36,9-20.78-.77s-4.89-25.16,1.16-34.47,15.36-9,20.78.76S495.47,102.4,489.41,111.71Zm-19.74-2.37c2.54,4.56,6,6.85,9.54,6.82,3.29,0,6.62-2.06,9.27-6.13,5.48-8.42,6-22.39,1-31.2-3.17-5.7-7.82-7.85-12.19-6.34a13.25,13.25,0,0,0-6.62,5.65c-5.48,8.44-6,22.4-1.05,31.2" transform="translate(-174.52 -57.94)"/></g><g class="cls-1"><path class="cls-5" d="M480.35,69.71c3.78.11,7.5,2.62,10.23,7.52,5.42,9.73,4.89,25.18-1.17,34.48-3,4.62-6.82,6.86-10.55,6.75l3.32.11c3.74.1,7.54-2.15,10.56-6.76,6.05-9.31,6.57-24.74,1.15-34.49-2.72-4.88-6.43-7.4-10.22-7.51Z" transform="translate(-174.52 -57.94)"/><path class="cls-5" d="M469.79,76.47c-6.06,9.31-6.57,24.75-1.16,34.47,2.73,4.91,6.44,7.43,10.23,7.52a1.28,1.28,0,0,0,.34,0h.38l.68-.06.7-.12.62-.14s.05,0,.08,0l.42-.13.27-.1a13.39,13.39,0,0,0,1.35-.61,1.57,1.57,0,0,0,.33-.19c.35-.19.7-.43,1-.66l.67-.51.51-.45a14.15,14.15,0,0,0,1.39-1.4l.53-.62c.25-.31.48-.63.72-1a1,1,0,0,0,.12-.15c.14-.19.27-.39.4-.6,6.06-9.3,6.59-24.75,1.17-34.48A16.07,16.07,0,0,0,485,71.12c-.16-.1-.31-.19-.47-.27h0l-.32-.16-.34-.16-.53-.22a8.58,8.58,0,0,0-1.23-.37l-.58-.12c-.31,0-.6-.08-.91-.1C476.79,69.49,472.88,71.74,469.79,76.47Zm.93,1.67a13.42,13.42,0,0,1,6.62-5.66c4.37-1.49,9,.65,12.19,6.35,4.91,8.82,4.43,22.78-1,31.2-2.65,4.07-6,6.12-9.27,6.13-3.52,0-7-2.27-9.53-6.82C464.77,100.55,465.24,86.57,470.72,78.14Z" transform="translate(-174.52 -57.94)"/><path class="cls-5" d="M470.72,78.14c-5.48,8.43-6,22.41-1,31.2,2.52,4.55,6,6.85,9.53,6.82,3.29,0,6.62-2.06,9.27-6.13,5.48-8.42,6-22.38,1-31.2-3.18-5.7-7.82-7.84-12.19-6.35A13.42,13.42,0,0,0,470.72,78.14Z" transform="translate(-174.52 -57.94)"/></g><g class="cls-1"><path class="cls-11" d="M397.65,283.19a4.11,4.11,0,0,0,2.92-2.86,2.07,2.07,0,0,1-1.59,1.29,6.77,6.77,0,0,1-5.78-1.41,2,2,0,0,1-.79-1.94,4,4,0,0,0,0,2.08,3.89,3.89,0,0,0,1.14,1.85A4.32,4.32,0,0,0,397.65,283.19Z" transform="translate(-174.52 -57.94)"/><path class="cls-11" d="M400.57,280.33l31.27-114.76a2,2,0,0,1-1.59,1.29,6.76,6.76,0,0,1-5.77-1.41,2,2,0,0,1-.79-1.94L392.41,278.27a2,2,0,0,0,.79,1.94,6.77,6.77,0,0,0,5.78,1.41A2.07,2.07,0,0,0,400.57,280.33Z" transform="translate(-174.52 -57.94)"/></g><g class="cls-1"><path class="cls-12" d="M432.46,165.72l8.69-31.88a2.35,2.35,0,0,1-1.83,1.49,7.79,7.79,0,0,1-6.65-1.62,2.3,2.3,0,0,1-.91-2.23l-8.69,31.88a2.33,2.33,0,0,0,.91,2.23,7.79,7.79,0,0,0,6.65,1.62A2.35,2.35,0,0,0,432.46,165.72Z" transform="translate(-174.52 -57.94)"/><ellipse class="cls-12" cx="436.45" cy="132.66" rx="2.71" ry="4.84" transform="translate(30.3 467.71) rotate(-76.39)"/></g><g class="cls-1"><path class="cls-11" d="M439.82,133.44q4.4-21.56,8.8-43.1" transform="translate(-174.52 -57.94)"/><path class="cls-11" d="M439.82,133.44q4.4-21.56,8.8-43.1a.28.28,0,0,1-.23.2.94.94,0,0,1-.84-.2.27.27,0,0,1-.11-.29h0l-14.31,41.7a1.61,1.61,0,0,0,.63,1.66,5.51,5.51,0,0,0,4.74,1.15A1.67,1.67,0,0,0,439.82,133.44Z" transform="translate(-174.52 -57.94)"/></g><g class="cls-1"><path class="cls-5" d="M397.65,283.19a4.11,4.11,0,0,0,2.92-2.86,2.07,2.07,0,0,1-1.59,1.29,6.77,6.77,0,0,1-5.78-1.41,2,2,0,0,1-.79-1.94,4,4,0,0,0,0,2.08,3.89,3.89,0,0,0,1.14,1.85A4.32,4.32,0,0,0,397.65,283.19Z" transform="translate(-174.52 -57.94)"/><path class="cls-5" d="M423.34,164.8,392.41,278.28a.78.78,0,0,0,0,.21,1.66,1.66,0,0,0,.29,1.07.78.78,0,0,0,.15.22,3,3,0,0,0,.38.43,6.81,6.81,0,0,0,5.79,1.41,2.07,2.07,0,0,0,1.59-1.29l30.92-113.47a4.28,4.28,0,0,1-.86.35,7.76,7.76,0,0,1-6.65-1.63A3,3,0,0,1,423.34,164.8Z" transform="translate(-174.52 -57.94)"/></g><g class="cls-1"><path class="cls-5" d="M431.75,131.54l-8.68,31.83a1.78,1.78,0,0,0,.27,1.43,3,3,0,0,0,.64.78,7.76,7.76,0,0,0,6.65,1.63,4.28,4.28,0,0,0,.86-.35,1.92,1.92,0,0,0,1-1.14L441.09,134a.46.46,0,0,1-.08.13,1.37,1.37,0,0,1-.2.29,2.52,2.52,0,0,1-1,.72c-.15,0-.31.11-.47.15a7.79,7.79,0,0,1-6.65-1.63,2.37,2.37,0,0,1-.27-.28,2.12,2.12,0,0,1-.27-.34c-.06-.08-.1-.15-.15-.23a1.66,1.66,0,0,1-.13-.27l0-.07a1.51,1.51,0,0,1-.08-.34.8.8,0,0,1,0-.15,1,1,0,0,1,0-.17.77.77,0,0,1,0-.27S431.74,131.55,431.75,131.54Z" transform="translate(-174.52 -57.94)"/><path class="cls-5" d="M431.76,131.49s0,0,0,0h0s0,0,0,0a.77.77,0,0,0,0,.27V132a.8.8,0,0,0,0,.15,1.51,1.51,0,0,0,.08.34l0,.07a1.66,1.66,0,0,0,.13.27c0,.08.09.15.15.23a2.12,2.12,0,0,0,.27.34,2.37,2.37,0,0,0,.27.28,7.79,7.79,0,0,0,6.65,1.63c.16,0,.32-.1.47-.15a2.52,2.52,0,0,0,1-.72,1.37,1.37,0,0,0,.2-.29.46.46,0,0,0,.08-.13.66.66,0,0,1,0-.15h0a2.25,2.25,0,0,0-.9-2.26l-.05,0c-.13.62-.25,1.23-.38,1.85a1.62,1.62,0,0,1-1.31,1.13,5.56,5.56,0,0,1-4.74-1.15,1.61,1.61,0,0,1-.63-1.66l.62-1.79a.76.76,0,0,0-.16,0A2.4,2.4,0,0,0,431.76,131.49Z" transform="translate(-174.52 -57.94)"/></g><g class="cls-1"><path class="cls-5" d="M447.43,90.05c-4.35,12.71-8.71,25.42-13.68,39.91l-.62,1.79a1.61,1.61,0,0,0,.63,1.66,5.56,5.56,0,0,0,4.74,1.15,1.62,1.62,0,0,0,1.31-1.13c.13-.62.25-1.23.38-1.85q4.23-20.61,8.42-41.23c0,.08-.09.15-.23.19a.93.93,0,0,1-.83-.2A.31.31,0,0,1,447.43,90.05Z" transform="translate(-174.52 -57.94)"/></g><g class="cls-1"><path class="cls-11" d="M443.71,58.18c1.34.36,2.71.64,4,1a10.74,10.74,0,0,1,3.73,2.21,15.19,15.19,0,0,1,2.85,3.67l.14.27a16,16,0,0,1,1.78,5.22,8.85,8.85,0,0,1-.43,5,4.31,4.31,0,0,1-1.13,1.54,3.18,3.18,0,0,1-.37.27l-.41.28-1,.71a15.83,15.83,0,0,0-4,4.26A16.27,16.27,0,0,0,447.28,86a14.64,14.64,0,0,0-.59,2.11c-.08.4-.14.78-.2,1.21,0,.21-.06.44-.07.67l0,.37c0,.15.71.06.71.37h0l.09,0,.64-.13a2.53,2.53,0,0,0,0-.3c.05-.34,2.55-1.24,2.65-1.61a11.25,11.25,0,0,1,.81-2.17,14.6,14.6,0,0,1,2.78-3.79l.84-.77a11.33,11.33,0,0,0,1.07-1,9.62,9.62,0,0,0,1.83-3.22,13.51,13.51,0,0,0,.7-4.24,17.33,17.33,0,0,0-.46-4A18.44,18.44,0,0,0,456.38,65a16.11,16.11,0,0,0-.86-1.37,13.5,13.5,0,0,0-3.63-3.64,9.2,9.2,0,0,0-4-1.51h0s0,0,0,0C446.43,58.27,445.08,58.26,443.71,58.18Z" transform="translate(-174.52 -57.94)"/><path class="cls-11" d="M447.9,58.43a9.2,9.2,0,0,1,4,1.51,13.5,13.5,0,0,1,3.63,3.64,16.11,16.11,0,0,1,.86,1.37,18.44,18.44,0,0,1,1.74,4.49,17.33,17.33,0,0,1,.46,4,13.51,13.51,0,0,1-.7,4.24,9.62,9.62,0,0,1-1.83,3.22,11.33,11.33,0,0,1-1.07,1l-.84.77a14.6,14.6,0,0,0-2.78,3.79,11.25,11.25,0,0,0-.81,2.17c-.1.37-2.6,1.27-2.65,1.61a2.53,2.53,0,0,1,0,.3l1.14-.26c.05-.34,2.54-1.25,2.65-1.61a9.35,9.35,0,0,1,.81-2.17,14.11,14.11,0,0,1,2.78-3.8l.84-.77a10.22,10.22,0,0,0,1.06-1A9.46,9.46,0,0,0,459,77.66a13.41,13.41,0,0,0,.7-4.24,16.39,16.39,0,0,0-.47-4A18,18,0,0,0,457.48,65a15.42,15.42,0,0,0-.86-1.38A13.83,13.83,0,0,0,453,60a9.38,9.38,0,0,0-4.08-1.53h-1Z" transform="translate(-174.52 -57.94)"/></g><g class="cls-1"><path class="cls-5" d="M443.71,58.18c1.34.36,2.71.64,4,1a10.74,10.74,0,0,1,3.73,2.21,15.19,15.19,0,0,1,2.85,3.67l.14.27a16,16,0,0,1,1.78,5.22,8.85,8.85,0,0,1-.43,5,4.31,4.31,0,0,1-1.13,1.54,3.18,3.18,0,0,1-.37.27l-.41.28-1,.71a15.83,15.83,0,0,0-4,4.26A16.27,16.27,0,0,0,447.28,86a14.64,14.64,0,0,0-.59,2.11c-.08.4-.14.78-.2,1.21,0,.21-.06.44-.07.67l0,.37c0,.15.71.06.71.37h0l.09,0,.64-.13a2.53,2.53,0,0,0,0-.3c.05-.34,2.55-1.24,2.65-1.61a11.25,11.25,0,0,1,.81-2.17,14.6,14.6,0,0,1,2.78-3.79l.84-.77a11.33,11.33,0,0,0,1.07-1,9.62,9.62,0,0,0,1.83-3.22,13.51,13.51,0,0,0,.7-4.24,17.33,17.33,0,0,0-.46-4A18.44,18.44,0,0,0,456.38,65a16.11,16.11,0,0,0-.86-1.37,13.5,13.5,0,0,0-3.63-3.64,9.2,9.2,0,0,0-4-1.51h0s0,0,0,0C446.43,58.27,445.08,58.26,443.71,58.18Z" transform="translate(-174.52 -57.94)"/><path class="cls-5" d="M447.9,58.43a9.2,9.2,0,0,1,4,1.51,13.5,13.5,0,0,1,3.63,3.64,16.11,16.11,0,0,1,.86,1.37,18.44,18.44,0,0,1,1.74,4.49,17.33,17.33,0,0,1,.46,4,13.51,13.51,0,0,1-.7,4.24,9.62,9.62,0,0,1-1.83,3.22,11.33,11.33,0,0,1-1.07,1l-.84.77a14.6,14.6,0,0,0-2.78,3.79,11.25,11.25,0,0,0-.81,2.17c-.1.37-2.6,1.27-2.65,1.61a2.53,2.53,0,0,1,0,.3l1.14-.26c.05-.34,2.54-1.25,2.65-1.61a9.35,9.35,0,0,1,.81-2.17,14.11,14.11,0,0,1,2.78-3.8l.84-.77a10.22,10.22,0,0,0,1.06-1A9.46,9.46,0,0,0,459,77.66a13.41,13.41,0,0,0,.7-4.24,16.39,16.39,0,0,0-.47-4A18,18,0,0,0,457.48,65a15.42,15.42,0,0,0-.86-1.38A13.83,13.83,0,0,0,453,60a9.38,9.38,0,0,0-4.08-1.53h-1Z" transform="translate(-174.52 -57.94)"/></g><path class="cls-9" d="M440,255c-5.72,12.32-11.92,19.69-16.36,27.34a41.54,41.54,0,0,0-5.84,17.82c-.12,1.37-.21,2.77-.28,4.21-.79,16.82,1.86,36.28,1.1,51.7-.79,16.74-7.51,17.38-15.36,17.38a3.05,3.05,0,0,1-2.22-1.17c-6.44-6.78-10.3-34.08-18.3-35.52h-.09a1.05,1.05,0,0,0-.31,0,1.4,1.4,0,0,0-.6.18c-7.7,3.62-6.08,66.84-27.09,66.84-13.14,0-17.46-24.6-20.68-44-.91-5.34-1.73-10.28-2.62-14.22-.33-1.38-.66-2.6-1-3.71l-.09-.35a16.86,16.86,0,0,0-1.06-2.63,7.3,7.3,0,0,0-.52-.88,0,0,0,0,0,0,0s0-.06-.06-.09a4.73,4.73,0,0,0-.34-.4,2.32,2.32,0,0,0-.94-.65,1.37,1.37,0,0,0-.49-.09,1.13,1.13,0,0,0-.3,0c-2.65.47-4.84,4.47-6.81,9.91-4.05,11-7.24,21.34-11.59,25.73a3,3,0,0,1-2.12,1.05c-7.85,0-14.57-.64-15.36-17.38-.15-3.3-.18-6.8-.09-10.4.24-10.31,1.19-21.58,1.31-32.34.06-4.52,0-9-.4-13.17-1.55-17.7-12.56-24.39-22.2-45.16s-19.52-56.12-3.16-81.83,44.46-25.42,44.46-25.42c5.17-4.9,14.62-7.86,23.44-9.64a104.58,104.58,0,0,1,41.26,0c8.82,1.78,18.27,4.74,23.44,9.64a51.78,51.78,0,0,1,13.93,2.34,54.3,54.3,0,0,1,30.56,23.08C459.48,198.84,449.56,234.19,440,255Z" transform="translate(-174.52 -57.94)"/><path class="cls-14" d="M329.16,338.83a7.3,7.3,0,0,0-.52-.88,0,0,0,0,0,0,0s0-.06-.06-.09a4.73,4.73,0,0,0-.34-.4,2.32,2.32,0,0,0-.94-.65,1.37,1.37,0,0,0-.49-.09,1.13,1.13,0,0,0-.3,0c-2.65.47-4.84,4.47-6.81,9.91-4.05,11-7.24,21.34-11.59,25.73,0,0,.34-1.19,0-17.32a54.61,54.61,0,0,1,.52-8.12c1.67-12.68,6.87-26.47,8.33-30.12.21-.53.34-.85.37-.9l.57.87,0,0,6,9.09,1.86,2.86.94,2.8Z" transform="translate(-174.52 -57.94)"/><path class="cls-14" d="M303.79,197.07S270,226.71,310,302.24c0,0-26.53-17.73-28.34-55.09S303.79,197.07,303.79,197.07Z" transform="translate(-174.52 -57.94)"/><path class="cls-14" d="M420,168.37s-24.66-12.09-50.91,6.14a86.62,86.62,0,0,0-14.49-.94h-.06c-9.54,0-13,.94-13,.94a55.47,55.47,0,0,0-52.35-6.14s6.82-11.7,24.89-10.07,14.39,6.21,40.51,6.22h.06c26.12,0,22.46-4.6,40.52-6.22S420,168.37,420,168.37Z" transform="translate(-174.52 -57.94)"/><path class="cls-14" d="M401,372.24v.12c-6.47-6.52-10.36-34.2-18.39-35.64a1.05,1.05,0,0,0-.31,0,1.22,1.22,0,0,0-.57.12,4,4,0,0,0-1.8,2l3.29-9.61.15-.47,8.42-12.85c0,.08.21.52.52,1.25.45,1.2,1.22,3.19,2.07,5.7,2.79,8.06,6.84,21.62,6.62,32.19C400.7,370,400.94,371.16,401,372.24Z" transform="translate(-174.52 -57.94)"/><path class="cls-14" d="M405.31,197.07s33.81,29.64-6.2,105.17c0,0,26.53-17.73,28.34-55.09S405.31,197.07,405.31,197.07Z" transform="translate(-174.52 -57.94)"/><path class="cls-15" d="M440,255c-5.72,12.32-11.92,19.69-16.36,27.34a41.54,41.54,0,0,0-5.84,17.82c-.12,1.37-.21,2.77-.28,4.21-.79,16.82,1.86,36.28,1.1,51.7-.79,16.74-7.51,17.38-15.36,17.38a3.05,3.05,0,0,1-2.22-1.17v.12c-6.47-6.52-10.36-34.12-18.36-35.64h0a1.05,1.05,0,0,0-.31,0,1.4,1.4,0,0,0-.6.18c-7.7,3.62-6.08,66.84-27.09,66.84-13.14,0-17.46-24.6-20.68-44-.91-5.34-1.73-10.28-2.62-14.22-.33-1.38-.66-2.6-1-3.71l-.09-.35a16.86,16.86,0,0,0-1.06-2.63,7.3,7.3,0,0,0-.52-.88,0,0,0,0,0,0,0s0-.06-.06-.09a4.73,4.73,0,0,0-.34-.4,2.32,2.32,0,0,0-.94-.65,1.37,1.37,0,0,0-.49-.09,1.13,1.13,0,0,0-.3,0c-2.65.47-4.84,4.47-6.81,9.91-4.05,11-7.24,21.34-11.59,25.73a3,3,0,0,1-2.12,1.05c-7.85,0-14.57-.64-15.36-17.38-.15-3.3-.18-6.8-.09-10.4.24-10.31,1.19-21.58,1.31-32.34a75.7,75.7,0,0,0,25.11,3.51,3.25,3.25,0,0,0,.94,0l0,0s.07,0,.07,0a73.78,73.78,0,0,0,13.22-1.55c24-5,44.76-20.15,59.78-38.76a134.72,134.72,0,0,0,26.42-54.11,5.47,5.47,0,0,0,.16-.7c.76-3.3,1.39-6.66,1.85-10a122.45,122.45,0,0,0-1.64-44.11,2.48,2.48,0,0,0-.15-.64c-.13-.62-.25-1.23-.43-1.84a118.42,118.42,0,0,0-4.59-15,54.3,54.3,0,0,1,30.56,23.08C459.48,198.84,449.56,234.19,440,255Z" transform="translate(-174.52 -57.94)"/><path class="cls-16" d="M308.6,346.92c3.68,0,7.39-.09,11.07-.29-4.05,11-7.24,21.34-11.59,25.73a3,3,0,0,1-2.12,1.05c-7.85,0-14.57-.64-15.36-17.38-.15-3.3-.18-6.8-.09-10.4q3,.4,6,.68C300.51,346.66,304.59,346.86,308.6,346.92Z" transform="translate(-174.52 -57.94)"/><path class="cls-15" d="M418.58,356c-.79,16.74-7.51,17.38-15.36,17.38a3.05,3.05,0,0,1-2.22-1.17v.12c-6.47-6.52-10.36-34.2-18.39-35.64a1.05,1.05,0,0,0-.31,0,1.4,1.4,0,0,0-.6.18c-7.7,3.62-6.08,66.84-27.09,66.84-13.14,0-17.46-24.6-20.68-44-.91-5.34-1.73-10.28-2.62-14.22a159,159,0,0,0,51.91-16.3c.79-.38,1.55-.79,2.34-1.23,1-.5,1.94-1,2.89-1.58,2-1.14,4-2.31,5.93-3.56a124.59,124.59,0,0,0,23.1-18.52C416.69,321.15,419.34,340.61,418.58,356Z" transform="translate(-174.52 -57.94)"/><path class="cls-5" d="M281.65,171.76c19.51-10.59,42.29-11.16,59.81,2.75" transform="translate(-174.52 -57.94)"/><path class="cls-5" d="M315.38,313.5q1,1.19,1.92,2.37v0a73.24,73.24,0,0,1,12.92,25.56" transform="translate(-174.52 -57.94)"/><path class="cls-5" d="M440,255c-5.72,12.32-11.92,19.69-16.36,27.34a41.54,41.54,0,0,0-5.84,17.82c-.12,1.37-.21,2.77-.28,4.21-.79,16.82,1.86,36.28,1.1,51.7-.79,16.74-7.51,17.38-15.36,17.38a3.05,3.05,0,0,1-2.22-1.17c-6.44-6.78-10.3-34.08-18.3-35.52h-.09a1.05,1.05,0,0,0-.31,0,1.4,1.4,0,0,0-.6.18c-7.7,3.62-6.08,66.84-27.09,66.84-13.14,0-17.46-24.6-20.68-44-.91-5.34-1.73-10.28-2.62-14.22-.33-1.38-.66-2.6-1-3.71l-.09-.35a16.86,16.86,0,0,0-1.06-2.63,7.3,7.3,0,0,0-.52-.88,0,0,0,0,0,0,0s0-.06-.06-.09a4.73,4.73,0,0,0-.34-.4,2.32,2.32,0,0,0-.94-.65,1.37,1.37,0,0,0-.49-.09,1.13,1.13,0,0,0-.3,0c-2.65.47-4.84,4.47-6.81,9.91-4.05,11-7.24,21.34-11.59,25.73a3,3,0,0,1-2.12,1.05c-7.85,0-14.57-.64-15.36-17.38-.15-3.3-.18-6.8-.09-10.4.24-10.31,1.19-21.58,1.31-32.34.06-4.52,0-9-.4-13.17-1.55-17.7-12.56-24.39-22.2-45.16s-19.52-56.12-3.16-81.83,44.46-25.42,44.46-25.42c5.17-4.9,14.62-7.86,23.44-9.64a104.58,104.58,0,0,1,41.26,0c8.82,1.78,18.27,4.74,23.44,9.64a51.78,51.78,0,0,1,13.93,2.34,54.3,54.3,0,0,1,30.56,23.08C459.48,198.84,449.56,234.19,440,255Z" transform="translate(-174.52 -57.94)"/><path class="cls-5" d="M312.61,184.89c5-4.75,14.15-7.61,22.69-9.33a100.9,100.9,0,0,1,39.93,0c8.54,1.72,17.69,4.58,22.69,9.33" transform="translate(-174.52 -57.94)"/><path class="cls-5" d="M293,215.36c-.42,1.84-10.42,33.72,12.14,75.79" transform="translate(-174.52 -57.94)"/><path class="cls-5" d="M428.88,171.76c-19.51-10.59-42.29-11.16-59.81,2.75" transform="translate(-174.52 -57.94)"/><path class="cls-5" d="M378.8,341.46a73,73,0,0,1,12.92-25.56v0q.91-1.19,1.92-2.37" transform="translate(-174.52 -57.94)"/><path class="cls-5" d="M416.15,215.36c.42,1.84,10.41,33.72-12.14,75.79" transform="translate(-174.52 -57.94)"/><ellipse class="cls-11" cx="274.13" cy="192.43" rx="13.09" ry="8.99" transform="translate(-174.39 327.11) rotate(-70.17)"/><path class="cls-11" d="M337.88,302.83a7,7,0,0,1-6.86-1.7c-1.64-1.84-1.75-4.22-1.77-6.53a19,19,0,0,0-2.12-5.12,45.68,45.68,0,0,1-3.53-6.23,11.17,11.17,0,0,1-.5-6.71c1.14-4.84,5.73-8.63,11-7.42,4.67,1.07,8.34,5,10.15,9.09a26.92,26.92,0,0,1,1.92,14.55C345.49,297.22,342.68,301.67,337.88,302.83Z" transform="translate(-174.52 -57.94)"/><path class="cls-17" d="M386.13,212.19c-.94,1.45-3.05,1.61-4.82,1.39s-3.65-.64-5.22.16a11.83,11.83,0,0,0-2.29,1.95,3.43,3.43,0,0,1-2.74,1.1c-1.62-.27-2.29-2.21-3.7-3-2-1.11-4.94.21-6.55-1.36-1.14-1.12-.77-3-.13-4.44,1.56-3.54,4.19-6.64,5.11-10.38,0-.18.09-.38.12-.57.12-1.17.15-2.36.18-3.53.08-2.91.17-5.9,1.42-8.54s4-4.87,7-4.68a7.31,7.31,0,0,1,5.8,4.17,15.28,15.28,0,0,1,1.28,7.14,52.43,52.43,0,0,0,.05,7.31,16.52,16.52,0,0,0,2.73,7.15,19.2,19.2,0,0,1,1.84,2.88A3.52,3.52,0,0,1,386.13,212.19Z" transform="translate(-174.52 -57.94)"/><polygon class="cls-18" points="274.2 138.02 272.94 143.04 264.02 144.94 261.79 139.97 274.2 138.02"/><path class="cls-4" d="M451.48,182.69a57.53,57.53,0,0,1-2.23,11.17l-.53,2.1-12.42,1.95a5.45,5.45,0,0,0,1.37-2.26,4.94,4.94,0,0,0,.18-.76,4.17,4.17,0,0,0-1.08-3.57,3.21,3.21,0,0,0-3.68-.56,3.43,3.43,0,0,0-1.36,1.71l0,.08-10.57-6.26v-9.64A5.52,5.52,0,0,1,422.4,173c3.79-4.59,15-4,18.11-3.1a11.41,11.41,0,0,1,3.06,1.55C447.31,174,451.71,178.88,451.48,182.69Z" transform="translate(-174.52 -57.94)"/><path class="cls-4" d="M466.86,251.61c-.36,3.36-.71,6.31-.95,7.84,0,0,.22,1.47.56,3.81h0c1.07,7.58,3.3,24.34,2.81,30.17l-1,.57-23.69,13.82a13.54,13.54,0,0,1-13.28-.12l-1.6-.91h0l-12.38-7.12.7-29.29-.45-23-3.48.6-1.13.2L411.88,244l-4.59-17.41-1-3.94s6.71-4.77,11.67-6.7a72.44,72.44,0,0,1,12.14-3.07l1.16-3.44s.95-.35,2.46-.84c3.89-1.29,11.44-3.59,15.49-3.53l4.62,3.91s13.22,7.34,17.5,15.8-1,26.77-1,26.77l-1,0-2.3.07Z" transform="translate(-174.52 -57.94)"/><path class="cls-19" d="M469.27,251.55l-2.8,11.71c-.34-2.34-.56-3.81-.56-3.81.24-1.53.59-4.48.95-7.84H467Z" transform="translate(-174.52 -57.94)"/><path class="cls-19" d="M411.88,244c-.59-.05-24.46-2.14-25.75-4.14s-13.58-26.27-14-27c1.65-.35,6.24-1.47,9.35-3.81l.08.11,11,17.55,14.66-.09Z" transform="translate(-174.52 -57.94)"/><path class="cls-4" d="M382,208.63l-.47.36c-3.11,2.34-7.7,3.46-9.35,3.81h0c-.39.09-.61.12-.61.12l-1.91-4.45c-4.45-5.07-1.84-12.84-1.84-12.84l.45-10.15a2.05,2.05,0,0,1,1.53-1.87l.68-.17h0c.79-.22,1.71-.46,2.61-.67a14.39,14.39,0,0,1,3.82-.59c1,.2,1.41,6.6,1.41,10.9.17-.55.38-1.1.6-1.64.08-.18.19-.4.4-.43s.47.25.55.51a7.6,7.6,0,0,1,.22,2.61c-.13,2.68-.5,5.34-.89,8,.52,1.76,1,3.17,1,3.17Z" transform="translate(-174.52 -57.94)"/><path class="cls-4" d="M468.3,294l-.32,9.07-19,9.86-4.26,16.83h0l-8.39,33.13c2,3.08,2.06,8.44,2.06,8.44l-1.7,23.24,0,.34-1,13.37-2.18,1.24a14.47,14.47,0,0,1-13.59.31l-1.24-.64s0-.4-.08-1.13c-.53-7.11-3.34-45.59-2.88-54.58.49-9.92,1.64-53.83,1.64-53.83l12.38,7.12h0l1.6.91a13.54,13.54,0,0,0,13.28.12Z" transform="translate(-174.52 -57.94)"/><path class="cls-20" d="M469.42,392.17l-.05,0a21.29,21.29,0,0,1-8.91,2.41,9.5,9.5,0,0,1-6-1.94l-1.72-1.35-8-61.54h0L449,312.94l19-9.86-1.51,42.77s3.52,9,2.87,15.95S469.42,392.17,469.42,392.17Z" transform="translate(-174.52 -57.94)"/><path class="cls-9" d="M426.71,197.44v8L424.37,207a7.18,7.18,0,0,1-2.12-4.64l-.61-8.82Z" transform="translate(-174.52 -57.94)"/><path class="cls-19" d="M449.17,205c-4.05-.06-11.6,2.24-15.49,3.53l-.05-.16c-3.47,1.16-6,.69-7.75-.27a6.59,6.59,0,0,1-1.51-1.12l2.34-1.61v-8l-5.07-3.88-.51-7.27,10.57,6.26a3.48,3.48,0,0,1,1.39-1.79,3.21,3.21,0,0,1,3.68.56,4.17,4.17,0,0,1,1.08,3.57,4.94,4.94,0,0,1-.18.76,5.45,5.45,0,0,1-1.37,2.26l2.24,5,8.92-1.9Z" transform="translate(-174.52 -57.94)"/><path class="cls-18" d="M435.83,408.3v13.1a1.92,1.92,0,0,1-1,1.67l-5.21,3a2.07,2.07,0,0,1-2.06,0l-21.21-12.27a3.07,3.07,0,0,1-.33-5.16l2.32-1.74a4.36,4.36,0,0,1,3.86-.68l6.36,1.91h0c.05.73.08,1.13.08,1.13l1.24.64a14.44,14.44,0,0,0,13.59-.31l2.18-1.24Z" transform="translate(-174.52 -57.94)"/><path class="cls-18" d="M469.42,392.29V405.4a1.92,1.92,0,0,1-1,1.67L463.23,410a2.07,2.07,0,0,1-2.06,0L440,397.75a3.08,3.08,0,0,1-.33-5.17l3.76-2.2a4.33,4.33,0,0,1,3.86-.69l5.49,1.63,1.72,1.35a9.5,9.5,0,0,0,6,1.94,21.29,21.29,0,0,0,8.91-2.41Z" transform="translate(-174.52 -57.94)"/><path class="cls-20" d="M429.73,306.8l-7,57.11L425,411.32a14.39,14.39,0,0,1-5-1.47l-1.24-.64s0-.4-.08-1.13c-.53-7.11-3.34-45.59-2.88-54.58.49-9.92,1.64-53.83,1.64-53.83l.7-29.29-.45-23,9.55-1.66,2.58,61.05Z" transform="translate(-174.52 -57.94)"/><path class="cls-20" d="M443.57,171.47c-2.67.29-5,2.63-6.62,4.49a20.87,20.87,0,0,0-4.25,7.69,24.43,24.43,0,0,0-1,8.82l0,.08-10.57-6.26v-9.64A5.52,5.52,0,0,1,422.4,173c3.79-4.59,15-4,18.11-3.1A11.41,11.41,0,0,1,443.57,171.47Z" transform="translate(-174.52 -57.94)"/><polyline class="cls-5" points="247.12 135.62 252.19 139.5 252.19 147.47 249.85 149.08"/><path class="cls-5" d="M435.56,198.55a5.54,5.54,0,0,0,2.29-3.65,4.16,4.16,0,0,0-1.09-3.57,3.15,3.15,0,0,0-3.67-.56,3.42,3.42,0,0,0-1.39,1.78l-10.57-6.26,1.12,16.09a7.11,7.11,0,0,0,3.63,5.76c1.88,1,4.62,1.49,8.45,0" transform="translate(-174.52 -57.94)"/><path class="cls-5" d="M437.67,195.65l.68.48,10.9-2.26a57.89,57.89,0,0,0,2.23-11.19c.3-5-7.24-11.72-11-12.75s-19.38-1.76-19.38,6.71v9.65" transform="translate(-174.52 -57.94)"/><polyline class="cls-5" points="261.79 139.97 264.02 144.94 272.94 143.04 274.73 135.93"/><path class="cls-5" d="M467,251.63l3.29-.11s5.31-18.3,1-26.76S453.79,209,453.79,209L449.17,205c-5.61-.09-18,4.37-18,4.37l-1.14,3.45a70.67,70.67,0,0,0-12.14,3.06c-5,1.93-11.67,6.71-11.67,6.71L413,248.2l15.42-2.68" transform="translate(-174.52 -57.94)"/><line class="cls-5" x1="291.95" y1="205.33" x2="294.76" y2="193.58"/><path class="cls-5" d="M468.58,234.47s-1.89,20-2.67,25c0,0,4,26.35,3.37,34l-24.67,14.4a13.59,13.59,0,0,1-13.28-.13l-14-8,.7-29.28-.44-23" transform="translate(-174.52 -57.94)"/><path class="cls-5" d="M372.16,212.78s12.65,25,14,27.05S411.88,244,411.88,244l-4.59-17.41-14.66.09-11-17.56" transform="translate(-174.52 -57.94)"/><path class="cls-5" d="M382,208.63a5.58,5.58,0,0,1-.48.37c-3.11,2.33-7.71,3.46-9.36,3.81l-.61.11-1.9-4.44c-4.45-5.08-1.85-12.84-1.85-12.84l.45-10.16a2,2,0,0,1,1.53-1.86c2.18-.6,6.14-1.62,7.12-1.43s1.42,6.59,1.42,10.89c.17-.55.37-1.1.59-1.63.08-.19.2-.4.4-.44s.47.26.55.51a7.16,7.16,0,0,1,.22,2.61c-.13,2.68-.49,5.34-.88,8,.51,1.76,1,3.17,1,3.17Z" transform="translate(-174.52 -57.94)"/><line class="cls-5" x1="203.8" y1="135.15" x2="203.8" y2="139.82"/><path class="cls-5" d="M370.46,183.43s1.09-.28.51,11" transform="translate(-174.52 -57.94)"/><path class="cls-5" d="M373.08,182.77s1.11,3.19.77,11.51" transform="translate(-174.52 -57.94)"/><path class="cls-5" d="M375.2,182.32s1.1,1,1.07,12" transform="translate(-174.52 -57.94)"/><path class="cls-5" d="M417.35,299.67s-1.15,43.91-1.64,53.83,3,55.72,3,55.72l1.25.63a14.41,14.41,0,0,0,13.59-.32l2.17-1.23,2.71-36.95s0-5.36-2.05-8.44l12.65-50,19-9.86" transform="translate(-174.52 -57.94)"/><path class="cls-5" d="M468.29,294l-1.82,51.84s3.52,9,2.88,15.95.08,30.37.08,30.37h0c-4.89,2.37-10.71,3.81-15,.5l-1.72-1.34-8-61.56" transform="translate(-174.52 -57.94)"/><polyline class="cls-5" points="252.19 147.47 272.94 143.04 274.65 147.1"/><line class="cls-5" x1="218.11" y1="168.71" x2="213.58" y2="172.03"/><path class="cls-5" d="M418.58,408.08l-6.36-1.91a4.36,4.36,0,0,0-3.86.68L406,408.59a3.07,3.07,0,0,0,.33,5.16L427.58,426a2.1,2.1,0,0,0,2.06,0l5.21-3a1.93,1.93,0,0,0,1-1.66V408.3" transform="translate(-174.52 -57.94)"/><path class="cls-5" d="M452.75,391.33l-5.5-1.64a4.38,4.38,0,0,0-3.86.68l-3.76,2.22a3.06,3.06,0,0,0,.33,5.15L461.17,410a2.07,2.07,0,0,0,2.06,0l5.21-3a1.93,1.93,0,0,0,1-1.66V392.29" transform="translate(-174.52 -57.94)"/><line class="cls-5" x1="252.19" y1="139.5" x2="257.18" y2="134.61"/><path class="cls-18" d="M236.65,168c-3.07,1.53-3.59,5.68-3.66,6.53-.08-.85-.59-5-3.67-6.53,3.08-1.54,3.59-5.69,3.67-6.54C233.06,162.29,233.58,166.44,236.65,168Z" transform="translate(-174.52 -57.94)"/><path class="cls-18" d="M367.48,253.35c-4.53,2.27-5.3,8.38-5.41,9.64-.11-1.26-.87-7.37-5.41-9.64,4.54-2.27,5.3-8.4,5.41-9.66C362.18,245,363,251.08,367.48,253.35Z" transform="translate(-174.52 -57.94)"/><path class="cls-18" d="M394.12,201.71a1.48,1.48,0,1,0,0,3A1.48,1.48,0,1,0,394.12,201.71Z" transform="translate(-174.52 -57.94)"/><path class="cls-18" d="M403.22,209.27a1.48,1.48,0,1,0,0,3A1.48,1.48,0,1,0,403.22,209.27Z" transform="translate(-174.52 -57.94)"/><path class="cls-18" d="M250.27,174.51a1.48,1.48,0,1,0,0,3A1.48,1.48,0,1,0,250.27,174.51Z" transform="translate(-174.52 -57.94)"/><path class="cls-18" d="M244.85,183.4c-4.53,2.27-5.3,8.39-5.4,9.64-.12-1.25-.88-7.37-5.42-9.64,4.54-2.27,5.3-8.4,5.42-9.65C239.55,175,240.32,181.13,244.85,183.4Z" transform="translate(-174.52 -57.94)"/><path class="cls-18" d="M248.79,200a1.48,1.48,0,1,0,0,3A1.48,1.48,0,1,0,248.79,200Z" transform="translate(-174.52 -57.94)"/><path class="cls-18" d="M235.16,204.66a1.48,1.48,0,1,0,0,3A1.48,1.48,0,1,0,235.16,204.66Z" transform="translate(-174.52 -57.94)"/><path class="cls-18" d="M397.25,127.35c-4.53,2.27-5.3,8.38-5.4,9.64-.12-1.26-.88-7.37-5.42-9.64,4.54-2.27,5.3-8.4,5.42-9.65C392,119,392.72,125.08,397.25,127.35Z" transform="translate(-174.52 -57.94)"/><path class="cls-18" d="M373,236c-2.94,1.47-3.44,5.44-3.51,6.25-.07-.81-.56-4.78-3.51-6.25,2.95-1.48,3.44-5.46,3.51-6.27C369.57,230.5,370.07,234.48,373,236Z" transform="translate(-174.52 -57.94)"/><path class="cls-18" d="M357.28,231.09a1.48,1.48,0,1,0,0,3A1.48,1.48,0,1,0,357.28,231.09Z" transform="translate(-174.52 -57.94)"/><path class="cls-18" d="M376.8,242.21a1.48,1.48,0,1,0,0,3A1.48,1.48,0,1,0,376.8,242.21Z" transform="translate(-174.52 -57.94)"/><path class="cls-18" d="M402.64,116.56a1.48,1.48,0,1,0,0,3A1.48,1.48,0,1,0,402.64,116.56Z" transform="translate(-174.52 -57.94)"/><path class="cls-18" d="M412.35,139.6a1.48,1.48,0,1,0,0,3A1.48,1.48,0,1,0,412.35,139.6Z" transform="translate(-174.52 -57.94)"/><path class="cls-18" d="M421.49,121.5a1.48,1.48,0,1,0,0,3A1.48,1.48,0,1,0,421.49,121.5Z" transform="translate(-174.52 -57.94)"/><line class="cls-21" x1="99.61" y1="134.5" x2="98.85" y2="133.15"/><line class="cls-22" x1="97.27" y1="130.34" x2="66.47" y2="75.53"/><polyline class="cls-21" points="65.68 74.13 64.92 72.78 63.38 72.78"/><line class="cls-23" x1="59.47" y1="72.78" x2="53.62" y2="72.78"/><line class="cls-21" x1="51.66" y1="72.78" x2="50.12" y2="72.78"/><ellipse class="cls-3" cx="24.58" cy="72.78" rx="24.58" ry="23.62"/><polygon class="cls-24" points="41.66 67.86 41.66 77.7 29.7 77.7 29.7 89.19 19.46 89.19 19.46 77.7 7.51 77.7 7.51 67.86 19.46 67.86 19.46 56.38 29.7 56.38 29.7 67.86 41.66 67.86"/><polyline class="cls-25" points="161.87 230.42 104.08 290.91 60.88 290.91"/><ellipse class="cls-3" cx="34.81" cy="289.01" rx="24.58" ry="23.62"/><polygon class="cls-24" points="51.88 284.09 51.88 293.93 39.93 293.93 39.93 305.41 29.69 305.41 29.69 293.93 17.73 293.93 17.73 284.09 29.69 284.09 29.69 272.61 39.93 272.61 39.93 284.09 51.88 284.09"/></g></svg>